<svg xmlns="http://www.w3.org/2000/svg" width="300" height="300" class="bubble"><defs><pattern id="hash-warning" patternUnits="userSpaceOnUse" width="4" height="4"><path d="M-1,1 l2,-2 M0,4 l4,-4 M3,5 l2,-2" stroke="#000000" stroke-width="1"/></pattern><pattern id="hash-critical" patternUnits="userSpaceOnUse" width="4" height="4"><path d="M-1,1 l2,-2 M0,4 l4,-4 M3,5 l2,-2" stroke="#000000" stroke-width="3"/></pattern><pattern id="hash-good" patternUnits="userSpaceOnUse" width="5" height="5"><circle cx="2" cy="2" r="2" style="stroke:none;fill:#eee"/></pattern></defs><g class="node"><circle r="8.56408342100598" x="38518.09241194903" y="45384.557515952474" transform="translate(128.8197070633747,151.78447329749991)" style="fill: rgb(120, 186, 0); stroke-width: 0px; stroke: rgb(0, 0, 0);"/></g><g class="node"><circle r="8.56408342100598" x="44069.575631066626" y="45384.557515952474" transform="translate(147.38654057212918,151.78447329749991)" style="fill: rgb(120, 186, 0); stroke-width: 0px; stroke: rgb(0, 0, 0);"/></g><g class="node"><circle r="10.488817248046809" x="41293.83402150783" y="39922.40357349183" transform="translate(138.10312381775194,133.5163999113439)" style="fill: rgb(120, 186, 0); stroke-width: 0px; stroke: rgb(0, 0, 0);"/></g><g class="node"><circle r="8.56408342100598" x="35245.39951738216" y="40900.313192769834" transform="translate(117.8742458775323,136.78700064471516)" style="fill: rgb(120, 186, 0); stroke-width: 0px; stroke: rgb(0, 0, 0);"/></g><g class="node"><circle r="8.56408342100598" x="32998.27646401328" y="45976.670539840896" transform="translate(110.35878416057953,153.7647844141836)" style="fill: rgb(120, 186, 0); stroke-width: 0px; stroke: rgb(0, 0, 0);"/></g><g class="node"><circle r="10.488817248046809" x="36340.769732786124" y="51111.61025929064" transform="translate(121.53769141400042,170.93849585047036)" style="fill: rgb(120, 186, 0); stroke-width: 0px; stroke: rgb(0, 0, 0);"/></g><g class="node"><circle r="8.56408342100598" x="42453.61180861541" y="50695.64279644581" transform="translate(141.98197929302813,169.54730032256126)" style="fill: rgb(120, 186, 0); stroke-width: 0px; stroke: rgb(0, 0, 0);"/></g><g class="node"><circle r="23.45370837020494" x="52456.08504691516" y="50837.63861881128" transform="translate(175.43506704653902,170.02220273849926)" style="fill: rgb(244, 179, 0); stroke-width: 0px; stroke: rgb(0, 0, 0);"/></g><g class="node"><circle r="10.488817248046809" x="48412.002990578236" y="41062.151727327415" transform="translate(161.90970899858942,137.32826664657998)" style="fill: rgb(120, 186, 0); stroke-width: 0px; stroke: rgb(0, 0, 0);"/></g><g class="node"><circle r="10.488817248046809" x="45746.331001681494" y="34912.57034258726" transform="translate(152.9944180658244,116.76110482470658)" style="fill: rgb(120, 186, 0); stroke-width: 0px; stroke: rgb(0, 0, 0);"/></g><g class="node"><circle r="10.488817248046809" x="39181.43966490784" y="33561.511462935654" transform="translate(131.03825974885567,112.2425132539654)" style="fill: rgb(120, 186, 0); stroke-width: 0px; stroke: rgb(0, 0, 0);"/></g><g class="node"><circle r="17.12816684201196" x="30525.47092739455" y="34302.65019664296" transform="translate(102.08853152974766,114.72123811586273)" style="fill: rgb(244, 179, 0); stroke-width: 0px; stroke: rgb(0, 0, 0);"/></g><g class="node"><circle r="8.56408342100598" x="28885.93089865861" y="42247.383760408135" transform="translate(96.60512006240339,141.29225337929142)" style="fill: rgb(120, 186, 0); stroke-width: 0px; stroke: rgb(0, 0, 0);"/></g><g class="node"><circle r="12.111442923281228" x="26910.640497158853" y="48557.58758242331" transform="translate(89.99879764936071,162.3966139880378)" style="fill: rgb(120, 186, 0); stroke-width: 0px; stroke: rgb(0, 0, 0);"/></g><g class="node"><circle r="12.111442923281228" x="30520.053341836374" y="55328.411995365816" transform="translate(102.07041251450292,185.04151169018667)" style="fill: rgb(120, 186, 0); stroke-width: 0px; stroke: rgb(0, 0, 0);"/></g><g class="node"><circle r="8.56408342100598" x="36856.8002681121" y="57216.81948263308" transform="translate(123.26354604719766,191.35725579475945)" style="fill: rgb(120, 186, 0); stroke-width: 0px; stroke: rgb(0, 0, 0);"/></g><g class="node"><circle r="14.83342760544064" x="44014.73321243601" y="59194.122287852886" transform="translate(147.20312111182614,197.97030865502637)" style="fill: rgb(244, 179, 0); stroke-width: 0px; stroke: rgb(0, 0, 0);"/></g><g class="node"><circle r="18.167164384921843" x="53280.70095529737" y="63686.005928962426" transform="translate(178.19297978360325,212.99333086609508)" style="fill: rgb(244, 179, 0); stroke-width: 0px; stroke: rgb(0, 0, 0);"/></g><g class="node"><circle r="14.83342760544064" x="61896.42776486637" y="58046.46442278582" transform="translate(207.0081196149377,194.13198803607298)" style="fill: rgb(120, 186, 0); stroke-width: 0px; stroke: rgb(0, 0, 0);"/></g><g class="node"><circle r="8.56408342100598" x="62457.64671160084" y="50641.68463451434" transform="translate(208.8851060588657,169.36683824252287)" style="fill: rgb(120, 186, 0); stroke-width: 0px; stroke: rgb(0, 0, 0);"/></g><g class="node"><circle r="8.56408342100598" x="60813.05475262442" y="45339.39425953351" transform="translate(203.3847985037606,151.63342561716894)" style="fill: rgb(244, 179, 0); stroke-width: 0px; stroke: rgb(0, 0, 0);"/></g><g class="node"><circle r="19.14987269434832" x="56995.552980502485" y="37503.17117676037" transform="translate(190.6172340485033,125.42532166140593)" style="fill: rgb(244, 179, 0); stroke-width: 0px; stroke: rgb(0, 0, 0);"/></g><g class="node"><circle r="8.56408342100598" x="50768.82130013554" y="31403.374084737123" transform="translate(169.79204448205866,105.02466249075961)" style="fill: rgb(120, 186, 0); stroke-width: 0px; stroke: rgb(0, 0, 0);"/></g><g class="node"><circle r="8.56408342100598" x="45872.599043376984" y="28786.892946917396" transform="translate(153.41671920861867,96.27388945457324)" style="fill: rgb(120, 186, 0); stroke-width: 0px; stroke: rgb(0, 0, 0);"/></g><g class="node"><circle r="20.084555923164498" x="38232.64384494112" y="24037.052876813126" transform="translate(127.86502958174287,80.38813671174958)" style="fill: rgb(255, 46, 18); stroke-width: 0px; stroke: rgb(0, 0, 0);"/></g><g class="node"><circle r="17.12816684201196" x="26680.02690916035" y="24346.680675327538" transform="translate(89.2275147463557,81.42368118838641)" style="fill: rgb(255, 46, 18); stroke-width: 0px; stroke: rgb(0, 0, 0);"/></g><g class="node"><circle r="8.56408342100598" x="22903.30905915044" y="31526.04591094975" transform="translate(76.59635136839613,105.43493615702258)" style="fill: rgb(244, 179, 0); stroke-width: 0px; stroke: rgb(0, 0, 0);"/></g><g class="node"><circle r="10.488817248046809" x="22504.436339616328" y="37640.0272429286" transform="translate(75.26232889503788,125.88303425728628)" style="fill: rgb(244, 179, 0); stroke-width: 0px; stroke: rgb(0, 0, 0);"/></g><g class="node"><circle r="16.021932996577636" x="18766.569047038567" y="45114.36459424332" transform="translate(62.76110049176778,150.88081804094756)" style="fill: rgb(255, 46, 18); stroke-width: 0px; stroke: rgb(0, 0, 0);"/></g><g class="node"><circle r="14.83342760544064" x="20885.98098697539" y="54534.80891316486" transform="translate(69.84943473904814,182.38732077981558)" style="fill: rgb(255, 46, 18); stroke-width: 0px; stroke: rgb(0, 0, 0);"/></g><g class="node"><circle r="41.515934697243814" x="25796.366465602834" y="71101.00480804955" transform="translate(86.27212864750112,237.79265822090147)" style="fill: rgb(255, 46, 18); stroke-width: 0px; stroke: rgb(0, 0, 0);"/></g><g class="node"><circle r="8.56408342100598" x="40162.806360911396" y="65543.01116303974" transform="translate(134.3204226117438,219.2040507125075)" style="fill: rgb(120, 186, 0); stroke-width: 0px; stroke: rgb(0, 0, 0);"/></g><g class="node"><circle r="8.56408342100598" x="45526.48906164213" y="66974.74920403257" transform="translate(152.25916074127804,223.99247225428957)" style="fill: rgb(120, 186, 0); stroke-width: 0px; stroke: rgb(0, 0, 0);"/></g><g class="node"><circle r="19.14987269434832" x="49608.24802434685" y="74676.62921825769" transform="translate(165.91052850952124,249.75126828848727)" style="fill: rgb(255, 46, 18); stroke-width: 0px; stroke: rgb(0, 0, 0);"/></g><g class="node"><circle r="8.56408342100598" x="57500.19196969388" y="70975.6924791819" transform="translate(192.30498986519692,237.37355344207992)" style="fill: rgb(244, 179, 0); stroke-width: 0px; stroke: rgb(0, 0, 0);"/></g><g class="node"><circle r="12.111442923281228" x="62384.765072115064" y="66519.08053144229" transform="translate(208.64135475623766,222.46849676067654)" style="fill: rgb(244, 179, 0); stroke-width: 0px; stroke: rgb(0, 0, 0);"/></g><g class="node"><circle r="10.488817248046809" x="68441.63114857586" y="62649.12839775174" transform="translate(228.89843193503634,209.525513035959)" style="fill: rgb(244, 179, 0); stroke-width: 0px; stroke: rgb(0, 0, 0);"/></g><g class="node"><circle r="17.12816684201196" x="71197.57612311149" y="54410.205609866134" transform="translate(238.11563920773074,181.970587323967)" style="fill: rgb(255, 46, 18); stroke-width: 0px; stroke: rgb(0, 0, 0);"/></g><g class="node"><circle r="8.56408342100598" x="67009.04245086965" y="47463.0429817466" transform="translate(224.1071653875239,158.73592970483813)" style="fill: rgb(120, 186, 0); stroke-width: 0px; stroke: rgb(0, 0, 0);"/></g><g class="node"><circle r="8.56408342100598" x="65364.45049189323" y="42160.75260676578" transform="translate(218.60685783241883,141.00251707948422)" style="fill: rgb(244, 179, 0); stroke-width: 0px; stroke: rgb(0, 0, 0);"/></g><g class="node"><circle r="17.12816684201196" x="67848.37074787523" y="34438.25151793668" transform="translate(226.91428343770983,115.1747542405909)" style="fill: rgb(244, 179, 0); stroke-width: 0px; stroke: rgb(0, 0, 0);"/></g><g class="node"><circle r="8.56408342100598" x="61161.03893039552" y="29846.250203915977" transform="translate(204.54862518526932,99.81689031410026)" style="fill: rgb(120, 186, 0); stroke-width: 0px; stroke: rgb(0, 0, 0);"/></g><g class="node"><circle r="8.56408342100598" x="55699.30648589993" y="28852.04467341015" transform="translate(186.28196149130412,96.49178820538512)" style="fill: rgb(120, 186, 0); stroke-width: 0px; stroke: rgb(0, 0, 0);"/></g><g class="node"><circle r="8.56408342100598" x="51024.547809386175" y="25857.783955218838" transform="translate(170.6473170882481,86.47753831176868)" style="fill: rgb(120, 186, 0); stroke-width: 0px; stroke: rgb(0, 0, 0);"/></g><g class="node"><circle r="8.56408342100598" x="47002.33511494949" y="22031.457914111437" transform="translate(157.19510071889462,73.68046125120883)" style="fill: rgb(120, 186, 0); stroke-width: 0px; stroke: rgb(0, 0, 0);"/></g><g class="node"><circle r="8.56408342100598" x="44155.276404110795" y="17265.618782417867" transform="translate(147.6731652311398,57.74119994119688)" style="fill: rgb(120, 186, 0); stroke-width: 0px; stroke: rgb(0, 0, 0);"/></g><g class="node"><circle r="19.14987269434832" x="37275.233301850254" y="11913.542653084709" transform="translate(124.6629876316062,39.84127977620304)" style="fill: rgb(244, 179, 0); stroke-width: 0px; stroke: rgb(0, 0, 0);"/></g><g class="node"><circle r="8.56408342100598" x="30237.14559649263" y="17056.016127477604" transform="translate(101.1242327641894,57.0401877173164)" style="fill: rgb(120, 186, 0); stroke-width: 0px; stroke: rgb(0, 0, 0);"/></g></svg>