<svg xmlns="http://www.w3.org/2000/svg" width="300" height="300" class="bubble"><defs><pattern id="hash-warning" patternUnits="userSpaceOnUse" width="4" height="4"><path d="M-1,1 l2,-2 M0,4 l4,-4 M3,5 l2,-2" stroke="#000000" stroke-width="1"/></pattern><pattern id="hash-critical" patternUnits="userSpaceOnUse" width="4" height="4"><path d="M-1,1 l2,-2 M0,4 l4,-4 M3,5 l2,-2" stroke="#000000" stroke-width="3"/></pattern><pattern id="hash-good" patternUnits="userSpaceOnUse" width="5" height="5"><circle cx="2" cy="2" r="2" style="stroke:none;fill:#eee"/></pattern></defs><g class="node"><circle r="3.102929483310004" x="45422.82873429497" y="45636.53240131821" transform="translate(151.91247068326078,152.6271986666161)" style="fill: rgb(120, 186, 0); stroke-width: 0px; stroke: rgb(0, 0, 0);"/></g><g class="node"><circle r="3.102929483310004" x="47720.4993009863" y="45636.53240131821" transform="translate(159.59698762871673,152.6271986666161)" style="fill: rgb(120, 186, 0); stroke-width: 0px; stroke: rgb(0, 0, 0);"/></g><g class="node"><circle r="3.102929483310004" x="46571.66401764064" y="43646.69132103573" transform="translate(155.75472915598877,145.97221177603925)" style="fill: rgb(120, 186, 0); stroke-width: 0px; stroke: rgb(0, 0, 0);"/></g><g class="node"><circle r="3.8002969709736805" x="44068.2959578157" y="43527.93181800342" transform="translate(147.38226072848062,145.57502280268702)" style="fill: rgb(120, 186, 0); stroke-width: 0px; stroke: rgb(0, 0, 0);"/></g><g class="node"><circle r="3.102929483310004" x="43135.4769578818" y="45854.04535260882" transform="translate(144.2624647420796,153.35466673113316)" style="fill: rgb(120, 186, 0); stroke-width: 0px; stroke: rgb(0, 0, 0);"/></g><g class="node"><circle r="5.374431517396371" x="44539.13000672669" y="48479.191463841555" transform="translate(148.95695654423642,162.13441961151022)" style="fill: rgb(120, 186, 0); stroke-width: 0px; stroke: rgb(0, 0, 0);"/></g><g class="node"><circle r="3.8002969709736805" x="47706.66738921552" y="48142.67767658238" transform="translate(159.5507270542325,161.00895544007486)" style="fill: rgb(120, 186, 0); stroke-width: 0px; stroke: rgb(0, 0, 0);"/></g><g class="node"><circle r="3.102929483310004" x="49756.70031183166" y="46701.039553230316" transform="translate(166.40702445428647,156.1874232549509)" style="fill: rgb(120, 186, 0); stroke-width: 0px; stroke: rgb(0, 0, 0);"/></g><g class="node"><circle r="12.411717933240014" x="51332.06846088052" y="41870.4330639879" transform="translate(171.6758142504365,140.03154870898962)" style="fill: rgb(244, 179, 0); stroke-width: 0px; stroke: rgb(0, 0, 0);"/></g><g class="node"><circle r="3.102929483310004" x="46275.95989228404" y="41368.12837406966" transform="translate(154.76575214810714,138.35159991327646)" style="fill: rgb(120, 186, 0); stroke-width: 0px; stroke: rgb(0, 0, 0);"/></g><g class="node"><circle r="7.600593941947361" x="42971.136057670505" y="39836.54636841078" transform="translate(143.71282962431607,133.2292520682635)" style="fill: rgb(244, 179, 0); stroke-width: 0px; stroke: rgb(0, 0, 0);"/></g><g class="node"><circle r="3.102929483310004" x="41583.11114621012" y="43204.18513512153" transform="translate(139.07060584016762,144.4922579769951)" style="fill: rgb(120, 186, 0); stroke-width: 0px; stroke: rgb(0, 0, 0);"/></g><g class="node"><circle r="3.102929483310004" x="40884.521315583755" y="45393.080354538186" transform="translate(136.73418500195237,151.8129777743752)" style="fill: rgb(120, 186, 0); stroke-width: 0px; stroke: rgb(0, 0, 0);"/></g><g class="node"><circle r="3.102929483310004" x="41610.79173814816" y="47572.94762259553" transform="translate(139.16318307072964,159.1035037545001)" style="fill: rgb(120, 186, 0); stroke-width: 0px; stroke: rgb(0, 0, 0);"/></g><g class="node"><circle r="3.102929483310004" x="41898.031375446306" y="49852.59308270649" transform="translate(140.123850754001,166.7277360625635)" style="fill: rgb(120, 186, 0); stroke-width: 0px; stroke: rgb(0, 0, 0);"/></g><g class="node"><circle r="3.102929483310004" x="43662.67794127312" y="51324.09317810413" transform="translate(146.0256787333549,171.6491410638934)" style="fill: rgb(120, 186, 0); stroke-width: 0px; stroke: rgb(0, 0, 0);"/></g><g class="node"><circle r="3.102929483310004" x="45949.468014770326" y="51100.75219934235" transform="translate(153.67380606946597,170.90218126870352)" style="fill: rgb(120, 186, 0); stroke-width: 0px; stroke: rgb(0, 0, 0);"/></g><g class="node"><circle r="3.102929483310004" x="48192.21493945814" y="50601.37632403096" transform="translate(161.17463190454228,169.23202783956845)" style="fill: rgb(120, 186, 0); stroke-width: 0px; stroke: rgb(0, 0, 0);"/></g><g class="node"><circle r="3.102929483310004" x="49991.512292165564" y="49172.45397849231" transform="translate(167.19234880322932,164.45302333943917)" style="fill: rgb(120, 186, 0); stroke-width: 0px; stroke: rgb(0, 0, 0);"/></g><g class="node"><circle r="3.102929483310004" x="51798.966627722315" y="47753.86353092938" transform="translate(173.23734658101108,159.70857368203806)" style="fill: rgb(120, 186, 0); stroke-width: 0px; stroke: rgb(0, 0, 0);"/></g><g class="node"><circle r="3.102929483310004" x="53649.616134847514" y="46392.10494923551" transform="translate(179.42680981554352,155.1541971546338)" style="fill: rgb(120, 186, 0); stroke-width: 0px; stroke: rgb(0, 0, 0);"/></g><g class="node"><circle r="3.102929483310004" x="55404.4416008192" y="44908.90650768532" transform="translate(185.29579130708763,150.1936672497837)" style="fill: rgb(120, 186, 0); stroke-width: 0px; stroke: rgb(0, 0, 0);"/></g><g class="node"><circle r="3.102929483310004" x="56326.497233386384" y="42804.36298390379" transform="translate(188.379589409319,143.1550601468354)" style="fill: rgb(120, 186, 0); stroke-width: 0px; stroke: rgb(0, 0, 0);"/></g><g class="node"><circle r="3.102929483310004" x="56227.22955546414" y="40508.83778013025" transform="translate(188.04759048650214,135.4777183281948)" style="fill: rgb(120, 186, 0); stroke-width: 0px; stroke: rgb(0, 0, 0);"/></g><g class="node"><circle r="3.102929483310004" x="55126.938064364025" y="38491.74862303968" transform="translate(184.3676858339934,128.7316007459521)" style="fill: rgb(120, 186, 0); stroke-width: 0px; stroke: rgb(0, 0, 0);"/></g><g class="node"><circle r="4.9061622930745195" x="53079.01890241197" y="36528.67137701848" transform="translate(177.51845786759856,122.16612500675078)" style="fill: rgb(120, 186, 0); stroke-width: 0px; stroke: rgb(0, 0, 0);"/></g><g class="node"><circle r="6.582307437576522" x="49223.03479687975" y="36123.89615947607" transform="translate(164.62218995611957,120.81236173737815)" style="fill: rgb(244, 179, 0); stroke-width: 0px; stroke: rgb(0, 0, 0);"/></g><g class="node"><circle r="3.8002969709736805" x="46976.92707937722" y="38868.488328029605" transform="translate(157.11012401129506,129.99159975929635)" style="fill: rgb(120, 186, 0); stroke-width: 0px; stroke: rgb(0, 0, 0);"/></g><g class="node"><circle r="3.102929483310004" x="45282.80559589758" y="37021.62399578295" transform="translate(151.44416587256717,123.81479597251823)" style="fill: rgb(120, 186, 0); stroke-width: 0px; stroke: rgb(0, 0, 0);"/></g><g class="node"><circle r="3.102929483310004" x="43137.86832095414" y="36197.89217073439" transform="translate(144.27046261188676,121.05984003590098)" style="fill: rgb(120, 186, 0); stroke-width: 0px; stroke: rgb(0, 0, 0);"/></g><g class="node"><circle r="3.102929483310004" x="40926.58689113897" y="36822.011126698904" transform="translate(136.8748725456153,123.14719440367526)" style="fill: rgb(120, 186, 0); stroke-width: 0px; stroke: rgb(0, 0, 0);"/></g><g class="node"><circle r="4.388204958384348" x="39087.14329686091" y="38773.779366288654" transform="translate(130.72288728047127,129.67484737889183)" style="fill: rgb(120, 186, 0); stroke-width: 0px; stroke: rgb(0, 0, 0);"/></g><g class="node"><circle r="5.805049510932763" x="38632.938948874464" y="42233.99802086144" transform="translate(129.2038091935601,141.2474850196035)" style="fill: rgb(244, 179, 0); stroke-width: 0px; stroke: rgb(0, 0, 0);"/></g><g class="node"><circle r="3.102929483310004" x="38587.48094732296" y="45339.269764317" transform="translate(129.05177574355505,151.63300924520738)" style="fill: rgb(120, 186, 0); stroke-width: 0px; stroke: rgb(0, 0, 0);"/></g><g class="node"><circle r="3.102929483310004" x="39313.75136988737" y="47519.13703237434" transform="translate(131.48077381233236,158.92353522533224)" style="fill: rgb(120, 186, 0); stroke-width: 0px; stroke: rgb(0, 0, 0);"/></g><g class="node"><circle r="5.374431517396371" x="38987.63394120438" y="50478.06951040779" transform="translate(130.39008007091766,168.81963046959126)" style="fill: rgb(120, 186, 0); stroke-width: 0px; stroke: rgb(0, 0, 0);"/></g><g class="node"><circle r="3.102929483310004" x="41476.473227157054" y="52111.26055726989" transform="translate(138.71395728146172,174.28180788384577)" style="fill: rgb(120, 186, 0); stroke-width: 0px; stroke: rgb(0, 0, 0);"/></g><g class="node"><circle r="3.102929483310004" x="43241.11979298387" y="53582.76065266753" transform="translate(144.6157852608156,179.20321288517567)" style="fill: rgb(120, 186, 0); stroke-width: 0px; stroke: rgb(0, 0, 0);"/></g><g class="node"><circle r="3.102929483310004" x="45527.90986648108" y="53359.41967390575" transform="translate(152.2639125969267,178.45625308998578)" style="fill: rgb(120, 186, 0); stroke-width: 0px; stroke: rgb(0, 0, 0);"/></g><g class="node"><circle r="3.102929483310004" x="47770.65679116889" y="52860.043798594364" transform="translate(159.76473843200299,176.7860996608507)" style="fill: rgb(120, 186, 0); stroke-width: 0px; stroke: rgb(0, 0, 0);"/></g><g class="node"><circle r="3.102929483310004" x="49937.49927698706" y="52095.79012690348" transform="translate(167.01170326751526,174.23006731405846)" style="fill: rgb(120, 186, 0); stroke-width: 0px; stroke: rgb(0, 0, 0);"/></g><g class="node"><circle r="4.388204958384348" x="52212.62138200135" y="50675.65935655971" transform="translate(174.6208072976634,169.48046607545052)" style="fill: rgb(120, 186, 0); stroke-width: 0px; stroke: rgb(0, 0, 0);"/></g><g class="node"><circle r="6.938361254069468" x="55721.55252840542" y="49143.72563846488" transform="translate(186.35636297125558,164.35694193466514)" style="fill: rgb(120, 186, 0); stroke-width: 0px; stroke: rgb(0, 0, 0);"/></g><g class="node"><circle r="3.102929483310004" x="57360.58776074685" y="46114.22067172719" transform="translate(191.838086156344,154.22481830009093)" style="fill: rgb(120, 186, 0); stroke-width: 0px; stroke: rgb(0, 0, 0);"/></g><g class="node"><circle r="5.805049510932763" x="59302.86676960089" y="43690.93131996303" transform="translate(198.33400257391602,146.12017163867233)" style="fill: rgb(244, 179, 0); stroke-width: 0px; stroke: rgb(0, 0, 0);"/></g><g class="node"><circle r="5.374431517396371" x="59143.12607432308" y="39909.52026982517" transform="translate(197.79975275693337,133.4733119392146)" style="fill: rgb(244, 179, 0); stroke-width: 0px; stroke: rgb(0, 0, 0);"/></g><g class="node"><circle r="4.9061622930745195" x="57431.8996560855" y="36838.026388677055" transform="translate(192.07658747854683,123.20075715276607)" style="fill: rgb(244, 179, 0); stroke-width: 0px; stroke: rgb(0, 0, 0);"/></g><g class="node"><circle r="4.388204958384348" x="55423.43905629484" y="34319.73455318126" transform="translate(185.35932794747438,114.77837643204435)" style="fill: rgb(120, 186, 0); stroke-width: 0px; stroke: rgb(0, 0, 0);"/></g><g class="node"><circle r="3.102929483310004" x="52813.03082579322" y="33704.33154073227" transform="translate(176.6288656381044,112.72017237703102)" style="fill: rgb(120, 186, 0); stroke-width: 0px; stroke: rgb(0, 0, 0);"/></g><g class="node"><circle r="14.049110763926912" x="49143.154278986854" y="29513.466002508474" transform="translate(164.35503103340085,98.70389967394138)" style="fill: rgb(244, 179, 0); stroke-width: 0px; stroke: rgb(0, 0, 0);"/></g><g class="node"><circle r="3.102929483310004" x="46391.14336848658" y="34356.78963166632" transform="translate(155.15098116550695,114.90230646042247)" style="fill: rgb(120, 186, 0); stroke-width: 0px; stroke: rgb(0, 0, 0);"/></g><g class="node"><circle r="3.102929483310004" x="44106.30604658414" y="34114.2851049429" transform="translate(147.50938477118441,114.0912545315816)" style="fill: rgb(120, 186, 0); stroke-width: 0px; stroke: rgb(0, 0, 0);"/></g><g class="node"><circle r="4.9061622930745195" x="41271.527780264056" y="34006.223323836944" transform="translate(138.0285210042276,113.72984389243126)" style="fill: rgb(120, 186, 0); stroke-width: 0px; stroke: rgb(0, 0, 0);"/></g><g class="node"><circle r="3.102929483310004" x="38954.487839057314" y="35642.97959115021" transform="translate(130.2792235419977,119.20394512090371)" style="fill: rgb(120, 186, 0); stroke-width: 0px; stroke: rgb(0, 0, 0);"/></g><g class="node"><circle r="4.388204958384348" x="36616.730044991615" y="36957.453057556784" transform="translate(122.46063560197864,123.6001774500227)" style="fill: rgb(120, 186, 0); stroke-width: 0px; stroke: rgb(0, 0, 0);"/></g><g class="node"><circle r="11.400890912921042" x="33221.19156575551" y="40846.86053044374" transform="translate(111.10431961791139,136.6082291988085)" style="fill: rgb(255, 46, 18); stroke-width: 0px; stroke: rgb(0, 0, 0);"/></g><g class="node"><circle r="3.102929483310004" x="36411.754595054525" y="44404.50927329809" transform="translate(121.77509898011547,148.5067199775856)" style="fill: rgb(120, 186, 0); stroke-width: 0px; stroke: rgb(0, 0, 0);"/></g><g class="node"><circle r="3.8002969709736805" x="36627.68783317288" y="46901.37296585078" transform="translate(122.49728372298623,156.85743466839725)" style="fill: rgb(120, 186, 0); stroke-width: 0px; stroke: rgb(0, 0, 0);"/></g><g class="node"><circle r="3.102929483310004" x="36222.841104653395" y="49374.64096364625" transform="translate(121.14328128646619,165.12923399212792)" style="fill: rgb(120, 186, 0); stroke-width: 0px; stroke: rgb(0, 0, 0);"/></g><g class="node"><circle r="8.209579748608416" x="35319.3164301632" y="53090.94217272374" transform="translate(118.12145963265283,177.55833502583192)" style="fill: rgb(244, 179, 0); stroke-width: 0px; stroke: rgb(0, 0, 0);"/></g><g class="node"><circle r="3.102929483310004" x="39126.8263580807" y="53451.66320456575" transform="translate(130.85560654876488,178.76475988149082)" style="fill: rgb(120, 186, 0); stroke-width: 0px; stroke: rgb(0, 0, 0);"/></g><g class="node"><circle r="3.102929483310004" x="41151.44562105594" y="54538.03647054263" transform="translate(137.6269084316252,182.39811528609576)" style="fill: rgb(120, 186, 0); stroke-width: 0px; stroke: rgb(0, 0, 0);"/></g><g class="node"><circle r="4.9061622930745195" x="43274.678762677424" y="56419.39932604305" transform="translate(144.72802261765025,188.69029874930786)" style="fill: rgb(120, 186, 0); stroke-width: 0px; stroke: rgb(0, 0, 0);"/></g><g class="node"><circle r="4.388204958384348" x="46449.97219178143" y="55877.90196803917" transform="translate(155.34773308288104,186.87927079611762)" style="fill: rgb(120, 186, 0); stroke-width: 0px; stroke: rgb(0, 0, 0);"/></g><g class="node"><circle r="3.8002969709736805" x="49181.16691269231" y="54931.6172729351" transform="translate(164.4821635875997,183.71443903991673)" style="fill: rgb(120, 186, 0); stroke-width: 0px; stroke: rgb(0, 0, 0);"/></g><g class="node"><circle r="3.102929483310004" x="51435.95878397762" y="53837.60215434768" transform="translate(172.02327352500876,180.05552559982502)" style="fill: rgb(120, 186, 0); stroke-width: 0px; stroke: rgb(0, 0, 0);"/></g><g class="node"><circle r="4.388204958384348" x="54027.51986181344" y="53147.12175821155" transform="translate(180.69070187897472,177.74622661609214)" style="fill: rgb(120, 186, 0); stroke-width: 0px; stroke: rgb(0, 0, 0);"/></g><g class="node"><circle r="3.102929483310004" x="56622.17567527451" y="52468.363180162996" transform="translate(189.36848051931275,175.47613103733443)" style="fill: rgb(120, 186, 0); stroke-width: 0px; stroke: rgb(0, 0, 0);"/></g><g class="node"><circle r="4.9061622930745195" x="59147.658525371844" y="51176.2402983902" transform="translate(197.8149114560931,171.15464982739198)" style="fill: rgb(120, 186, 0); stroke-width: 0px; stroke: rgb(0, 0, 0);"/></g><g class="node"><circle r="3.8002969709736805" x="59231.645762340006" y="48132.04859856157" transform="translate(198.09580522521742,160.9734066841524)" style="fill: rgb(120, 186, 0); stroke-width: 0px; stroke: rgb(0, 0, 0);"/></g><g class="node"><circle r="4.388204958384348" x="61529.343987783315" y="46378.34902551197" transform="translate(205.7804146748606,155.1081907207758)" style="fill: rgb(120, 186, 0); stroke-width: 0px; stroke: rgb(0, 0, 0);"/></g><g class="node"><circle r="4.9061622930745195" x="62941.72306882457" y="43483.37180952678" transform="translate(210.50409053118585,145.42599267400263)" style="fill: rgb(120, 186, 0); stroke-width: 0px; stroke: rgb(0, 0, 0);"/></g><g class="node"><circle r="3.8002969709736805" x="62270.83135380438" y="40512.839657201825" transform="translate(208.26030553111832,135.49110253244757)" style="fill: rgb(120, 186, 0); stroke-width: 0px; stroke: rgb(0, 0, 0);"/></g><g class="node"><circle r="3.102929483310004" x="61522.73223344733" y="38120.91508300783" transform="translate(205.7583017841048,127.49135479266832)" style="fill: rgb(120, 186, 0); stroke-width: 0px; stroke: rgb(0, 0, 0);"/></g><g class="node"><circle r="6.938361254069468" x="60823.351556825066" y="34748.20052267038" transform="translate(203.41923597600356,116.21137298551965)" style="fill: rgb(244, 179, 0); stroke-width: 0px; stroke: rgb(0, 0, 0);"/></g><g class="node"><circle r="3.102929483310004" x="57805.61799417137" y="33087.59190497073" transform="translate(193.32648158585744,110.65749800993555)" style="fill: rgb(120, 186, 0); stroke-width: 0px; stroke: rgb(0, 0, 0);"/></g><g class="node"><circle r="12.017594213315629" x="57266.21687344402" y="28153.835002673914" transform="translate(191.522464459679,94.15663880492947)" style="fill: rgb(255, 46, 18); stroke-width: 0px; stroke: rgb(0, 0, 0);"/></g><g class="node"><circle r="7.600593941947361" x="52834.03302632633" y="23665.397882170993" transform="translate(176.6991071114593,79.14514341863209)" style="fill: rgb(244, 179, 0); stroke-width: 0px; stroke: rgb(0, 0, 0);"/></g><g class="node"><circle r="3.102929483310004" x="49202.16985660684" y="23943.199851787358" transform="translate(164.55240754718005,80.07424699594434)" style="fill: rgb(120, 186, 0); stroke-width: 0px; stroke: rgb(0, 0, 0);"/></g><g class="node"><circle r="24.72627918891255" x="41130.01777128446" y="20532.709663976824" transform="translate(137.55524338222227,68.66792529758135)" style="fill: rgb(255, 46, 18); stroke-width: 0px; stroke: rgb(0, 0, 0);"/></g><g class="node"><circle r="3.102929483310004" x="43602.19101879409" y="28939.816303244817" transform="translate(145.8233813337595,96.78533880683885)" style="fill: rgb(120, 186, 0); stroke-width: 0px; stroke: rgb(0, 0, 0);"/></g><g class="node"><circle r="6.582307437576522" x="40169.60133011047" y="30288.937419133686" transform="translate(134.34314826123904,101.29744956232003)" style="fill: rgb(244, 179, 0); stroke-width: 0px; stroke: rgb(0, 0, 0);"/></g><g class="node"><circle r="14.718486879223557" x="33496.33813263842" y="31652.038791960604" transform="translate(112.02454224962682,105.85631702996858)" style="fill: rgb(255, 46, 18); stroke-width: 0px; stroke: rgb(0, 0, 0);"/></g><g class="node"><circle r="3.102929483310004" x="30775.75178548388" y="36741.2081702788" transform="translate(102.92559125579893,122.87695040227023)" style="fill: rgb(120, 186, 0); stroke-width: 0px; stroke: rgb(0, 0, 0);"/></g><g class="node"><circle r="6.205858966620008" x="28041.45608695991" y="38452.0945027323" transform="translate(93.78078958849468,128.5989782700077)" style="fill: rgb(244, 179, 0); stroke-width: 0px; stroke: rgb(0, 0, 0);"/></g><g class="node"><circle r="3.102929483310004" x="28509.288530024183" y="41643.432437636635" transform="translate(95.34544658870965,139.27234928975463)" style="fill: rgb(120, 186, 0); stroke-width: 0px; stroke: rgb(0, 0, 0);"/></g><g class="node"><circle r="5.805049510932763" x="29157.526381308926" y="44680.62961904754" transform="translate(97.51346615822384,149.43019939480783)" style="fill: rgb(244, 179, 0); stroke-width: 0px; stroke: rgb(0, 0, 0);"/></g><g class="node"><circle r="3.102929483310004" x="32151.871701325268" y="45504.44703516889" transform="translate(107.52799900108785,152.1854415891936)" style="fill: rgb(120, 186, 0); stroke-width: 0px; stroke: rgb(0, 0, 0);"/></g><g class="node"><circle r="3.102929483310004" x="34447.6828744638" y="45596.86505468862" transform="translate(115.20629723900934,152.49453195548034)" style="fill: rgb(120, 186, 0); stroke-width: 0px; stroke: rgb(0, 0, 0);"/></g><g class="node"><circle r="3.102929483310004" x="34325.286298336054" y="47891.273281485206" transform="translate(114.79694414159215,160.1681380651679)" style="fill: rgb(120, 186, 0); stroke-width: 0px; stroke: rgb(0, 0, 0);"/></g><g class="node"><circle r="3.102929483310004" x="33210.43449800086" y="49900.351551819396" transform="translate(111.06834280267847,166.88746338401137)" style="fill: rgb(120, 186, 0); stroke-width: 0px; stroke: rgb(0, 0, 0);"/></g><g class="node"><circle r="6.582307437576522" x="30586.75399611129" y="51963.98310004671" transform="translate(102.29349162579027,173.78924113727996)" style="fill: rgb(244, 179, 0); stroke-width: 0px; stroke: rgb(0, 0, 0);"/></g><g class="node"><circle r="3.102929483310004" x="31998.76928218122" y="54988.6297529203" transform="translate(107.01595077652581,183.90511623050267)" style="fill: rgb(120, 186, 0); stroke-width: 0px; stroke: rgb(0, 0, 0);"/></g><g class="node"><circle r="3.102929483310004" x="33685.416537311" y="56548.9217351476" transform="translate(112.65691149602341,189.12348406403882)" style="fill: rgb(120, 186, 0); stroke-width: 0px; stroke: rgb(0, 0, 0);"/></g><g class="node"><circle r="3.102929483310004" x="35961.77344575885" y="56861.15443427023" transform="translate(120.27014530354131,190.16774058284358)" style="fill: rgb(120, 186, 0); stroke-width: 0px; stroke: rgb(0, 0, 0);"/></g><g class="node"><circle r="3.102929483310004" x="38006.2537835575" y="55812.63634601691" transform="translate(127.10787218581103,186.66099112380238)" style="fill: rgb(120, 186, 0); stroke-width: 0px; stroke: rgb(0, 0, 0);"/></g><g class="node"><circle r="5.374431517396371" x="40099.38947226501" y="57929.33589378246" transform="translate(134.10832599419734,193.7402538253594)" style="fill: rgb(120, 186, 0); stroke-width: 0px; stroke: rgb(0, 0, 0);"/></g><g class="node"><circle r="3.8002969709736805" x="42902.69919172857" y="59441.945960931545" transform="translate(143.4839437850454,198.79915037100852)" style="fill: rgb(120, 186, 0); stroke-width: 0px; stroke: rgb(0, 0, 0);"/></g><g class="node"><circle r="6.205858966620008" x="46336.377776427544" y="59485.858032902775" transform="translate(154.96781865025935,198.94601348796914)" style="fill: rgb(120, 186, 0); stroke-width: 0px; stroke: rgb(0, 0, 0);"/></g><g class="node"><circle r="3.102929483310004" x="48804.48220466314" y="57409.33075379787" transform="translate(163.22234851057905,192.00110619999288)" style="fill: rgb(120, 186, 0); stroke-width: 0px; stroke: rgb(0, 0, 0);"/></g><g class="node"><circle r="3.102929483310004" x="50981.636089847554" y="56674.96640739613" transform="translate(170.50379963159716,189.54503815182653)" style="fill: rgb(120, 186, 0); stroke-width: 0px; stroke: rgb(0, 0, 0);"/></g><g class="node"><circle r="4.388204958384348" x="53618.65503463555" y="56186.0051794536" transform="translate(179.32326098540318,187.9097163192428)" style="fill: rgb(120, 186, 0); stroke-width: 0px; stroke: rgb(0, 0, 0);"/></g><g class="node"><circle r="3.102929483310004" x="56003.99454340787" y="54959.99236325154" transform="translate(187.3009850950096,183.80933900753024)" style="fill: rgb(120, 186, 0); stroke-width: 0px; stroke: rgb(0, 0, 0);"/></g><g class="node"><circle r="7.277014675069007" x="59538.45275396507" y="55242.39267463326" transform="translate(199.12191556510058,184.75382165429184)" style="fill: rgb(244, 179, 0); stroke-width: 0px; stroke: rgb(0, 0, 0);"/></g><g class="node"><circle r="3.102929483310004" x="61693.870218799704" y="52427.02052688271" transform="translate(206.33066962809266,175.33786129392212)" style="fill: rgb(244, 179, 0); stroke-width: 0px; stroke: rgb(0, 0, 0);"/></g><g class="node"><circle r="3.102929483310004" x="61784.97646360541" y="50131.15692353057" transform="translate(206.63537278797796,167.65938770411563)" style="fill: rgb(120, 186, 0); stroke-width: 0px; stroke: rgb(0, 0, 0);"/></g><g class="node"><circle r="3.102929483310004" x="63293.71271227245" y="48398.238874401366" transform="translate(211.6813134189714,161.86367516522196)" style="fill: rgb(120, 186, 0); stroke-width: 0px; stroke: rgb(0, 0, 0);"/></g><g class="node"><circle r="14.881127030674564" x="68685.9664620317" y="46209.985477095805" transform="translate(229.71560689642712,154.5451019300863)" style="fill: rgb(255, 46, 18); stroke-width: 0px; stroke: rgb(0, 0, 0);"/></g><g class="node"><circle r="3.102929483310004" x="65092.04104275241" y="41633.02649614893" transform="translate(217.69578944064352,139.23754680986264)" style="fill: rgb(120, 186, 0); stroke-width: 0px; stroke: rgb(0, 0, 0);"/></g><g class="node"><circle r="10.291252847070629" x="65885.05247293413" y="37257.325713031656" transform="translate(220.34800158171947,124.6030960302062)" style="fill: rgb(244, 179, 0); stroke-width: 0px; stroke: rgb(0, 0, 0);"/></g><g class="node"><circle r="5.805049510932763" x="64269.55331572911" y="32256.898272349335" transform="translate(214.94499436698698,107.87925843595096)" style="fill: rgb(120, 186, 0); stroke-width: 0px; stroke: rgb(0, 0, 0);"/></g><g class="node"><circle r="7.277014675069007" x="63474.88822397973" y="27976.381092714193" transform="translate(212.2872515852165,93.56314746727155)" style="fill: rgb(120, 186, 0); stroke-width: 0px; stroke: rgb(0, 0, 0);"/></g><g class="node"><circle r="4.388204958384348" x="61332.859922247124" y="24681.42019966877" transform="translate(205.12327733193018,82.54321137012967)" style="fill: rgb(120, 186, 0); stroke-width: 0px; stroke: rgb(0, 0, 0);"/></g><g class="node"><circle r="6.938361254069468" x="58451.58848418599" y="22159.973470694815" transform="translate(195.486918007311,74.1102791662034)" style="fill: rgb(120, 186, 0); stroke-width: 0px; stroke: rgb(0, 0, 0);"/></g><g class="node"><circle r="3.102929483310004" x="55235.48769302454" y="20926.671991965635" transform="translate(184.7307280703162,69.98552505674125)" style="fill: rgb(120, 186, 0); stroke-width: 0px; stroke: rgb(0, 0, 0);"/></g><g class="node"><circle r="3.102929483310004" x="53118.29873691203" y="20034.034911649742" transform="translate(177.64982855154526,67.00011676137038)" style="fill: rgb(120, 186, 0); stroke-width: 0px; stroke: rgb(0, 0, 0);"/></g><g class="node"><circle r="3.102929483310004" x="50887.99808929843" y="20586.347372394564" transform="translate(170.19062906119876,68.84731562673767)" style="fill: rgb(120, 186, 0); stroke-width: 0px; stroke: rgb(0, 0, 0);"/></g><g class="node"><circle r="3.102929483310004" x="49683.88937373907" y="18629.45896623706" transform="translate(166.16350961116746,62.302538348618924)" style="fill: rgb(120, 186, 0); stroke-width: 0px; stroke: rgb(0, 0, 0);"/></g><g class="node"><circle r="3.102929483310004" x="48895.13053472027" y="16471.41598081963" transform="translate(163.52552018301094,55.08500328033321)" style="fill: rgb(120, 186, 0); stroke-width: 0px; stroke: rgb(0, 0, 0);"/></g><g class="node"><circle r="3.102929483310004" x="47572.5299913752" y="14592.58181150532" transform="translate(159.1021069945659,48.801276961556255)" style="fill: rgb(120, 186, 0); stroke-width: 0px; stroke: rgb(0, 0, 0);"/></g><g class="node"><circle r="3.102929483310004" x="45807.01486217752" y="13122.123936687503" transform="translate(153.19737412099505,43.883357647784294)" style="fill: rgb(120, 186, 0); stroke-width: 0px; stroke: rgb(0, 0, 0);"/></g><g class="node"><circle r="9.30878844993001" x="42982.76096832828" y="10076.989091081605" transform="translate(143.75170892417484,33.69896017084149)" style="fill: rgb(244, 179, 0); stroke-width: 0px; stroke: rgb(0, 0, 0);"/></g><g class="node"><circle r="3.102929483310004" x="39284.13253695039" y="11966.275731972579" transform="translate(131.38171417040263,40.01764458853705)" style="fill: rgb(120, 186, 0); stroke-width: 0px; stroke: rgb(0, 0, 0);"/></g><g class="node"><circle r="7.277014675069007" x="35740.783735874655" y="12095.983295201757" transform="translate(119.53104928386172,40.451449147831966)" style="fill: rgb(244, 179, 0); stroke-width: 0px; stroke: rgb(0, 0, 0);"/></g><g class="node"><circle r="8.209579748608416" x="32089.838504223862" y="15617.627212339823" transform="translate(107.32053011446108,52.229522449297065)" style="fill: rgb(244, 179, 0); stroke-width: 0px; stroke: rgb(0, 0, 0);"/></g><g class="node"><circle r="4.388204958384348" x="32010.029937764386" y="19825.726840154468" transform="translate(107.05361183198791,66.30343424800826)" style="fill: rgb(244, 179, 0); stroke-width: 0px; stroke: rgb(0, 0, 0);"/></g><g class="node"><circle r="6.938361254069468" x="31721.107794782096" y="23643.572135885417" transform="translate(106.08731703940501,79.07214761165692)" style="fill: rgb(244, 179, 0); stroke-width: 0px; stroke: rgb(0, 0, 0);"/></g><g class="node"><circle r="4.388204958384348" x="29638.281009127877" y="26856.242565263707" transform="translate(99.12134116765176,89.81686476676825)" style="fill: rgb(244, 179, 0); stroke-width: 0px; stroke: rgb(0, 0, 0);"/></g><g class="node"><circle r="3.102929483310004" x="28285.648211532993" y="29172.130410663936" transform="translate(94.59748565730098,97.56230906576567)" style="fill: rgb(120, 186, 0); stroke-width: 0px; stroke: rgb(0, 0, 0);"/></g><g class="node"><circle r="4.388204958384348" x="27341.393303563298" y="31682.376348092577" transform="translate(91.43944248683377,105.95778042840327)" style="fill: rgb(120, 186, 0); stroke-width: 0px; stroke: rgb(0, 0, 0);"/></g><g class="node"><circle r="3.102929483310004" x="28310.347598837026" y="34183.19212924729" transform="translate(94.68009230380277,114.32171280684713)" style="fill: rgb(120, 186, 0); stroke-width: 0px; stroke: rgb(0, 0, 0);"/></g><g class="node"><circle r="3.102929483310004" x="26511.454127697405" y="35612.62289445801" transform="translate(88.66372617958999,119.10241770721741)" style="fill: rgb(120, 186, 0); stroke-width: 0px; stroke: rgb(0, 0, 0);"/></g><g class="node"><circle r="3.8002969709736805" x="24768.371007456964" y="37413.34960843906" transform="translate(82.8340167473477,125.1249150783915)" style="fill: rgb(120, 186, 0); stroke-width: 0px; stroke: rgb(0, 0, 0);"/></g><g class="node"><circle r="3.102929483310004" x="25154.091468706953" y="39889.67252524236" transform="translate(84.12405173480586,133.40693152254968)" style="fill: rgb(120, 186, 0); stroke-width: 0px; stroke: rgb(0, 0, 0);"/></g><g class="node"><circle r="7.277014675069007" x="24986.92987892669" y="43431.45199056002" transform="translate(83.56498287266452,145.25234779451512)" style="fill: rgb(244, 179, 0); stroke-width: 0px; stroke: rgb(0, 0, 0);"/></g><g class="node"><circle r="3.102929483310004" x="26676.579731890488" y="46548.6988772251" transform="translate(89.21598572538625,155.67792266630468)" style="fill: rgb(120, 186, 0); stroke-width: 0px; stroke: rgb(0, 0, 0);"/></g><g class="node"><circle r="3.102929483310004" x="28639.62375239182" y="47742.745863994714" transform="translate(95.78135034244757,159.67139084948064)" style="fill: rgb(120, 186, 0); stroke-width: 0px; stroke: rgb(0, 0, 0);"/></g><g class="node"><circle r="8.776409916768696" x="25765.16570296126" y="50515.804853545946" transform="translate(86.16777827077345,168.94583563058845)" style="fill: rgb(244, 179, 0); stroke-width: 0px; stroke: rgb(0, 0, 0);"/></g><g class="node"><circle r="3.102929483310004" x="27873.353186939312" y="53908.13602397512" transform="translate(93.2185725315696,180.29142482934824)" style="fill: rgb(120, 186, 0); stroke-width: 0px; stroke: rgb(0, 0, 0);"/></g><g class="node"><circle r="3.102929483310004" x="29719.191824395268" y="55276.40856901663" transform="translate(99.39194590098752,184.8675871873466)" style="fill: rgb(120, 186, 0); stroke-width: 0px; stroke: rgb(0, 0, 0);"/></g><g class="node"><circle r="4.9061622930745195" x="31113.864704536" y="57746.73905806795" transform="translate(104.05640369410034,193.1295620671169)" style="fill: rgb(244, 179, 0); stroke-width: 0px; stroke: rgb(0, 0, 0);"/></g><g class="node"><circle r="8.776409916768696" x="34618.202525891975" y="60622.428476500485" transform="translate(115.7765970765618,202.7472524297675)" style="fill: rgb(244, 179, 0); stroke-width: 0px; stroke: rgb(0, 0, 0);"/></g><g class="node"><circle r="3.102929483310004" x="38610.579515012774" y="60507.14094809486" transform="translate(129.12902847830358,202.36167541168848)" style="fill: rgb(120, 186, 0); stroke-width: 0px; stroke: rgb(0, 0, 0);"/></g><g class="node"><circle r="3.102929483310004" x="40872.42797097486" y="60911.28398626519" transform="translate(136.69373903336074,203.7133243687799)" style="fill: rgb(120, 186, 0); stroke-width: 0px; stroke: rgb(0, 0, 0);"/></g><g class="node"><circle r="3.102929483310004" x="42922.8938514058" y="61948.04804150063" transform="translate(143.5514844528622,207.18076268060412)" style="fill: rgb(120, 186, 0); stroke-width: 0px; stroke: rgb(0, 0, 0);"/></g><g class="node"><circle r="3.102929483310004" x="45156.297304370804" y="62487.676663168975" transform="translate(151.02106121863144,208.9855406794949)" style="fill: rgb(120, 186, 0); stroke-width: 0px; stroke: rgb(0, 0, 0);"/></g><g class="node"><circle r="9.563870978570739" x="49181.063734057934" y="63787.62219609834" transform="translate(164.48181850855497,213.3331846023356)" style="fill: rgb(244, 179, 0); stroke-width: 0px; stroke: rgb(0, 0, 0);"/></g><g class="node"><circle r="3.102929483310004" x="49569.272495348196" y="59575.98389731519" transform="translate(165.7801755697264,199.24743778366286)" style="fill: rgb(120, 186, 0); stroke-width: 0px; stroke: rgb(0, 0, 0);"/></g><g class="node"><circle r="4.388204958384348" x="52201.78433332112" y="59063.31107715179" transform="translate(174.58456298769605,197.53281296706285)" style="fill: rgb(120, 186, 0); stroke-width: 0px; stroke: rgb(0, 0, 0);"/></g><g class="node"><circle r="13.164614875153044" x="57376.76670715459" y="61429.81580651199" transform="translate(191.8921963449986,205.4475445033846)" style="fill: rgb(255, 46, 18); stroke-width: 0px; stroke: rgb(0, 0, 0);"/></g><g class="node"><circle r="3.102929483310004" x="61554.841136375035" y="58158.95274933185" transform="translate(205.8656894193145,194.5082031750229)" style="fill: rgb(120, 186, 0); stroke-width: 0px; stroke: rgb(0, 0, 0);"/></g><g class="node"><circle r="3.102929483310004" x="62919.492490736964" y="56310.435312552356" transform="translate(210.42974077169552,188.325870610543)" style="fill: rgb(120, 186, 0); stroke-width: 0px; stroke: rgb(0, 0, 0);"/></g><g class="node"><circle r="3.102929483310004" x="63321.98741905797" y="54048.29299481116" transform="translate(211.7758776557123,180.76017724017112)" style="fill: rgb(120, 186, 0); stroke-width: 0px; stroke: rgb(0, 0, 0);"/></g><g class="node"><circle r="3.8002969709736805" x="64079.589106746964" y="51659.361194754296" transform="translate(214.3096625643711,172.77043877844247)" style="fill: rgb(120, 186, 0); stroke-width: 0px; stroke: rgb(0, 0, 0);"/></g><g class="node"><circle r="6.205858966620008" x="67312.92028578113" y="52815.9278291384" transform="translate(225.12347921665932,176.63855461250301)" style="fill: rgb(120, 186, 0); stroke-width: 0px; stroke: rgb(0, 0, 0);"/></g><g class="node"><circle r="4.388204958384348" x="70835.88628501614" y="52029.18694077701" transform="translate(236.90597419737838,174.0073141832007)" style="fill: rgb(120, 186, 0); stroke-width: 0px; stroke: rgb(0, 0, 0);"/></g><g class="node"><circle r="4.388204958384348" x="73360.30046296728" y="50288.69392069269" transform="translate(245.34883097982367,168.1862672932866)" style="fill: rgb(120, 186, 0); stroke-width: 0px; stroke: rgb(0, 0, 0);"/></g><g class="node"><circle r="3.8002969709736805" x="74539.38923786303" y="47649.63556805352" transform="translate(249.29227169853857,159.35998517743653)" style="fill: rgb(120, 186, 0); stroke-width: 0px; stroke: rgb(0, 0, 0);"/></g><g class="node"><circle r="4.9061622930745195" x="74842.32587741502" y="44619.39030509278" transform="translate(250.30543771710705,149.2253856357618)" style="fill: rgb(120, 186, 0); stroke-width: 0px; stroke: rgb(0, 0, 0);"/></g><g class="node"><circle r="4.388204958384348" x="73135.79735163061" y="41887.45543392174" transform="translate(244.59798445361406,140.08847971211284)" style="fill: rgb(120, 186, 0); stroke-width: 0px; stroke: rgb(0, 0, 0);"/></g><g class="node"><circle r="3.102929483310004" x="70705.84603417604" y="40752.42741999314" transform="translate(236.4710569704884,136.29239939797037)" style="fill: rgb(120, 186, 0); stroke-width: 0px; stroke: rgb(0, 0, 0);"/></g><g class="node"><circle r="3.102929483310004" x="70147.96127610757" y="38523.51409064304" transform="translate(234.60522165922265,128.83783976803693)" style="fill: rgb(120, 186, 0); stroke-width: 0px; stroke: rgb(0, 0, 0);"/></g><g class="node"><circle r="3.102929483310004" x="70210.95701386346" y="36226.70727028042" transform="translate(234.81590974536272,121.15621160628903)" style="fill: rgb(120, 186, 0); stroke-width: 0px; stroke: rgb(0, 0, 0);"/></g><g class="node"><circle r="3.102929483310004" x="69119.1116107285" y="34205.03379301146" transform="translate(231.16425287869066,114.39476184953666)" style="fill: rgb(120, 186, 0); stroke-width: 0px; stroke: rgb(0, 0, 0);"/></g><g class="node"><circle r="3.102929483310004" x="67334.49314911939" y="32757.820270574794" transform="translate(225.19562926126883,109.55458284473175)" style="fill: rgb(244, 179, 0); stroke-width: 0px; stroke: rgb(0, 0, 0);"/></g><g class="node"><circle r="6.582307437576522" x="67816.1264331205" y="29454.745351264475" transform="translate(226.80644292013545,98.50750953600159)" style="fill: rgb(244, 179, 0); stroke-width: 0px; stroke: rgb(0, 0, 0);"/></g><g class="node"><circle r="6.205858966620008" x="67030.69451475378" y="25261.89669015482" transform="translate(224.17958031690227,84.48460431489906)" style="fill: rgb(120, 186, 0); stroke-width: 0px; stroke: rgb(0, 0, 0);"/></g><g class="node"><circle r="3.102929483310004" x="63975.95963544155" y="24226.47415483108" transform="translate(213.96307570381788,81.02165269174274)" style="fill: rgb(120, 186, 0); stroke-width: 0px; stroke: rgb(0, 0, 0);"/></g><g class="node"><circle r="4.9061622930745195" x="62626.18065151679" y="21731.330499188865" transform="translate(209.44876472079196,72.67669063273868)" style="fill: rgb(120, 186, 0); stroke-width: 0px; stroke: rgb(0, 0, 0);"/></g><g class="node"><circle r="5.805049510932763" x="60769.56188833124" y="18594.879816496767" transform="translate(203.23933741916804,62.18688901838384)" style="fill: rgb(120, 186, 0); stroke-width: 0px; stroke: rgb(0, 0, 0);"/></g><g class="node"><circle r="3.102929483310004" x="57671.08088230531" y="18805.104662566646" transform="translate(192.8765246899843,62.88998214905233)" style="fill: rgb(120, 186, 0); stroke-width: 0px; stroke: rgb(0, 0, 0);"/></g><g class="node"><circle r="3.8002969709736805" x="55194.53425380211" y="18420.823178024937" transform="translate(184.5937600461609,61.604759792725545)" style="fill: rgb(120, 186, 0); stroke-width: 0px; stroke: rgb(0, 0, 0);"/></g><g class="node"><circle r="5.805049510932763" x="52255.80212813794" y="16888.756862380957" transform="translate(174.76522450882254,56.48079218187611)" style="fill: rgb(120, 186, 0); stroke-width: 0px; stroke: rgb(0, 0, 0);"/></g><g class="node"><circle r="3.8002969709736805" x="50169.726273962144" y="14313.55566003457" transform="translate(167.78838218716436,47.8680791305504)" style="fill: rgb(120, 186, 0); stroke-width: 0px; stroke: rgb(0, 0, 0);"/></g><g class="node"><circle r="7.277014675069007" x="48580.0452383954" y="10912.497879949251" transform="translate(162.4717232053358,36.49330394631856)" style="fill: rgb(120, 186, 0); stroke-width: 0px; stroke: rgb(0, 0, 0);"/></g><g class="node"><circle r="3.102929483310004" x="46573.18223887584" y="7989.375289430162" transform="translate(155.75980681898272,26.71697421214101)" style="fill: rgb(120, 186, 0); stroke-width: 0px; stroke: rgb(0, 0, 0);"/></g><g class="node"><circle r="3.102929483310004" x="44913.883115477365" y="6400.030628216381" transform="translate(150.21031142300123,21.40144022814843)" style="fill: rgb(120, 186, 0); stroke-width: 0px; stroke: rgb(0, 0, 0);"/></g><g class="node"><circle r="3.102929483310004" x="42663.54668961949" y="5936.052176672697" transform="translate(142.68410264086788,19.84967283168126)" style="fill: rgb(120, 186, 0); stroke-width: 0px; stroke: rgb(0, 0, 0);"/></g><g class="node"><circle r="3.8002969709736805" x="40265.6900068789" y="6664.913474553405" transform="translate(134.66451507317356,22.287336035295667)" style="fill: rgb(120, 186, 0); stroke-width: 0px; stroke: rgb(0, 0, 0);"/></g><g class="node"><circle r="3.102929483310004" x="39018.435567247434" y="8838.69171193912" transform="translate(130.49309554263357,29.557497364344883)" style="fill: rgb(120, 186, 0); stroke-width: 0px; stroke: rgb(0, 0, 0);"/></g><g class="node"><circle r="3.102929483310004" x="36725.596203199566" y="8689.76997506969" transform="translate(122.82473646555039,29.059431354748128)" style="fill: rgb(120, 186, 0); stroke-width: 0px; stroke: rgb(0, 0, 0);"/></g><g class="node"><circle r="3.102929483310004" x="34430.62892471935" y="8801.19359799037" transform="translate(115.14926061779046,29.432085612007924)" style="fill: rgb(120, 186, 0); stroke-width: 0px; stroke: rgb(0, 0, 0);"/></g><g class="node"><circle r="3.102929483310004" x="32685.82133326013" y="10296.163999645847" transform="translate(109.31378372327802,34.43198662088912)" style="fill: rgb(244, 179, 0); stroke-width: 0px; stroke: rgb(0, 0, 0);"/></g><g class="node"><circle r="3.102929483310004" x="31071.467951058657" y="11931.142039380416" transform="translate(103.91460853196875,39.9001405999345)" style="fill: rgb(120, 186, 0); stroke-width: 0px; stroke: rgb(0, 0, 0);"/></g><g class="node"><circle r="3.102929483310004" x="29142.80281205225" y="13179.957804263722" transform="translate(97.46422345167977,44.07678195405927)" style="fill: rgb(120, 186, 0); stroke-width: 0px; stroke: rgb(0, 0, 0);"/></g><g class="node"><circle r="3.102929483310004" x="28277.78631146564" y="15308.5809476953" transform="translate(94.57119167714261,51.19592290199097)" style="fill: rgb(120, 186, 0); stroke-width: 0px; stroke: rgb(0, 0, 0);"/></g><g class="node"><circle r="5.805049510932763" x="28395.027313844705" y="18411.971605986604" transform="translate(94.96330205299232,61.5751558728649)" style="fill: rgb(255, 46, 18); stroke-width: 0px; stroke: rgb(0, 0, 0);"/></g><g class="node"><circle r="3.8002969709736805" x="28616.424811693407" y="21718.685511042182" transform="translate(95.70376191201808,72.63439970248221)" style="fill: rgb(120, 186, 0); stroke-width: 0px; stroke: rgb(0, 0, 0);"/></g><g class="node"><circle r="8.497722361783694" x="25872.442682308654" y="24790.914207787508" transform="translate(86.52656415487844,82.90941206617896)" style="fill: rgb(244, 179, 0); stroke-width: 0px; stroke: rgb(0, 0, 0);"/></g><g class="node"><circle r="3.102929483310004" x="26037.397756321076" y="28698.147369111724" transform="translate(87.07825336562233,95.9770815020459)" style="fill: rgb(120, 186, 0); stroke-width: 0px; stroke: rgb(0, 0, 0);"/></g><g class="node"><circle r="3.102929483310004" x="24857.860901213317" y="30669.944224896353" transform="translate(83.13331405088066,102.57171981570687)" style="fill: rgb(120, 186, 0); stroke-width: 0px; stroke: rgb(0, 0, 0);"/></g><g class="node"><circle r="3.8002969709736805" x="24866.795579770354" y="33176.11174404411" transform="translate(83.16319591896439,110.95355098342512)" style="fill: rgb(120, 186, 0); stroke-width: 0px; stroke: rgb(0, 0, 0);"/></g><g class="node"><circle r="3.102929483310004" x="23480.039969040798" y="35263.66158503527" transform="translate(78.52521728776186,117.93532302687382)" style="fill: rgb(120, 186, 0); stroke-width: 0px; stroke: rgb(0, 0, 0);"/></g><g class="node"><circle r="3.102929483310004" x="22269.904472047416" y="37216.82878524017" transform="translate(74.477941378085,124.46765480013435)" style="fill: rgb(120, 186, 0); stroke-width: 0px; stroke: rgb(0, 0, 0);"/></g><g class="node"><circle r="3.102929483310004" x="22903.832588814723" y="39425.318127711966" transform="translate(76.59810230372817,131.85390678164538)" style="fill: rgb(120, 186, 0); stroke-width: 0px; stroke: rgb(0, 0, 0);"/></g><g class="node"><circle r="14.387692123321289" x="18131.384355719438" y="42490.153959277006" transform="translate(60.636736975650294,142.1041938437358)" style="fill: rgb(255, 46, 18); stroke-width: 0px; stroke: rgb(0, 0, 0);"/></g><g class="node"><circle r="8.776409916768696" x="20152.966739326104" y="49575.586795782896" transform="translate(67.39788207132476,165.80129363138093)" style="fill: rgb(244, 179, 0); stroke-width: 0px; stroke: rgb(0, 0, 0);"/></g><g class="node"><circle r="3.102929483310004" x="22495.920220338907" y="52810.23271508799" transform="translate(75.23384689076558,176.61950740832103)" style="fill: rgb(120, 186, 0); stroke-width: 0px; stroke: rgb(0, 0, 0);"/></g><g class="node"><circle r="3.102929483310004" x="24301.02900565467" y="54231.80659857611" transform="translate(81.27100001891193,181.3739351122947)" style="fill: rgb(120, 186, 0); stroke-width: 0px; stroke: rgb(0, 0, 0);"/></g><g class="node"><circle r="3.102929483310004" x="26216.788890638767" y="55500.33097600265" transform="translate(87.67822371451092,185.6164915585373)" style="fill: rgb(120, 186, 0); stroke-width: 0px; stroke: rgb(0, 0, 0);"/></g><g class="node"><circle r="4.388204958384348" x="27896.48964659649" y="57591.15793393985" transform="translate(93.29595199530598,192.6092238593306)" style="fill: rgb(120, 186, 0); stroke-width: 0px; stroke: rgb(0, 0, 0);"/></g><g class="node"><circle r="10.522545835088417" x="28674.310961470357" y="62429.46753280069" transform="translate(95.8973610751517,208.7908613137147)" style="fill: rgb(244, 179, 0); stroke-width: 0px; stroke: rgb(0, 0, 0);"/></g><g class="node"><circle r="5.374431517396371" x="33154.202867127904" y="65060.41148687129" transform="translate(110.88027714758496,217.5900049728137)" style="fill: rgb(120, 186, 0); stroke-width: 0px; stroke: rgb(0, 0, 0);"/></g><g class="node"><circle r="3.102929483310004" x="36045.69431740178" y="64352.66069750754" transform="translate(120.55081711505612,215.22294547661386)" style="fill: rgb(120, 186, 0); stroke-width: 0px; stroke: rgb(0, 0, 0);"/></g><g class="node"><circle r="3.102929483310004" x="37864.70721998647" y="62948.92208463474" transform="translate(126.63447230764706,210.52816750713959)" style="fill: rgb(120, 186, 0); stroke-width: 0px; stroke: rgb(0, 0, 0);"/></g><g class="node"><circle r="9.563870978570739" x="41044.62474956482" y="65737.60057223417" transform="translate(137.26964799185558,219.8548514121544)" style="fill: rgb(244, 179, 0); stroke-width: 0px; stroke: rgb(0, 0, 0);"/></g><g class="node"><circle r="8.497722361783694" x="46063.381615521" y="68728.80374728095" transform="translate(154.0547880117759,229.85887540896638)" style="fill: rgb(244, 179, 0); stroke-width: 0px; stroke: rgb(0, 0, 0);"/></g><g class="node"><circle r="8.209579748608416" x="51490.872147978094" y="69060.2592580851" transform="translate(172.2069302607963,230.96742226784315)" style="fill: rgb(244, 179, 0); stroke-width: 0px; stroke: rgb(0, 0, 0);"/></g><g class="node"><circle r="4.388204958384348" x="54854.92090592701" y="66530.9020593019" transform="translate(183.4579294512609,222.50803364315016)" style="fill: rgb(120, 186, 0); stroke-width: 0px; stroke: rgb(0, 0, 0);"/></g><g class="node"><circle r="3.102929483310004" x="57529.20748890963" y="66733.74009735454" transform="translate(192.40203173548372,223.18642173028275)" style="fill: rgb(120, 186, 0); stroke-width: 0px; stroke: rgb(0, 0, 0);"/></g><g class="node"><circle r="3.102929483310004" x="59757.15949009758" y="66172.0285045934" transform="translate(199.85337622106215,221.3077876407806)" style="fill: rgb(120, 186, 0); stroke-width: 0px; stroke: rgb(0, 0, 0);"/></g><g class="node"><circle r="3.102929483310004" x="61538.76624654369" y="64721.109003578546" transform="translate(205.8119272459655,216.4552140587911)" style="fill: rgb(120, 186, 0); stroke-width: 0px; stroke: rgb(0, 0, 0);"/></g><g class="node"><circle r="3.102929483310004" x="62539.96032641996" y="62653.04216533071" transform="translate(209.1604024294982,209.53860255963448)" style="fill: rgb(120, 186, 0); stroke-width: 0px; stroke: rgb(0, 0, 0);"/></g><g class="node"><circle r="4.388204958384348" x="63394.23624882701" y="60110.76667947214" transform="translate(212.01751253788296,201.03600896144528)" style="fill: rgb(120, 186, 0); stroke-width: 0px; stroke: rgb(0, 0, 0);"/></g><g class="node"><circle r="3.102929483310004" x="64696.94969357299" y="57766.435286840126" transform="translate(216.37441369087958,193.19543574194023)" style="fill: rgb(120, 186, 0); stroke-width: 0px; stroke: rgb(0, 0, 0);"/></g><g class="node"><circle r="7.600593941947361" x="68306.37526187544" y="57276.893577920106" transform="translate(228.44607110995128,191.55817250140504)" style="fill: rgb(244, 179, 0); stroke-width: 0px; stroke: rgb(0, 0, 0);"/></g><g class="node"><circle r="6.205858966620008" x="72414.96305483268" y="55275.225636204304" transform="translate(242.18716740746714,184.8636308903154)" style="fill: rgb(244, 179, 0); stroke-width: 0px; stroke: rgb(0, 0, 0);"/></g><g class="node"><circle r="3.102929483310004" x="74423.04275530207" y="52751.11768960105" transform="translate(248.9031530277661,176.4217982929801)" style="fill: rgb(244, 179, 0); stroke-width: 0px; stroke: rgb(0, 0, 0);"/></g><g class="node"><circle r="3.102929483310004" x="75939.28385728647" y="51024.76229348679" transform="translate(253.97419350263033,170.64803442637722)" style="fill: rgb(244, 179, 0); stroke-width: 0px; stroke: rgb(0, 0, 0);"/></g><g class="node"><circle r="3.102929483310004" x="76729.83745219099" y="48867.3761327304" transform="translate(256.6181854588327,163.4326960960883)" style="fill: rgb(244, 179, 0); stroke-width: 0px; stroke: rgb(0, 0, 0);"/></g><g class="node"><circle r="3.102929483310004" x="76896.6455099784" y="46575.76859545513" transform="translate(257.17607193972714,155.76845684098706)" style="fill: rgb(120, 186, 0); stroke-width: 0px; stroke: rgb(0, 0, 0);"/></g><g class="node"><circle r="3.102929483310004" x="77671.62625226406" y="44412.73949668508" transform="translate(259.76798077680286,148.53424580831128)" style="fill: rgb(120, 186, 0); stroke-width: 0px; stroke: rgb(0, 0, 0);"/></g><g class="node"><circle r="3.102929483310004" x="76590.57371300073" y="42385.27422191661" transform="translate(256.1524204448185,141.7534254913599)" style="fill: rgb(120, 186, 0); stroke-width: 0px; stroke: rgb(0, 0, 0);"/></g><g class="node"><circle r="3.102929483310004" x="75386.23678691249" y="40428.526256158126" transform="translate(252.1245377488712,135.20911791357233)" style="fill: rgb(120, 186, 0); stroke-width: 0px; stroke: rgb(0, 0, 0);"/></g><g class="node"><circle r="3.8002969709736805" x="73324.85423475839" y="39003.164043881254" transform="translate(245.23028172159997,130.44202021364967)" style="fill: rgb(120, 186, 0); stroke-width: 0px; stroke: rgb(0, 0, 0);"/></g><g class="node"><circle r="3.102929483310004" x="72469.79386239905" y="36647.35691634877" transform="translate(242.3705480347794,122.56306660986212)" style="fill: rgb(120, 186, 0); stroke-width: 0px; stroke: rgb(0, 0, 0);"/></g><g class="node"><circle r="3.102929483310004" x="71704.66871771937" y="34480.82199947839" transform="translate(239.8116010626066,115.31713043303809)" style="fill: rgb(120, 186, 0); stroke-width: 0px; stroke: rgb(0, 0, 0);"/></g><g class="node"><circle r="3.102929483310004" x="70612.82331458443" y="32459.14852220943" transform="translate(236.15994419593454,108.55568067628572)" style="fill: rgb(120, 186, 0); stroke-width: 0px; stroke: rgb(0, 0, 0);"/></g><g class="node"><circle r="3.102929483310004" x="71068.24717767883" y="30207.06523379316" transform="translate(237.68310092869172,101.02362954445873)" style="fill: rgb(120, 186, 0); stroke-width: 0px; stroke: rgb(0, 0, 0);"/></g><g class="node"><circle r="3.102929483310004" x="70784.02086445966" y="27927.042111999548" transform="translate(236.73251125237343,93.39813415384464)" style="fill: rgb(120, 186, 0); stroke-width: 0px; stroke: rgb(0, 0, 0);"/></g><g class="node"><circle r="3.102929483310004" x="70226.51835279263" y="25698.033143304132" transform="translate(234.86795435716596,85.94325465988004)" style="fill: rgb(120, 186, 0); stroke-width: 0px; stroke: rgb(0, 0, 0);"/></g><g class="node"><circle r="3.102929483310004" x="69705.9627531728" y="23460.10734007827" transform="translate(233.12696572967494,78.4585529768504)" style="fill: rgb(120, 186, 0); stroke-width: 0px; stroke: rgb(0, 0, 0);"/></g><g class="node"><circle r="3.8002969709736805" x="67742.56713843066" y="21902.534509510333" transform="translate(226.56042521214266,73.24927929602119)" style="fill: rgb(120, 186, 0); stroke-width: 0px; stroke: rgb(0, 0, 0);"/></g><g class="node"><circle r="3.102929483310004" x="65382.36289961124" y="21059.68730297111" transform="translate(218.66676555053925,70.43039231762913)" style="fill: rgb(120, 186, 0); stroke-width: 0px; stroke: rgb(0, 0, 0);"/></g><g class="node"><circle r="3.8002969709736805" x="64067.05631928147" y="18926.397809664275" transform="translate(214.267746887229,63.2956448483755)" style="fill: rgb(120, 186, 0); stroke-width: 0px; stroke: rgb(0, 0, 0);"/></g><g class="node"><circle r="5.374431517396371" x="63347.12156867998" y="15823.459113306242" transform="translate(211.85993835678923,52.91792345587372)" style="fill: rgb(120, 186, 0); stroke-width: 0px; stroke: rgb(0, 0, 0);"/></g><g class="node"><circle r="5.805049510932763" x="59694.53696242158" y="14831.888483468516" transform="translate(199.64393632916918,49.60163372397497)" style="fill: rgb(120, 186, 0); stroke-width: 0px; stroke: rgb(0, 0, 0);"/></g><g class="node"><circle r="3.102929483310004" x="57123.35694039154" y="16573.672719509883" transform="translate(191.04467204144328,55.42699906190596)" style="fill: rgb(120, 186, 0); stroke-width: 0px; stroke: rgb(0, 0, 0);"/></g><g class="node"><circle r="3.102929483310004" x="55062.09765560226" y="15558.53716505935" transform="translate(184.1508282796062,52.031896873108195)" style="fill: rgb(120, 186, 0); stroke-width: 0px; stroke: rgb(0, 0, 0);"/></g><g class="node"><circle r="3.102929483310004" x="53379.70822226338" y="13993.655115948495" transform="translate(178.52410776676717,46.79817764531269)" style="fill: rgb(120, 186, 0); stroke-width: 0px; stroke: rgb(0, 0, 0);"/></g><g class="node"><circle r="3.102929483310004" x="51852.824104256055" y="12276.705808829443" transform="translate(173.4174719205888,41.055872270332586)" style="fill: rgb(120, 186, 0); stroke-width: 0px; stroke: rgb(0, 0, 0);"/></g><g class="node"><circle r="3.8002969709736805" x="52162.454474306" y="9789.72279793957" transform="translate(174.45302499767894,32.738203337590534)" style="fill: rgb(120, 186, 0); stroke-width: 0px; stroke: rgb(0, 0, 0);"/></g><g class="node"><circle r="3.102929483310004" x="50488.73671687663" y="7924.347679906277" transform="translate(168.85530674540678,26.49949056824842)" style="fill: rgb(120, 186, 0); stroke-width: 0px; stroke: rgb(0, 0, 0);"/></g><g class="node"><circle r="3.8002969709736805" x="48504.98408017722" y="6392.786078500605" transform="translate(162.22068254239875,21.377210964884966)" style="fill: rgb(120, 186, 0); stroke-width: 0px; stroke: rgb(0, 0, 0);"/></g><g class="node"><circle r="3.102929483310004" x="46566.75619292361" y="4804.004117505166" transform="translate(155.73831502650037,16.063558921421958)" style="fill: rgb(120, 186, 0); stroke-width: 0px; stroke: rgb(0, 0, 0);"/></g><g class="node"><circle r="3.102929483310004" x="44358.12015081113" y="4170.587298560961" transform="translate(148.35157241073958,13.945108021943014)" style="fill: rgb(120, 186, 0); stroke-width: 0px; stroke: rgb(0, 0, 0);"/></g><g class="node"><circle r="3.102929483310004" x="42107.78372495326" y="3706.608847017277" transform="translate(140.82536362860623,12.393340625475844)" style="fill: rgb(120, 186, 0); stroke-width: 0px; stroke: rgb(0, 0, 0);"/></g><g class="node"><circle r="3.102929483310004" x="39861.85627276381" y="4191.4798737258425" transform="translate(133.31390057780538,14.014982855270375)" style="fill: rgb(120, 186, 0); stroke-width: 0px; stroke: rgb(0, 0, 0);"/></g><g class="node"><circle r="4.9061622930745195" x="37407.43064433319" y="5613.956587854944" transform="translate(125.10511921181669,18.772430059715532)" style="fill: rgb(120, 186, 0); stroke-width: 0px; stroke: rgb(0, 0, 0);"/></g><g class="node"><circle r="4.388204958384348" x="34227.40555077736" y="6126.936269705465" transform="translate(114.46958378186407,20.488081169583495)" style="fill: rgb(120, 186, 0); stroke-width: 0px; stroke: rgb(0, 0, 0);"/></g><g class="node"><circle r="3.102929483310004" x="32285.82078035042" y="7977.125605110915" transform="translate(107.9759892319412,26.67600536826393)" style="fill: rgb(120, 186, 0); stroke-width: 0px; stroke: rgb(0, 0, 0);"/></g><g class="node"><circle r="3.8002969709736805" x="30305.224059743792" y="9512.766218286535" transform="translate(101.35191993225348,31.811927151459983)" style="fill: rgb(120, 186, 0); stroke-width: 0px; stroke: rgb(0, 0, 0);"/></g><g class="node"><circle r="3.8002969709736805" x="28001.427037580932" y="10948.76601421919" transform="translate(93.646913169167,36.614602054244784)" style="fill: rgb(244, 179, 0); stroke-width: 0px; stroke: rgb(0, 0, 0);"/></g><g class="node"><circle r="4.388204958384348" x="26423.724489649354" y="13370.693758387024" transform="translate(88.37031601889416,44.71469484410376)" style="fill: rgb(244, 179, 0); stroke-width: 0px; stroke: rgb(0, 0, 0);"/></g><g class="node"><circle r="3.102929483310004" x="26097.207268181297" y="16032.711508456818" transform="translate(87.27828517786386,53.617764242330495)" style="fill: rgb(120, 186, 0); stroke-width: 0px; stroke: rgb(0, 0, 0);"/></g><g class="node"><circle r="3.102929483310004" x="25297.599669467327" y="18186.758332720052" transform="translate(84.60401227246598,60.821934223143984)" style="fill: rgb(120, 186, 0); stroke-width: 0px; stroke: rgb(0, 0, 0);"/></g><g class="node"><circle r="9.812324586149039" x="21718.726382283872" y="20577.194636289118" transform="translate(72.63453639559823,68.81670446919438)" style="fill: rgb(244, 179, 0); stroke-width: 0px; stroke: rgb(0, 0, 0);"/></g><g class="node"><circle r="4.388204958384348" x="21603.549973798705" y="25263.856668522967" transform="translate(72.24933101604918,84.49115942649821)" style="fill: rgb(120, 186, 0); stroke-width: 0px; stroke: rgb(0, 0, 0);"/></g><g class="node"><circle r="3.102929483310004" x="23064.557784855984" y="27512.94718996302" transform="translate(77.13564476540463,92.01320130422414)" style="fill: rgb(120, 186, 0); stroke-width: 0px; stroke: rgb(0, 0, 0);"/></g><g class="node"><circle r="6.205858966620008" x="21643.047632309335" y="30408.256136474563" transform="translate(72.38143020839243,101.69650881764068)" style="fill: rgb(120, 186, 0); stroke-width: 0px; stroke: rgb(0, 0, 0);"/></g><g class="node"><circle r="3.102929483310004" x="21868.605884783585" y="33625.80621134266" transform="translate(73.1358056347277,112.4575458573333)" style="fill: rgb(120, 186, 0); stroke-width: 0px; stroke: rgb(0, 0, 0);"/></g><g class="node"><circle r="3.102929483310004" x="20658.470387790203" y="35578.97341154756" transform="translate(69.08852972505085,118.98987763059384)" style="fill: rgb(120, 186, 0); stroke-width: 0px; stroke: rgb(0, 0, 0);"/></g><g class="node"><circle r="5.374431517396371" x="17737.177086103882" y="36151.40631798687" transform="translate(59.31831801372536,120.90436895647781)" style="fill: rgb(120, 186, 0); stroke-width: 0px; stroke: rgb(0, 0, 0);"/></g><g class="node"><circle r="7.600593941947361" x="13540.637784335846" y="37183.74747405997" transform="translate(45.28306951282892,124.35701496341129)" style="fill: rgb(120, 186, 0); stroke-width: 0px; stroke: rgb(0, 0, 0);"/></g><g class="node"><circle r="3.102929483310004" x="12737.46127942268" y="40736.564879984915" transform="translate(42.59686046629659,136.2393474246987)" style="fill: rgb(120, 186, 0); stroke-width: 0px; stroke: rgb(0, 0, 0);"/></g><g class="node"><circle r="7.277014675069007" x="11381.07099638864" y="44012.59146384142" transform="translate(38.060438115012175,147.19595807304822)" style="fill: rgb(244, 179, 0); stroke-width: 0px; stroke: rgb(0, 0, 0);"/></g><g class="node"><circle r="4.388204958384348" x="14013.435241019628" y="46930.76058431927" transform="translate(46.864331909764644,156.9557210177902)" style="fill: rgb(120, 186, 0); stroke-width: 0px; stroke: rgb(0, 0, 0);"/></g><g class="node"><circle r="6.205858966620008" x="15286.059628746394" y="50308.73006685588" transform="translate(51.120600765038105,168.25327781557152)" style="fill: rgb(120, 186, 0); stroke-width: 0px; stroke: rgb(0, 0, 0);"/></g><g class="node"><circle r="7.910948992350043" x="17588.47907460236" y="54363.70811645933" transform="translate(58.82100024950623,181.815077312573)" style="fill: rgb(120, 186, 0); stroke-width: 0px; stroke: rgb(0, 0, 0);"/></g><g class="node"><circle r="4.9061622930745195" x="21699.84826668531" y="55533.083172300554" transform="translate(72.57139888523514,185.72603067659048)" style="fill: rgb(120, 186, 0); stroke-width: 0px; stroke: rgb(0, 0, 0);"/></g><g class="node"><circle r="3.102929483310004" x="24273.530802658082" y="56726.31549325289" transform="translate(81.17903278480964,189.71677422492607)" style="fill: rgb(120, 186, 0); stroke-width: 0px; stroke: rgb(0, 0, 0);"/></g><g class="node"><circle r="6.938361254069468" x="23518.56334440345" y="60087.02389674782" transform="translate(78.65405800803829,200.95660166136395)" style="fill: rgb(120, 186, 0); stroke-width: 0px; stroke: rgb(0, 0, 0);"/></g><g class="node"><circle r="3.102929483310004" x="24274.421460832946" y="63447.53209405557" transform="translate(81.18201157469213,212.19575951189154)" style="fill: rgb(120, 186, 0); stroke-width: 0px; stroke: rgb(0, 0, 0);"/></g><g class="node"><circle r="3.102929483310004" x="25344.789031827695" y="65480.65857708668" transform="translate(84.76183622684847,218.99551363574142)" style="fill: rgb(120, 186, 0); stroke-width: 0px; stroke: rgb(0, 0, 0);"/></g><g class="node"><circle r="3.8002969709736805" x="27361.799458287023" y="66968.14787186043" transform="translate(91.50769049594322,223.970394220269)" style="fill: rgb(120, 186, 0); stroke-width: 0px; stroke: rgb(0, 0, 0);"/></g><g class="node"><circle r="3.102929483310004" x="29861.412501178307" y="66786.79159730696" transform="translate(99.86760033838898,223.3638514960099)" style="fill: rgb(120, 186, 0); stroke-width: 0px; stroke: rgb(0, 0, 0);"/></g><g class="node"><circle r="3.102929483310004" x="31935.14213777378" y="67776.20325447764" transform="translate(106.80315096245411,226.6729205835373)" style="fill: rgb(120, 186, 0); stroke-width: 0px; stroke: rgb(0, 0, 0);"/></g><g class="node"><circle r="3.102929483310004" x="34232.05320548122" y="67835.27592229216" transform="translate(114.48512777752916,226.87048803442195)" style="fill: rgb(120, 186, 0); stroke-width: 0px; stroke: rgb(0, 0, 0);"/></g><g class="node"><circle r="11.187771356223202" x="37420.03283243278" y="71309.23216023136" transform="translate(125.14726699810294,238.48907077000456)" style="fill: rgb(244, 179, 0); stroke-width: 0px; stroke: rgb(0, 0, 0);"/></g><g class="node"><circle r="7.277014675069007" x="43143.733243822724" y="72981.86274553195" transform="translate(144.29007773853755,244.08315299509013)" style="fill: rgb(244, 179, 0); stroke-width: 0px; stroke: rgb(0, 0, 0);"/></g><g class="node"><circle r="3.102929483310004" x="46668.01145550618" y="72592.49419942558" transform="translate(156.07696138965278,242.78091705493503)" style="fill: rgb(120, 186, 0); stroke-width: 0px; stroke: rgb(0, 0, 0);"/></g><g class="node"><circle r="16.99544472356739" x="51344.08972814829" y="77037.32998723305" transform="translate(171.7160191576866,257.64658858606373)" style="fill: rgb(255, 46, 18); stroke-width: 0px; stroke: rgb(0, 0, 0);"/></g><g class="node"><circle r="3.8002969709736805" x="54810.564224620415" y="71350.52414752445" transform="translate(183.30957934655657,238.6271710619547)" style="fill: rgb(120, 186, 0); stroke-width: 0px; stroke: rgb(0, 0, 0);"/></g><g class="node"><circle r="7.910948992350043" x="58614.05654059676" y="70307.99981851394" transform="translate(196.03028943343398,235.14046762044796)" style="fill: rgb(244, 179, 0); stroke-width: 0px; stroke: rgb(0, 0, 0);"/></g><g class="node"><circle r="3.102929483310004" x="61380.43758299248" y="67798.14604836666" transform="translate(205.28239994311866,226.74630785406907)" style="fill: rgb(120, 186, 0); stroke-width: 0px; stroke: rgb(0, 0, 0);"/></g><g class="node"><circle r="3.102929483310004" x="63162.04433943859" y="66347.22654735179" transform="translate(211.24095096802202,221.89373427207957)" style="fill: rgb(120, 186, 0); stroke-width: 0px; stroke: rgb(0, 0, 0);"/></g><g class="node"><circle r="3.102929483310004" x="64163.238419314854" y="64279.15970910396" transform="translate(214.5894261515547,214.97712277292294)" style="fill: rgb(120, 186, 0); stroke-width: 0px; stroke: rgb(0, 0, 0);"/></g><g class="node"><circle r="3.102929483310004" x="65099.4212421031" y="62180.86236235925" transform="translate(217.7204723816157,207.9594058941781)" style="fill: rgb(120, 186, 0); stroke-width: 0px; stroke: rgb(0, 0, 0);"/></g><g class="node"><circle r="3.8002969709736805" x="67307.93124399935" y="60996.1940399853" transform="translate(225.10679345819182,203.99730448155617)" style="fill: rgb(120, 186, 0); stroke-width: 0px; stroke: rgb(0, 0, 0);"/></g><g class="node"><circle r="3.102929483310004" x="69783.61069206087" y="60606.3649326088" transform="translate(233.3866578329795,202.693528202705)" style="fill: rgb(120, 186, 0); stroke-width: 0px; stroke: rgb(0, 0, 0);"/></g><g class="node"><circle r="3.8002969709736805" x="71733.92809094956" y="59032.447048440685" transform="translate(239.90945849815904,197.42958879077153)" style="fill: rgb(120, 186, 0); stroke-width: 0px; stroke: rgb(0, 0, 0);"/></g><g class="node"><circle r="5.805049510932763" x="74984.09245430764" y="58384.52320021572" transform="translate(250.77957342577804,195.26261939871478)" style="fill: rgb(244, 179, 0); stroke-width: 0px; stroke: rgb(0, 0, 0);"/></g><g class="node"><circle r="3.102929483310004" x="75639.56846612574" y="55348.879902899695" transform="translate(252.97180089005263,185.10996623043377)" style="fill: rgb(120, 186, 0); stroke-width: 0px; stroke: rgb(0, 0, 0);"/></g><g class="node"><circle r="3.102929483310004" x="76656.934665103" y="53288.72067356373" transform="translate(256.37436342843813,178.2198015838252)" style="fill: rgb(120, 186, 0); stroke-width: 0px; stroke: rgb(0, 0, 0);"/></g><g class="node"><circle r="3.102929483310004" x="78173.1757670874" y="51562.36527744947" transform="translate(261.44540390330235,172.4460377172223)" style="fill: rgb(120, 186, 0); stroke-width: 0px; stroke: rgb(0, 0, 0);"/></g><g class="node"><circle r="8.209579748608416" x="80542.00159081981" y="48559.71382734376" transform="translate(269.36789829705623,162.40372517506273)" style="fill: rgb(244, 179, 0); stroke-width: 0px; stroke: rgb(0, 0, 0);"/></g><g class="node"><circle r="3.102929483310004" x="79939.27636644486" y="44782.946185840556" transform="translate(267.35209487105305,149.77239527036974)" style="fill: rgb(120, 186, 0); stroke-width: 0px; stroke: rgb(0, 0, 0);"/></g><g class="node"><circle r="12.604159144643845" x="81005.65519204467" y="39756.276175059065" transform="translate(270.91857923760756,132.96078988314068)" style="fill: rgb(244, 179, 0); stroke-width: 0px; stroke: rgb(0, 0, 0);"/></g><g class="node"><circle r="5.374431517396371" x="75849.82231781374" y="37061.23954019127" transform="translate(253.67499102947738,123.94728943207782)" style="fill: rgb(120, 186, 0); stroke-width: 0px; stroke: rgb(0, 0, 0);"/></g><g class="node"><circle r="10.522545835088417" x="75400.5067161946" y="31885.390521336652" transform="translate(252.1722632648649,106.63675759644366)" style="fill: rgb(244, 179, 0); stroke-width: 0px; stroke: rgb(0, 0, 0);"/></g><g class="node"><circle r="3.102929483310004" x="73080.15968206413" y="28010.926337748893" transform="translate(244.41190529118438,93.67868340384246)" style="fill: rgb(120, 186, 0); stroke-width: 0px; stroke: rgb(0, 0, 0);"/></g><g class="node"><circle r="3.102929483310004" x="72522.65717039708" y="25781.91736905348" transform="translate(242.54734839597688,86.22380390987786)" style="fill: rgb(120, 186, 0); stroke-width: 0px; stroke: rgb(0, 0, 0);"/></g><g class="node"><circle r="3.102929483310004" x="72002.10157077727" y="23543.99156582762" transform="translate(240.8063597684859,78.73910222684822)" style="fill: rgb(120, 186, 0); stroke-width: 0px; stroke: rgb(0, 0, 0);"/></g><g class="node"><circle r="3.102929483310004" x="70926.67803245077" y="21513.534906291905" transform="translate(237.2096255265912,71.94827727856824)" style="fill: rgb(120, 186, 0); stroke-width: 0px; stroke: rgb(0, 0, 0);"/></g><g class="node"><circle r="3.102929483310004" x="69273.23869654653" y="19918.095031046138" transform="translate(231.6797280820954,66.61235796336501)" style="fill: rgb(120, 186, 0); stroke-width: 0px; stroke: rgb(0, 0, 0);"/></g><g class="node"><circle r="3.102929483310004" x="67023.43688718222" y="19451.531153725184" transform="translate(224.15530731499072,65.05194365794375)" style="fill: rgb(120, 186, 0); stroke-width: 0px; stroke: rgb(0, 0, 0);"/></g><g class="node"><circle r="3.102929483310004" x="66036.58197892131" y="17376.583582560797" transform="translate(220.85478922716158,58.11231967411638)" style="fill: rgb(120, 186, 0); stroke-width: 0px; stroke: rgb(0, 0, 0);"/></g><g class="node"><circle r="3.102929483310004" x="66231.48426456114" y="15087.194333854488" transform="translate(221.50663633632485,50.45549944432939)" style="fill: rgb(120, 186, 0); stroke-width: 0px; stroke: rgb(0, 0, 0);"/></g><g class="node"><circle r="3.102929483310004" x="64848.05044784884" y="13252.691429028086" transform="translate(216.8797673841098,44.3200382241742)" style="fill: rgb(120, 186, 0); stroke-width: 0px; stroke: rgb(0, 0, 0);"/></g><g class="node"><circle r="3.102929483310004" x="62570.44306406593" y="12949.715129002416" transform="translate(209.26235138483588,43.30673956188099)" style="fill: rgb(120, 186, 0); stroke-width: 0px; stroke: rgb(0, 0, 0);"/></g><g class="node"><circle r="3.102929483310004" x="60554.31202167299" y="11847.669007944329" transform="translate(202.5194381995752,39.620966581753606)" style="fill: rgb(120, 186, 0); stroke-width: 0px; stroke: rgb(0, 0, 0);"/></g><g class="node"><circle r="3.102929483310004" x="58267.75972675527" y="12073.431351230818" transform="translate(194.8721061095494,40.376024586056246)" style="fill: rgb(120, 186, 0); stroke-width: 0px; stroke: rgb(0, 0, 0);"/></g><g class="node"><circle r="3.102929483310004" x="56762.18653107005" y="13809.09819295875" transform="translate(189.8367442510704,46.18093041123328)" style="fill: rgb(120, 186, 0); stroke-width: 0px; stroke: rgb(0, 0, 0);"/></g><g class="node"><circle r="3.102929483310004" x="54986.36068906248" y="12351.108957093886" transform="translate(183.89752738816884,41.30471223108323)" style="fill: rgb(120, 186, 0); stroke-width: 0px; stroke: rgb(0, 0, 0);"/></g><g class="node"><circle r="3.102929483310004" x="54652.01516304289" y="10077.89469040666" transform="translate(182.77931492656484,33.70198893112595)" style="fill: rgb(120, 186, 0); stroke-width: 0px; stroke: rgb(0, 0, 0);"/></g><g class="node"><circle r="7.910948992350043" x="54140.426262619476" y="6377.826202363156" transform="translate(181.06831525959691,21.327177934324936)" style="fill: rgb(244, 179, 0); stroke-width: 0px; stroke: rgb(0, 0, 0);"/></g><g class="node"><circle r="3.102929483310004" x="50638.607281835444" y="5078.020891914856" transform="translate(169.35654609309512,16.98000298299283)" style="fill: rgb(120, 186, 0); stroke-width: 0px; stroke: rgb(0, 0, 0);"/></g><g class="node"><circle r="3.102929483310004" x="48673.59768755589" y="3887.2113658239045" transform="translate(162.7846076506886,12.997362427504697)" style="fill: rgb(120, 186, 0); stroke-width: 0px; stroke: rgb(0, 0, 0);"/></g><g class="node"><circle r="3.102929483310004" x="46826.211127278344" y="2521.0294855658153" transform="translate(156.60605728186738,8.428192259417443)" style="fill: rgb(120, 186, 0); stroke-width: 0px; stroke: rgb(0, 0, 0);"/></g><g class="node"><circle r="3.102929483310004" x="44617.57508516587" y="1887.6126666216028" transform="translate(149.21931466610658,6.309741359938471)" style="fill: rgb(120, 186, 0); stroke-width: 0px; stroke: rgb(0, 0, 0);"/></g><g class="node"><circle r="3.102929483310004" x="42367.238659307994" y="1423.6342150779274" transform="translate(141.69310588397323,4.757973963471329)" style="fill: rgb(120, 186, 0); stroke-width: 0px; stroke: rgb(0, 0, 0);"/></g><g class="node"><circle r="3.102929483310004" x="40121.31120711854" y="1908.5052417864838" transform="translate(134.18164283317236,6.379616193265832)" style="fill: rgb(120, 186, 0); stroke-width: 0px; stroke: rgb(0, 0, 0);"/></g><g class="node"><circle r="3.102929483310004" x="38014.469712486265" y="2825.2979934677446" transform="translate(127.13535020898416,9.445812687183093)" style="fill: rgb(120, 186, 0); stroke-width: 0px; stroke: rgb(0, 0, 0);"/></g><g class="node"><circle r="3.102929483310004" x="35766.364080210755" y="3299.9674565373475" transform="translate(119.61660227495236,11.033335975041297)" style="fill: rgb(120, 186, 0); stroke-width: 0px; stroke: rgb(0, 0, 0);"/></g><g class="node"><circle r="3.102929483310004" x="33482.39547295602" y="3550.5217103717923" transform="translate(111.97791128078937,11.871310068133084)" style="fill: rgb(120, 186, 0); stroke-width: 0px; stroke: rgb(0, 0, 0);"/></g><g class="node"><circle r="3.102929483310004" x="31761.310092331827" y="5072.742175889632" transform="translate(106.22177288405294,16.962348414346593)" style="fill: rgb(120, 186, 0); stroke-width: 0px; stroke: rgb(0, 0, 0);"/></g><g class="node"><circle r="3.102929483310004" x="30290.449804548418" y="6837.922066683021" transform="translate(101.3025077075198,22.865960089240872)" style="fill: rgb(120, 186, 0); stroke-width: 0px; stroke: rgb(0, 0, 0);"/></g><g class="node"><circle r="3.102929483310004" x="28307.784762348856" y="7999.097920496504" transform="translate(94.67152094431056,26.749491372898007)" style="fill: rgb(120, 186, 0); stroke-width: 0px; stroke: rgb(0, 0, 0);"/></g><g class="node"><circle r="3.102929483310004" x="26297.197113167433" y="9111.225313378614" transform="translate(87.94714753567703,30.46898098119938)" style="fill: rgb(120, 186, 0); stroke-width: 0px; stroke: rgb(0, 0, 0);"/></g><g class="node"><circle r="3.102929483310004" x="25071.419963093696" y="11054.614212028795" transform="translate(83.84755840499564,36.968609404778576)" style="fill: rgb(120, 186, 0); stroke-width: 0px; stroke: rgb(0, 0, 0);"/></g><g class="node"><circle r="3.8002969709736805" x="23551.40018710811" y="13047.224395462787" transform="translate(78.76388022444183,43.63285750990899)" style="fill: rgb(120, 186, 0); stroke-width: 0px; stroke: rgb(0, 0, 0);"/></g><g class="node"><circle r="3.102929483310004" x="23854.076346525988" y="15535.063338206503" transform="translate(79.77617507199326,51.95338909099165)" style="fill: rgb(120, 186, 0); stroke-width: 0px; stroke: rgb(0, 0, 0);"/></g><g class="node"><circle r="3.102929483310004" x="21678.335775862004" y="16273.604469225213" transform="translate(72.49945075539132,54.423426318478974)" style="fill: rgb(120, 186, 0); stroke-width: 0px; stroke: rgb(0, 0, 0);"/></g><g class="node"><circle r="3.102929483310004" x="19469.891700983062" y="16907.690268760045" transform="translate(65.11335017051191,56.5441146112376)" style="fill: rgb(120, 186, 0); stroke-width: 0px; stroke: rgb(0, 0, 0);"/></g><g class="node"><circle r="3.102929483310004" x="17902.410664278224" y="18587.658492450722" transform="translate(59.870938676515806,62.16273743294556)" style="fill: rgb(120, 186, 0); stroke-width: 0px; stroke: rgb(0, 0, 0);"/></g><g class="node"><circle r="3.102929483310004" x="17422.656234417438" y="20834.68446472354" transform="translate(58.266408810760666,69.67787446395833)" style="fill: rgb(120, 186, 0); stroke-width: 0px; stroke: rgb(0, 0, 0);"/></g><g class="node"><circle r="3.102929483310004" x="18167.368056825933" y="23008.32066579415" transform="translate(60.75708380209342,76.94756075516437)" style="fill: rgb(120, 186, 0); stroke-width: 0px; stroke: rgb(0, 0, 0);"/></g><g class="node"><circle r="3.102929483310004" x="18922.950170977198" y="25178.20216067224" transform="translate(63.284114284204676,84.20468950057605)" style="fill: rgb(120, 186, 0); stroke-width: 0px; stroke: rgb(0, 0, 0);"/></g><g class="node"><circle r="3.8002969709736805" x="19747.531671156157" y="27544.84975000081" transform="translate(66.04191194366608,92.11989882943415)" style="fill: rgb(120, 186, 0); stroke-width: 0px; stroke: rgb(0, 0, 0);"/></g><g class="node"><circle r="19.746922312729566" x="12346.533677629028" y="28647.83942495483" transform="translate(41.28941029307367,95.80882750821013)" style="fill: rgb(255, 46, 18); stroke-width: 0px; stroke: rgb(0, 0, 0);"/></g><g class="node"><circle r="4.388204958384348" x="9741.297346454694" y="35849.623902608626" transform="translate(32.57624530586854,119.89506321942685)" style="fill: rgb(120, 186, 0); stroke-width: 0px; stroke: rgb(0, 0, 0);"/></g><g class="node"><circle r="6.205858966620008" x="9575.01735789503" y="39455.53594016447" transform="translate(32.02012494279275,131.95496969954672)" style="fill: rgb(244, 179, 0); stroke-width: 0px; stroke: rgb(0, 0, 0);"/></g><g class="node"><circle r="4.388204958384348" x="7730.076554201305" y="42558.187078796" transform="translate(25.849754361877274,142.33172936052173)" style="fill: rgb(120, 186, 0); stroke-width: 0px; stroke: rgb(0, 0, 0);"/></g><g class="node"><circle r="7.600593941947361" x="7200.278812349088" y="46549.952079337665" transform="translate(24.077855559695948,155.68211397771793)" style="fill: rgb(244, 179, 0); stroke-width: 0px; stroke: rgb(0, 0, 0);"/></g><g class="node"><circle r="3.102929483310004" x="10717.82205109092" y="47495.7287873768" transform="translate(35.842214217695386,158.8452467805244)" style="fill: rgb(120, 186, 0); stroke-width: 0px; stroke: rgb(0, 0, 0);"/></g><g class="node"><circle r="5.374431517396371" x="11382.441824820895" y="50397.437687873025" transform="translate(38.065022825487944,168.54995882231782)" style="fill: rgb(120, 186, 0); stroke-width: 0px; stroke: rgb(0, 0, 0);"/></g><g class="node"><circle r="9.563870978570739" x="11993.981201035505" y="55267.866043162074" transform="translate(40.110305020185635,184.8390168667628)" style="fill: rgb(244, 179, 0); stroke-width: 0px; stroke: rgb(0, 0, 0);"/></g><g class="node"><circle r="3.102929483310004" x="15578.834267688346" y="57512.2883948217" transform="translate(52.099780159492795,192.3454461365274)" style="fill: rgb(120, 186, 0); stroke-width: 0px; stroke: rgb(0, 0, 0);"/></g><g class="node"><circle r="3.102929483310004" x="17801.94306623503" y="58092.87198300169" transform="translate(59.53492664292652,194.28719726756418)" style="fill: rgb(120, 186, 0); stroke-width: 0px; stroke: rgb(0, 0, 0);"/></g><g class="node"><circle r="3.102929483310004" x="20088.574805353255" y="57867.91571459209" transform="translate(67.18252443261959,193.53483516585985)" style="fill: rgb(120, 186, 0); stroke-width: 0px; stroke: rgb(0, 0, 0);"/></g><g class="node"><circle r="5.374431517396371" x="19452.901283036434" y="60776.102978142575" transform="translate(65.05652603022219,203.261213973721)" style="fill: rgb(120, 186, 0); stroke-width: 0px; stroke: rgb(0, 0, 0);"/></g><g class="node"><circle r="3.102929483310004" x="21535.382445929084" y="62903.28566729958" transform="translate(72.02134597300697,210.375537348828)" style="fill: rgb(120, 186, 0); stroke-width: 0px; stroke: rgb(0, 0, 0);"/></g><g class="node"><circle r="3.102929483310004" x="22549.279966970436" y="64965.15420090346" transform="translate(75.41230758184092,217.2714187321186)" style="fill: rgb(120, 186, 0); stroke-width: 0px; stroke: rgb(0, 0, 0);"/></g><g class="node"><circle r="7.600593941947361" x="23338.84745084304" y="68521.0207909626" transform="translate(78.05300150783626,229.1639491336542)" style="fill: rgb(244, 179, 0); stroke-width: 0px; stroke: rgb(0, 0, 0);"/></g><g class="node"><circle r="5.805049510932763" x="27426.185920703298" y="70281.63969852895" transform="translate(91.72302983512809,235.0523066840433)" style="fill: rgb(120, 186, 0); stroke-width: 0px; stroke: rgb(0, 0, 0);"/></g><g class="node"><circle r="5.374431517396371" x="31192.126811286453" y="70658.83438097595" transform="translate(104.31814987052326,236.3138273611236)" style="fill: rgb(120, 186, 0); stroke-width: 0px; stroke: rgb(0, 0, 0);"/></g><g class="node"><circle r="3.102929483310004" x="33021.390691422595" y="73007.32914223928" transform="translate(110.4360892689719,244.16832489043236)" style="fill: rgb(120, 186, 0); stroke-width: 0px; stroke: rgb(0, 0, 0);"/></g><g class="node"><circle r="3.102929483310004" x="34346.214650972324" y="74884.59617418828" transform="translate(114.86693863201445,250.446809947118)" style="fill: rgb(120, 186, 0); stroke-width: 0px; stroke: rgb(0, 0, 0);"/></g><g class="node"><circle r="23.732846977050134" x="38758.319494029725" y="82110.02045429379" transform="translate(129.62314212050075,274.6121085427886)" style="fill: rgb(255, 46, 18); stroke-width: 0px; stroke: rgb(0, 0, 0);"/></g><g class="node"><circle r="7.600593941947361" x="48337.23967860516" y="84230.49905551254" transform="translate(161.65966447694035,281.7040102191055)" style="fill: rgb(244, 179, 0); stroke-width: 0px; stroke: rgb(0, 0, 0);"/></g><g class="node"><circle r="3.8002969709736805" x="52144.09180070648" y="83649.15294139163" transform="translate(174.39161137360028,279.7597088340857)" style="fill: rgb(120, 186, 0); stroke-width: 0px; stroke: rgb(0, 0, 0);"/></g><g class="node"><circle r="3.102929483310004" x="54458.395327731494" y="82687.407316337" transform="translate(182.13175694893476,276.54316828206356)" style="fill: rgb(120, 186, 0); stroke-width: 0px; stroke: rgb(0, 0, 0);"/></g><g class="node"><circle r="3.102929483310004" x="56240.966051964795" y="81237.67229015256" transform="translate(188.09353194637055,271.6945561543564)" style="fill: rgb(120, 186, 0); stroke-width: 0px; stroke: rgb(0, 0, 0);"/></g><g class="node"><circle r="3.102929483310004" x="57402.42628927635" y="79255.17382856832" transform="translate(191.97801434540585,265.0641265169509)" style="fill: rgb(120, 186, 0); stroke-width: 0px; stroke: rgb(0, 0, 0);"/></g><g class="node"><circle r="3.102929483310004" x="57795.45863039686" y="76991.3682689248" transform="translate(193.29250378059152,257.49287046463144)" style="fill: rgb(120, 186, 0); stroke-width: 0px; stroke: rgb(0, 0, 0);"/></g><g class="node"><circle r="3.8002969709736805" x="57502.821230065536" y="74502.32853150809" transform="translate(192.31378337814562,249.16832284785312)" style="fill: rgb(120, 186, 0); stroke-width: 0px; stroke: rgb(0, 0, 0);"/></g><g class="node"><circle r="3.8002969709736805" x="60158.001136659324" y="73937.0004879213" transform="translate(201.19398373464657,247.27759360508796)" style="fill: rgb(120, 186, 0); stroke-width: 0px; stroke: rgb(0, 0, 0);"/></g><g class="node"><circle r="10.748863034792741" x="64447.61196765643" y="71800.2864964821" transform="translate(215.54050825303153,240.13139296482308)" style="fill: rgb(244, 179, 0); stroke-width: 0px; stroke: rgb(0, 0, 0);"/></g><g class="node"><circle r="7.600593941947361" x="67065.05777156231" y="66480.76105013053" transform="translate(224.29450759719833,222.3403379603028)" style="fill: rgb(244, 179, 0); stroke-width: 0px; stroke: rgb(0, 0, 0);"/></g><g class="node"><circle r="5.374431517396371" x="70239.37321078092" y="63548.11857854551" transform="translate(234.91094719324724,212.53216915901507)" style="fill: rgb(244, 179, 0); stroke-width: 0px; stroke: rgb(0, 0, 0);"/></g><g class="node"><circle r="3.102929483310004" x="72360.16435413998" y="61459.12865202559" transform="translate(242.00389416100327,205.54558077600532)" style="fill: rgb(120, 186, 0); stroke-width: 0px; stroke: rgb(0, 0, 0);"/></g><g class="node"><circle r="4.9061622930745195" x="75139.79371981602" y="62025.9670392295" transform="translate(251.30031344420075,207.44136133521573)" style="fill: rgb(244, 179, 0); stroke-width: 0px; stroke: rgb(0, 0, 0);"/></g><g class="node"><circle r="3.102929483310004" x="77409.49083577249" y="60324.16794134648" transform="translate(258.89127369823575,201.74972555634275)" style="fill: rgb(120, 186, 0); stroke-width: 0px; stroke: rgb(0, 0, 0);"/></g><g class="node"><circle r="3.102929483310004" x="78078.93323814066" y="58126.18320460439" transform="translate(261.1302114987982,194.3986060354662)" style="fill: rgb(120, 186, 0); stroke-width: 0px; stroke: rgb(0, 0, 0);"/></g><g class="node"><circle r="6.938361254069468" x="79619.69364075558" y="55045.5348608172" transform="translate(266.28325632359724,184.09543431711438)" style="fill: rgb(244, 179, 0); stroke-width: 0px; stroke: rgb(0, 0, 0);"/></g><g class="node"><circle r="3.102929483310004" x="81607.81983259573" y="52232.76201508935" transform="translate(272.93250780132354,174.68816727454632)" style="fill: rgb(120, 186, 0); stroke-width: 0px; stroke: rgb(0, 0, 0);"/></g><g class="node"><circle r="3.102929483310004" x="83520.22282277356" y="50959.18247842954" transform="translate(279.32850442399183,170.4287039412359)" style="fill: rgb(120, 186, 0); stroke-width: 0px; stroke: rgb(0, 0, 0);"/></g></svg>