<svg xmlns="http://www.w3.org/2000/svg" width="300" height="300" class="bubble"><defs><pattern id="hash-warning" patternUnits="userSpaceOnUse" width="4" height="4"><path d="M-1,1 l2,-2 M0,4 l4,-4 M3,5 l2,-2" stroke="#000000" stroke-width="1"/></pattern><pattern id="hash-critical" patternUnits="userSpaceOnUse" width="4" height="4"><path d="M-1,1 l2,-2 M0,4 l4,-4 M3,5 l2,-2" stroke="#000000" stroke-width="3"/></pattern><pattern id="hash-good" patternUnits="userSpaceOnUse" width="5" height="5"><circle cx="2" cy="2" r="2" style="stroke:none;fill:#eee"/></pattern></defs><g class="node"><circle r="2.953952997329895" x="47241.316633017705" y="44438.7981266478" transform="translate(157.99437001009267,148.62139841688227)" style="fill: rgb(120, 186, 0); stroke-width: 0px; stroke: rgb(0, 0, 0);"/></g><g class="node"><circle r="2.0887601957182964" x="49163.01206408887" y="44438.7981266478" transform="translate(164.42144503039756,148.62139841688227)" style="fill: rgb(120, 186, 0); stroke-width: 0px; stroke: rgb(0, 0, 0);"/></g><g class="node"><circle r="4.430929495994842" x="48537.71816056652" y="42159.70876304068" transform="translate(162.33016107212882,140.99902596334675)" style="fill: rgb(120, 186, 0); stroke-width: 0px; stroke: rgb(0, 0, 0);"/></g><g class="node"><circle r="8.612178913532352" x="44226.54628488195" y="42008.76228000931" transform="translate(147.9115260363945,140.49418822745588)" style="fill: rgb(244, 179, 0); stroke-width: 0px; stroke: rgb(0, 0, 0);"/></g><g class="node"><circle r="2.0887601957182964" x="45559.00064143363" y="45367.62870014345" transform="translate(152.3678951218516,151.72785518442623)" style="fill: rgb(120, 186, 0); stroke-width: 0px; stroke: rgb(0, 0, 0);"/></g><g class="node"><circle r="4.898576870244484" x="47263.742354799455" y="47200.53769486292" transform="translate(158.06937242407844,157.85798560154822)" style="fill: rgb(120, 186, 0); stroke-width: 0px; stroke: rgb(0, 0, 0);"/></g><g class="node"><circle r="2.0887601957182964" x="49496.073240233534" y="46068.1073393222" transform="translate(165.53536200747,154.070593108101)" style="fill: rgb(120, 186, 0); stroke-width: 0px; stroke: rgb(0, 0, 0);"/></g><g class="node"><circle r="2.953952997329895" x="51026.93042151884" y="44906.475030755064" transform="translate(170.65528569069846,150.1855352199166)" style="fill: rgb(120, 186, 0); stroke-width: 0px; stroke: rgb(0, 0, 0);"/></g><g class="node"><circle r="2.0887601957182964" x="50744.43821430504" y="43005.656395886595" transform="translate(169.71049570001685,143.82828226049028)" style="fill: rgb(120, 186, 0); stroke-width: 0px; stroke: rgb(0, 0, 0);"/></g><g class="node"><circle r="11.150928029706243" x="52511.045086169484" y="39005.8249101794" transform="translate(175.61887988685447,130.45091943203812)" style="fill: rgb(244, 179, 0); stroke-width: 0px; stroke: rgb(0, 0, 0);"/></g><g class="node"><circle r="8.484584024045182" x="46555.55156870646" y="36997.692305647615" transform="translate(155.70084136691125,123.73475687507565)" style="fill: rgb(244, 179, 0); stroke-width: 0px; stroke: rgb(0, 0, 0);"/></g><g class="node"><circle r="5.11639667454575" x="42183.53567045169" y="37978.20717399785" transform="translate(141.07871461689527,127.01407081604631)" style="fill: rgb(120, 186, 0); stroke-width: 0px; stroke: rgb(0, 0, 0);"/></g><g class="node"><circle r="4.670609786321876" x="40082.18378051577" y="40574.65043374313" transform="translate(134.05078187463468,135.69782753760245)" style="fill: rgb(120, 186, 0); stroke-width: 0px; stroke: rgb(0, 0, 0);"/></g><g class="node"><circle r="7.384882493324737" x="39707.67133960668" y="44575.67709093624" transform="translate(132.79823190503905,149.0791875951045)" style="fill: rgb(244, 179, 0); stroke-width: 0px; stroke: rgb(0, 0, 0);"/></g><g class="node"><circle r="6.927633846226899" x="43330.15764132903" y="47559.8491321956" transform="translate(144.91357070678606,159.05969609429968)" style="fill: rgb(244, 179, 0); stroke-width: 0px; stroke: rgb(0, 0, 0);"/></g><g class="node"><circle r="2.0887601957182964" x="45905.448051734864" y="49303.0923977126" transform="translate(153.52658211282562,164.88994112947358)" style="fill: rgb(120, 186, 0); stroke-width: 0px; stroke: rgb(0, 0, 0);"/></g><g class="node"><circle r="2.0887601957182964" x="47522.759461066125" y="49690.23844613289" transform="translate(158.93565037145862,166.18474396699963)" style="fill: rgb(120, 186, 0); stroke-width: 0px; stroke: rgb(0, 0, 0);"/></g><g class="node"><circle r="2.0887601957182964" x="49025.74491916842" y="48978.47094877608" transform="translate(163.96235758919204,163.80425066480294)" style="fill: rgb(120, 186, 0); stroke-width: 0px; stroke: rgb(0, 0, 0);"/></g><g class="node"><circle r="2.0887601957182964" x="50020.93302666822" y="47646.11255545561" transform="translate(167.29074590858937,159.3482025266074)" style="fill: rgb(120, 186, 0); stroke-width: 0px; stroke: rgb(0, 0, 0);"/></g><g class="node"><circle r="2.0887601957182964" x="51442.265014214" y="46782.750731687775" transform="translate(172.04436459603343,156.46070478825342)" style="fill: rgb(120, 186, 0); stroke-width: 0px; stroke: rgb(0, 0, 0);"/></g><g class="node"><circle r="2.0887601957182964" x="52750.57683921985" y="45756.15518030914" transform="translate(176.41998942882893,153.02727485053225)" style="fill: rgb(120, 186, 0); stroke-width: 0px; stroke: rgb(0, 0, 0);"/></g><g class="node"><circle r="2.0887601957182964" x="52768.07064852792" y="44093.244411748055" transform="translate(176.4784971522673,147.4657003737393)" style="fill: rgb(120, 186, 0); stroke-width: 0px; stroke: rgb(0, 0, 0);"/></g><g class="node"><circle r="2.0887601957182964" x="54089.490348981264" y="43083.57702452872" transform="translate(180.89796103338216,144.08888636966128)" style="fill: rgb(120, 186, 0); stroke-width: 0px; stroke: rgb(0, 0, 0);"/></g><g class="node"><circle r="12.089573677337594" x="58740.24031368366" y="42931.18530464412" transform="translate(196.4523087414169,143.5792150656994)" style="fill: rgb(255, 46, 18); stroke-width: 0px; stroke: rgb(0, 0, 0);"/></g><g class="node"><circle r="2.0887601957182964" x="56870.721834398006" y="38670.01185991342" transform="translate(190.19973857658195,129.3277988625867)" style="fill: rgb(120, 186, 0); stroke-width: 0px; stroke: rgb(0, 0, 0);"/></g><g class="node"><circle r="8.984097304210202" x="57552.86736423661" y="35008.30031019806" transform="translate(192.48116175329972,117.08127194046173)" style="fill: rgb(244, 179, 0); stroke-width: 0px; stroke: rgb(0, 0, 0);"/></g><g class="node"><circle r="2.0887601957182964" x="53832.074211614294" y="34837.559827018325" transform="translate(180.03703749703777,116.51023353517834)" style="fill: rgb(120, 186, 0); stroke-width: 0px; stroke: rgb(0, 0, 0);"/></g><g class="node"><circle r="5.526340026321213" x="51382.13999679096" y="33724.70867391914" transform="translate(171.84327758124067,112.7883233241443)" style="fill: rgb(120, 186, 0); stroke-width: 0px; stroke: rgb(0, 0, 0);"/></g><g class="node"><circle r="3.30261985218445" x="48337.72394775449" y="33485.70513412126" transform="translate(161.66128410620232,111.98898038167644)" style="fill: rgb(120, 186, 0); stroke-width: 0px; stroke: rgb(0, 0, 0);"/></g><g class="node"><circle r="2.558198337272875" x="46179.29728302632" y="33301.0750762964" transform="translate(154.44246582951945,111.37148854948629)" style="fill: rgb(120, 186, 0); stroke-width: 0px; stroke: rgb(0, 0, 0);"/></g><g class="node"><circle r="11.150928029706243" x="41703.622107213305" y="32722.21738157898" transform="translate(139.47365253248597,109.4355096373879)" style="fill: rgb(255, 46, 18); stroke-width: 0px; stroke: rgb(0, 0, 0);"/></g><g class="node"><circle r="4.430929495994842" x="39050.67655043946" y="37046.1265027163" transform="translate(130.60092491785772,123.89674415624182)" style="fill: rgb(120, 186, 0); stroke-width: 0px; stroke: rgb(0, 0, 0);"/></g><g class="node"><circle r="2.0887601957182964" x="38073.68853337972" y="39198.04081504637" transform="translate(127.3334064661529,131.09378199012164)" style="fill: rgb(120, 186, 0); stroke-width: 0px; stroke: rgb(0, 0, 0);"/></g><g class="node"><circle r="2.0887601957182964" x="37658.45050099619" y="40808.3686183283" transform="translate(125.94465050500396,136.47949370678361)" style="fill: rgb(120, 186, 0); stroke-width: 0px; stroke: rgb(0, 0, 0);"/></g><g class="node"><circle r="2.0887601957182964" x="37274.413719948505" y="42426.42115405237" transform="translate(124.66024655501172,141.89104064900457)" style="fill: rgb(120, 186, 0); stroke-width: 0px; stroke: rgb(0, 0, 0);"/></g><g class="node"><circle r="2.0887601957182964" x="36529.43294803711" y="43913.22373242073" transform="translate(122.16867206701374,146.86362452314626)" style="fill: rgb(120, 186, 0); stroke-width: 0px; stroke: rgb(0, 0, 0);"/></g><g class="node"><circle r="7.235677567623202" x="35561.57814809077" y="46965.37374705798" transform="translate(118.93169949194237,157.07148410387285)" style="fill: rgb(244, 179, 0); stroke-width: 0px; stroke: rgb(0, 0, 0);"/></g><g class="node"><circle r="2.0887601957182964" x="38687.73295151879" y="47657.846685614626" transform="translate(129.3870667274876,159.387447109079)" style="fill: rgb(120, 186, 0); stroke-width: 0px; stroke: rgb(0, 0, 0);"/></g><g class="node"><circle r="2.0887601957182964" x="40276.611404087256" y="48148.80851765879" transform="translate(134.70104148524166,161.02945992528024)" style="fill: rgb(120, 186, 0); stroke-width: 0px; stroke: rgb(0, 0, 0);"/></g><g class="node"><circle r="2.0887601957182964" x="41016.699552054626" y="49638.05255098535" transform="translate(137.17625268245695,166.0102092006199)" style="fill: rgb(120, 186, 0); stroke-width: 0px; stroke: rgb(0, 0, 0);"/></g><g class="node"><circle r="3.617838783811601" x="42597.608278459316" y="51050.83849022355" transform="translate(142.46357283765659,170.73524578670083)" style="fill: rgb(120, 186, 0); stroke-width: 0px; stroke: rgb(0, 0, 0);"/></g><g class="node"><circle r="10.125640727756572" x="46346.11312555963" y="53582.294955234305" transform="translate(155.00037834635327,179.2016553686766)" style="fill: rgb(244, 179, 0); stroke-width: 0px; stroke: rgb(0, 0, 0);"/></g><g class="node"><circle r="2.953952997329895" x="49652.79289109395" y="50794.98524013297" transform="translate(166.05950799696973,169.87954929810357)" style="fill: rgb(120, 186, 0); stroke-width: 0px; stroke: rgb(0, 0, 0);"/></g><g class="node"><circle r="2.953952997329895" x="51144.73448723517" y="49204.953024210314" transform="translate(171.0492792215223,164.5617158000345)" style="fill: rgb(120, 186, 0); stroke-width: 0px; stroke: rgb(0, 0, 0);"/></g><g class="node"><circle r="5.720305382069084" x="53983.89306013479" y="48212.783728650924" transform="translate(180.54479284326015,161.24342384164189)" style="fill: rgb(120, 186, 0); stroke-width: 0px; stroke: rgb(0, 0, 0);"/></g><g class="node"><circle r="2.558198337272875" x="54512.63282458905" y="45372.38016550003" transform="translate(182.31315325949515,151.74374637290978)" style="fill: rgb(120, 186, 0); stroke-width: 0px; stroke: rgb(0, 0, 0);"/></g><g class="node"><circle r="2.0887601957182964" x="56438.37954674201" y="46975.20996827854" transform="translate(188.75377774830105,157.10438116481117)" style="fill: rgb(120, 186, 0); stroke-width: 0px; stroke: rgb(0, 0, 0);"/></g><g class="node"><circle r="4.430929495994842" x="58412.35848568314" y="48274.68984180726" transform="translate(195.35571399894025,161.45046769835204)" style="fill: rgb(120, 186, 0); stroke-width: 0px; stroke: rgb(0, 0, 0);"/></g><g class="node"><circle r="9.223715277844072" x="62909.00597361786" y="48286.49105119274" transform="translate(210.3946688080865,161.48993662606267)" style="fill: rgb(244, 179, 0); stroke-width: 0px; stroke: rgb(0, 0, 0);"/></g><g class="node"><circle r="3.9077125077543733" x="63817.17802068401" y="44042.34889053819" transform="translate(213.43203351399336,147.29548123925815)" style="fill: rgb(120, 186, 0); stroke-width: 0px; stroke: rgb(0, 0, 0);"/></g><g class="node"><circle r="4.898576870244484" x="63881.48366447488" y="40996.02282637463" transform="translate(213.64710255677218,137.1070997537613)" style="fill: rgb(244, 179, 0); stroke-width: 0px; stroke: rgb(0, 0, 0);"/></g><g class="node"><circle r="2.558198337272875" x="61860.4285808371" y="39292.07785711826" transform="translate(206.88772100614415,131.4082871475527)" style="fill: rgb(120, 186, 0); stroke-width: 0px; stroke: rgb(0, 0, 0);"/></g><g class="node"><circle r="3.30261985218445" x="60904.69388973802" y="37347.993207343" transform="translate(203.69128391216728,124.90633179713379)" style="fill: rgb(120, 186, 0); stroke-width: 0px; stroke: rgb(0, 0, 0);"/></g><g class="node"><circle r="2.0887601957182964" x="61261.52485327462" y="35353.71835576029" transform="translate(204.88469850593518,118.23651624000098)" style="fill: rgb(120, 186, 0); stroke-width: 0px; stroke: rgb(0, 0, 0);"/></g><g class="node"><circle r="2.0887601957182964" x="61042.206872417395" y="33705.24091253177" transform="translate(204.15119355323543,112.72321375428686)" style="fill: rgb(120, 186, 0); stroke-width: 0px; stroke: rgb(0, 0, 0);"/></g><g class="node"><circle r="7.235677567623202" x="60384.93962120745" y="30571.495168838403" transform="translate(201.95297532176406,102.24245875865687)" style="fill: rgb(244, 179, 0); stroke-width: 0px; stroke: rgb(0, 0, 0);"/></g><g class="node"><circle r="2.0887601957182964" x="57265.74518533136" y="31294.67474323814" transform="translate(191.52088690746274,104.66111954260248)" style="fill: rgb(120, 186, 0); stroke-width: 0px; stroke: rgb(0, 0, 0);"/></g><g class="node"><circle r="6.6052397043689" x="54277.56106270759" y="30905.42295164679" transform="translate(181.5269600759451,103.35927408577521)" style="fill: rgb(244, 179, 0); stroke-width: 0px; stroke: rgb(0, 0, 0);"/></g><g class="node"><circle r="2.0887601957182964" x="51266.975850183895" y="31036.335082832436" transform="translate(171.45811321131737,103.79710730044293)" style="fill: rgb(120, 186, 0); stroke-width: 0px; stroke: rgb(0, 0, 0);"/></g><g class="node"><circle r="4.177520391436593" x="48982.66023752149" y="30914.88155982188" transform="translate(163.8182616639515,103.39090822682903)" style="fill: rgb(120, 186, 0); stroke-width: 0px; stroke: rgb(0, 0, 0);"/></g><g class="node"><circle r="2.0887601957182964" x="46802.96616216137" y="31608.98710968072" transform="translate(156.52831492361662,105.71233147050407)" style="fill: rgb(120, 186, 0); stroke-width: 0px; stroke: rgb(0, 0, 0);"/></g><g class="node"><circle r="2.558198337272875" x="45530.853163434025" y="30330.764485864318" transform="translate(152.2737563994449,101.43733941760641)" style="fill: rgb(120, 186, 0); stroke-width: 0px; stroke: rgb(0, 0, 0);"/></g><g class="node"><circle r="2.0887601957182964" x="44189.72266870643" y="29125.155281487176" transform="translate(147.78837012945294,97.40520161032501)" style="fill: rgb(120, 186, 0); stroke-width: 0px; stroke: rgb(0, 0, 0);"/></g><g class="node"><circle r="4.430929495994842" x="42314.91874122424" y="27686.28383949291" transform="translate(141.5181228803486,92.59292254011007)" style="fill: rgb(244, 179, 0); stroke-width: 0px; stroke: rgb(0, 0, 0);"/></g><g class="node"><circle r="6.927633846226899" x="38508.668361173186" y="27858.283578218317" transform="translate(128.78818849890698,93.1681725024024)" style="fill: rgb(244, 179, 0); stroke-width: 0px; stroke: rgb(0, 0, 0);"/></g><g class="node"><circle r="2.0887601957182964" x="37741.74522695757" y="30872.059728980592" transform="translate(126.2232281838046,103.24769140127289)" style="fill: rgb(120, 186, 0); stroke-width: 0px; stroke: rgb(0, 0, 0);"/></g><g class="node"><circle r="3.617838783811601" x="36874.577502008266" y="32806.80949268077" transform="translate(123.32300167895741,109.71842639692565)" style="fill: rgb(120, 186, 0); stroke-width: 0px; stroke: rgb(0, 0, 0);"/></g><g class="node"><circle r="2.0887601957182964" x="37808.975817081795" y="34710.00057612967" transform="translate(126.44807965579196,116.08361396698886)" style="fill: rgb(120, 186, 0); stroke-width: 0px; stroke: rgb(0, 0, 0);"/></g><g class="node"><circle r="5.11639667454575" x="35852.09767117314" y="36373.31613067089" transform="translate(119.90333669288677,121.64654224304647)" style="fill: rgb(120, 186, 0); stroke-width: 0px; stroke: rgb(0, 0, 0);"/></g><g class="node"><circle r="8.984097304210202" x="33940.14405736636" y="40590.07709659972" transform="translate(113.50884300122527,135.74942172775826)" style="fill: rgb(244, 179, 0); stroke-width: 0px; stroke: rgb(0, 0, 0);"/></g><g class="node"><circle r="12.619292736339283" x="29339.117125219702" y="45696.2815381649" transform="translate(98.12079306093545,152.82702855573544)" style="fill: rgb(255, 46, 18); stroke-width: 0px; stroke: rgb(0, 0, 0);"/></g><g class="node"><circle r="12.532561174309775" x="32987.04789224057" y="52742.28536688483" transform="translate(110.32123040883133,176.39225875212318)" style="fill: rgb(255, 46, 18); stroke-width: 0px; stroke: rgb(0, 0, 0);"/></g><g class="node"><circle r="7.815425015508747" x="39464.522015671864" y="53258.00800086721" transform="translate(131.9850234637855,178.1170836149405)" style="fill: rgb(244, 179, 0); stroke-width: 0px; stroke: rgb(0, 0, 0);"/></g><g class="node"><circle r="8.355040782873186" x="42138.57866378656" y="57774.677525837644" transform="translate(140.9283567350721,193.22300175865433)" style="fill: rgb(255, 46, 18); stroke-width: 0px; stroke: rgb(0, 0, 0);"/></g><g class="node"><circle r="10.650628997183476" x="47795.5630998429" y="60047.8461987452" transform="translate(159.8480371232204,200.82557257105418)" style="fill: rgb(255, 46, 18); stroke-width: 0px; stroke: rgb(0, 0, 0);"/></g><g class="node"><circle r="13.933768420896138" x="53796.63690704706" y="55120.67228566874" transform="translate(179.91851808376944,184.3467300524038)" style="fill: rgb(255, 46, 18); stroke-width: 0px; stroke: rgb(0, 0, 0);"/></g><g class="node"><circle r="3.617838783811601" x="57677.009501280365" y="50997.65062272601" transform="translate(192.89635284709152,170.55735994222746)" style="fill: rgb(120, 186, 0); stroke-width: 0px; stroke: rgb(0, 0, 0);"/></g><g class="node"><circle r="5.526340026321213" x="60470.51417751035" y="52449.01118752784" transform="translate(202.23917785120517,175.41140865393925)" style="fill: rgb(120, 186, 0); stroke-width: 0px; stroke: rgb(0, 0, 0);"/></g><g class="node"><circle r="2.0887601957182964" x="63135.38658289906" y="52076.089736128284" transform="translate(211.15179459163565,174.16417971949258)" style="fill: rgb(120, 186, 0); stroke-width: 0px; stroke: rgb(0, 0, 0);"/></g><g class="node"><circle r="2.0887601957182964" x="64733.40235131891" y="51615.73784741482" transform="translate(216.49632893417694,172.62454129570173)" style="fill: rgb(120, 186, 0); stroke-width: 0px; stroke: rgb(0, 0, 0);"/></g><g class="node"><circle r="3.9077125077543733" x="66639.88425068663" y="50504.16244899138" transform="translate(222.87252257754727,168.90689782271366)" style="fill: rgb(120, 186, 0); stroke-width: 0px; stroke: rgb(0, 0, 0);"/></g><g class="node"><circle r="2.0887601957182964" x="66705.34207214278" y="48298.263908122564" transform="translate(223.09144505733371,161.5293107295069)" style="fill: rgb(120, 186, 0); stroke-width: 0px; stroke: rgb(0, 0, 0);"/></g><g class="node"><circle r="6.266280587154889" x="67051.98535688723" y="45406.88769611177" transform="translate(224.25078714678006,151.85915617428685)" style="fill: rgb(244, 179, 0); stroke-width: 0px; stroke: rgb(0, 0, 0);"/></g><g class="node"><circle r="4.177520391436593" x="66883.31802764178" y="41874.29131967529" transform="translate(223.68668236669492,140.04445257416486)" style="fill: rgb(120, 186, 0); stroke-width: 0px; stroke: rgb(0, 0, 0);"/></g><g class="node"><circle r="6.089730110550521" x="66525.78414138062" y="38408.85404182549" transform="translate(222.49091686080476,128.45436134389797)" style="fill: rgb(244, 179, 0); stroke-width: 0px; stroke: rgb(0, 0, 0);"/></g><g class="node"><circle r="2.0887601957182964" x="63668.00908511228" y="38502.00432279873" transform="translate(212.93314075288387,128.76590074514627)" style="fill: rgb(120, 186, 0); stroke-width: 0px; stroke: rgb(0, 0, 0);"/></g><g class="node"><circle r="7.815425015508747" x="64475.51737219034" y="34322.826884891816" transform="translate(215.6338373651851,114.78871867856795)" style="fill: rgb(244, 179, 0); stroke-width: 0px; stroke: rgb(0, 0, 0);"/></g><g class="node"><circle r="7.674595011818625" x="65092.28546621776" y="29315.22629450358" transform="translate(217.6966069104273,98.04089061706883)" style="fill: rgb(244, 179, 0); stroke-width: 0px; stroke: rgb(0, 0, 0);"/></g><g class="node"><circle r="4.670609786321876" x="61802.90643047262" y="26859.17999296992" transform="translate(206.6953392323499,89.82668893969873)" style="fill: rgb(120, 186, 0); stroke-width: 0px; stroke: rgb(0, 0, 0);"/></g><g class="node"><circle r="12.44522518921246" x="56519.32673409596" y="25221.520432178124" transform="translate(189.02450412741123,84.34956666280308)" style="fill: rgb(255, 46, 18); stroke-width: 0px; stroke: rgb(0, 0, 0);"/></g><g class="node"><circle r="2.0887601957182964" x="52849.20963397952" y="28252.01504783547" transform="translate(176.749864996587,94.48500015998485)" style="fill: rgb(120, 186, 0); stroke-width: 0px; stroke: rgb(0, 0, 0);"/></g><g class="node"><circle r="7.083330451489401" x="49860.39776618152" y="27237.257027222862" transform="translate(166.75383868288134,91.09116062616341)" style="fill: rgb(244, 179, 0); stroke-width: 0px; stroke: rgb(0, 0, 0);"/></g><g class="node"><circle r="9.457264016720229" x="45377.823900639174" y="24299.326523178835" transform="translate(151.76195284494707,81.26530609758808)" style="fill: rgb(244, 179, 0); stroke-width: 0px; stroke: rgb(0, 0, 0);"/></g><g class="node"><circle r="2.0887601957182964" x="41674.988247383284" y="25411.260816281538" transform="translate(139.37788711499425,84.98414988722922)" style="fill: rgb(120, 186, 0); stroke-width: 0px; stroke: rgb(0, 0, 0);"/></g><g class="node"><circle r="13.292788487984527" x="38667.77363696858" y="21400.412788365004" transform="translate(129.320313167119,71.56994243600336)" style="fill: rgb(255, 46, 18); stroke-width: 0px; stroke: rgb(0, 0, 0);"/></g><g class="node"><circle r="2.0887601957182964" x="36206.484984968614" y="25767.597211728622" transform="translate(121.08857854504552,86.17591040711913)" style="fill: rgb(120, 186, 0); stroke-width: 0px; stroke: rgb(0, 0, 0);"/></g><g class="node"><circle r="16.904768696043206" x="31060.44542674704" y="29029.927020257714" transform="translate(103.87774390216401,97.08671244233349)" style="fill: rgb(255, 46, 18); stroke-width: 0px; stroke: rgb(0, 0, 0);"/></g><g class="node"><circle r="5.11639667454575" x="32411.44532111374" y="35896.53747876615" transform="translate(108.39613819770481,120.05196481192692)" style="fill: rgb(120, 186, 0); stroke-width: 0px; stroke: rgb(0, 0, 0);"/></g><g class="node"><circle r="5.325314498591738" x="29834.536670722413" y="38317.861145055576" transform="translate(99.77771461780071,128.15003727443337)" style="fill: rgb(120, 186, 0); stroke-width: 0px; stroke: rgb(0, 0, 0);"/></g><g class="node"><circle r="8.484584024045182" x="25645.98970394352" y="40077.31706275233" transform="translate(85.76919633425926,134.03450522659642)" style="fill: rgb(255, 46, 18); stroke-width: 0px; stroke: rgb(0, 0, 0);"/></g><g class="node"><circle r="10.650628997183476" x="21999.374669979545" y="45011.35736989167" transform="translate(73.57315943136972,150.5363122738852)" style="fill: rgb(255, 46, 18); stroke-width: 0px; stroke: rgb(0, 0, 0);"/></g><g class="node"><circle r="4.177520391436593" x="24928.393634781492" y="48873.93425982398" transform="translate(83.36920948087456,163.45462963151834)" style="fill: rgb(120, 186, 0); stroke-width: 0px; stroke: rgb(0, 0, 0);"/></g><g class="node"><circle r="8.861858991989685" x="26181.095763512792" y="53000.68925386262" transform="translate(87.55884870740064,177.25648579887164)" style="fill: rgb(255, 46, 18); stroke-width: 0px; stroke: rgb(0, 0, 0);"/></g><g class="node"><circle r="2.953952997329895" x="28970.03847787876" y="55793.436828958766" transform="translate(96.88641631397579,186.59677869216978)" style="fill: rgb(120, 186, 0); stroke-width: 0px; stroke: rgb(0, 0, 0);"/></g><g class="node"><circle r="2.0887601957182964" x="30562.842039363688" y="56868.5601448257" transform="translate(102.21351852629996,190.1925088455709)" style="fill: rgb(120, 186, 0); stroke-width: 0px; stroke: rgb(0, 0, 0);"/></g><g class="node"><circle r="2.0887601957182964" x="32121.25423181462" y="57449.01659967896" transform="translate(107.42559943750709,192.13383478153497)" style="fill: rgb(120, 186, 0); stroke-width: 0px; stroke: rgb(0, 0, 0);"/></g><g class="node"><circle r="2.0887601957182964" x="33784.212935272924" y="57461.124785042724" transform="translate(112.98733423168201,192.17433038475826)" style="fill: rgb(120, 186, 0); stroke-width: 0px; stroke: rgb(0, 0, 0);"/></g><g class="node"><circle r="3.30261985218445" x="35772.51304417646" y="57072.37911351969" transform="translate(119.63716737182763,190.8741776371896)" style="fill: rgb(244, 179, 0); stroke-width: 0px; stroke: rgb(0, 0, 0);"/></g><g class="node"><circle r="2.0887601957182964" x="37487.326668531314" y="55993.54884238308" transform="translate(125.372329995088,187.2660496400772)" style="fill: rgb(120, 186, 0); stroke-width: 0px; stroke: rgb(0, 0, 0);"/></g><g class="node"><circle r="2.953952997329895" x="38343.75275605035" y="57713.853375428494" transform="translate(128.2366312911383,193.01957650644982)" style="fill: rgb(120, 186, 0); stroke-width: 0px; stroke: rgb(0, 0, 0);"/></g><g class="node"><circle r="5.325314498591738" x="38622.30992653778" y="60589.819943750445" transform="translate(129.1682606238722,202.6381937918075)" style="fill: rgb(244, 179, 0); stroke-width: 0px; stroke: rgb(0, 0, 0);"/></g><g class="node"><circle r="8.355040782873186" x="42305.794287993594" y="63182.33139494896" transform="translate(141.48760631435985,211.3088006520032)" style="fill: rgb(255, 46, 18); stroke-width: 0px; stroke: rgb(0, 0, 0);"/></g><g class="node"><circle r="2.0887601957182964" x="45793.867845125" y="63766.30800989823" transform="translate(153.15340416429765,213.2618996986563)" style="fill: rgb(120, 186, 0); stroke-width: 0px; stroke: rgb(0, 0, 0);"/></g><g class="node"><circle r="2.0887601957182964" x="47384.72618684665" y="64250.81600171588" transform="translate(158.4740006249052,214.88232776493606)" style="fill: rgb(120, 186, 0); stroke-width: 0px; stroke: rgb(0, 0, 0);"/></g><g class="node"><circle r="5.325314498591738" x="49965.02403720302" y="64763.472411956354" transform="translate(167.1037593217492,216.59689769885068)" style="fill: rgb(244, 179, 0); stroke-width: 0px; stroke: rgb(0, 0, 0);"/></g><g class="node"><circle r="8.484584024045182" x="53741.12111292186" y="62237.46732605918" transform="translate(179.73284653151123,208.14872015404407)" style="fill: rgb(255, 46, 18); stroke-width: 0px; stroke: rgb(0, 0, 0);"/></g><g class="node"><circle r="4.670609786321876" x="57399.63674441209" y="59889.16653644638" transform="translate(191.96868476392004,200.29487135935244)" style="fill: rgb(244, 179, 0); stroke-width: 0px; stroke: rgb(0, 0, 0);"/></g><g class="node"><circle r="7.384882493324737" x="60290.507900687146" y="57097.869734280306" transform="translate(201.63715016952222,190.95943054943245)" style="fill: rgb(244, 179, 0); stroke-width: 0px; stroke: rgb(0, 0, 0);"/></g><g class="node"><circle r="6.089730110550521" x="64078.04995182295" y="54775.52319890598" transform="translate(214.30451488903995,183.192385280622)" style="fill: rgb(244, 179, 0); stroke-width: 0px; stroke: rgb(0, 0, 0);"/></g><g class="node"><circle r="7.235677567623202" x="68372.38129487637" y="53825.22482297013" transform="translate(228.6668270731651,180.01412984270945)" style="fill: rgb(255, 46, 18); stroke-width: 0px; stroke: rgb(0, 0, 0);"/></g><g class="node"><circle r="7.083330451489401" x="70201.51168664395" y="49500.85257732741" transform="translate(234.78432002222058,165.55134641246624)" style="fill: rgb(244, 179, 0); stroke-width: 0px; stroke: rgb(0, 0, 0);"/></g><g class="node"><circle r="17.287566692058594" x="74049.13545540997" y="42830.136163973526" transform="translate(247.65262694117047,143.24125807349006)" style="fill: rgb(255, 46, 18); stroke-width: 0px; stroke: rgb(0, 0, 0);"/></g><g class="node"><circle r="2.0887601957182964" x="69363.61998609659" y="38758.486656894805" transform="translate(231.9820066424635,129.6237011936281)" style="fill: rgb(120, 186, 0); stroke-width: 0px; stroke: rgb(0, 0, 0);"/></g><g class="node"><circle r="8.484584024045182" x="70113.21090788212" y="35262.59328781284" transform="translate(234.48899969191345,117.93175012646434)" style="fill: rgb(244, 179, 0); stroke-width: 0px; stroke: rgb(0, 0, 0);"/></g><g class="node"><circle r="9.104694610426293" x="70515.54726883957" y="29603.759578854348" transform="translate(235.83460625029957,99.00588487911153)" style="fill: rgb(244, 179, 0); stroke-width: 0px; stroke: rgb(0, 0, 0);"/></g><g class="node"><circle r="6.437991299665044" x="67635.46726871998" y="25441.93836572949" transform="translate(226.2022316679598,85.08675038705515)" style="fill: rgb(244, 179, 0); stroke-width: 0px; stroke: rgb(0, 0, 0);"/></g><g class="node"><circle r="8.355040782873186" x="63516.48810083406" y="22906.001830145804" transform="translate(212.42638160814067,76.60535729145754)" style="fill: rgb(244, 179, 0); stroke-width: 0px; stroke: rgb(0, 0, 0);"/></g><g class="node"><circle r="2.0887601957182964" x="60081.38557313357" y="22064.719207626702" transform="translate(200.93774439175107,73.7917030355408)" style="fill: rgb(120, 186, 0); stroke-width: 0px; stroke: rgb(0, 0, 0);"/></g><g class="node"><circle r="3.30261985218445" x="58697.44840408249" y="20585.131956967725" transform="translate(196.30919198689796,68.84325069219975)" style="fill: rgb(120, 186, 0); stroke-width: 0px; stroke: rgb(0, 0, 0);"/></g><g class="node"><circle r="5.526340026321213" x="55853.56288599575" y="19472.519296747112" transform="translate(186.79786918393228,65.12213811621108)" style="fill: rgb(244, 179, 0); stroke-width: 0px; stroke: rgb(0, 0, 0);"/></g><g class="node"><circle r="8.089733452237907" x="51599.015863233144" y="20892.104500706268" transform="translate(172.56861492720114,69.86991471808116)" style="fill: rgb(244, 179, 0); stroke-width: 0px; stroke: rgb(0, 0, 0);"/></g><g class="node"><circle r="4.670609786321876" x="47436.59649023663" y="20143.130033151137" transform="translate(158.64747990045697,67.36498338846535)" style="fill: rgb(120, 186, 0); stroke-width: 0px; stroke: rgb(0, 0, 0);"/></g><g class="node"><circle r="5.526340026321213" x="44187.4000222264" y="18945.72011649276" transform="translate(147.78060208102474,63.360267948136325)" style="fill: rgb(120, 186, 0); stroke-width: 0px; stroke: rgb(0, 0, 0);"/></g><g class="node"><circle r="4.670609786321876" x="41738.35779393604" y="16497.606483449414" transform="translate(139.5898253977794,55.17259693461342)" style="fill: rgb(120, 186, 0); stroke-width: 0px; stroke: rgb(0, 0, 0);"/></g><g class="node"><circle r="7.235677567623202" x="38112.122566080485" y="14872.08136539665" transform="translate(127.46194838154008,49.73605807824967)" style="fill: rgb(120, 186, 0); stroke-width: 0px; stroke: rgb(0, 0, 0);"/></g><g class="node"><circle r="2.0887601957182964" x="35921.009991199695" y="17206.902195745017" transform="translate(120.13381267959764,57.54482339714052)" style="fill: rgb(120, 186, 0); stroke-width: 0px; stroke: rgb(0, 0, 0);"/></g><g class="node"><circle r="2.0887601957182964" x="34700.275803947494" y="18336.23221909259" transform="translate(116.05108964530933,61.3218468865973)" style="fill: rgb(120, 186, 0); stroke-width: 0px; stroke: rgb(0, 0, 0);"/></g><g class="node"><circle r="3.30261985218445" x="33488.44489889671" y="19959.785845480557" transform="translate(111.99814347457094,66.75179212535303)" style="fill: rgb(120, 186, 0); stroke-width: 0px; stroke: rgb(0, 0, 0);"/></g><g class="node"><circle r="3.9077125077543733" x="33224.02455527563" y="22515.95947518018" transform="translate(111.1137944992496,75.30086780996716)" style="fill: rgb(120, 186, 0); stroke-width: 0px; stroke: rgb(0, 0, 0);"/></g><g class="node"><circle r="2.953952997329895" x="30764.274549214795" y="22685.15384123694" transform="translate(102.8872058502167,75.86673525497305)" style="fill: rgb(120, 186, 0); stroke-width: 0px; stroke: rgb(0, 0, 0);"/></g><g class="node"><circle r="2.953952997329895" x="28636.03020145363" y="23159.145581872777" transform="translate(95.76933177743689,77.45199191261798)" style="fill: rgb(120, 186, 0); stroke-width: 0px; stroke: rgb(0, 0, 0);"/></g><g class="node"><circle r="6.927633846226899" x="25390.26945441873" y="24060.23108599611" transform="translate(84.9139446636078,80.46565580600706)" style="fill: rgb(244, 179, 0); stroke-width: 0px; stroke: rgb(0, 0, 0);"/></g><g class="node"><circle r="6.6052397043689" x="23666.417189484164" y="28173.89047447776" transform="translate(79.14855247319119,94.22371396146409)" style="fill: rgb(244, 179, 0); stroke-width: 0px; stroke: rgb(0, 0, 0);"/></g><g class="node"><circle r="6.768356604802966" x="24430.702808604845" y="32519.82724861654" transform="translate(81.70469166757474,108.75861956059043)" style="fill: rgb(120, 186, 0); stroke-width: 0px; stroke: rgb(0, 0, 0);"/></g><g class="node"><circle r="2.953952997329895" x="27317.4114080729" y="34161.55056617062" transform="translate(91.35923547850469,114.24933299722616)" style="fill: rgb(120, 186, 0); stroke-width: 0px; stroke: rgb(0, 0, 0);"/></g><g class="node"><circle r="3.617838783811601" x="25872.19425712818" y="36051.117892436" transform="translate(86.52573330143204,120.5689561619933)" style="fill: rgb(120, 186, 0); stroke-width: 0px; stroke: rgb(0, 0, 0);"/></g><g class="node"><circle r="2.0887601957182964" x="23944.10569244796" y="36932.99713478215" transform="translate(80.0772765633711,123.51838506616103)" style="fill: rgb(120, 186, 0); stroke-width: 0px; stroke: rgb(0, 0, 0);"/></g><g class="node"><circle r="2.953952997329895" x="22386.495293885902" y="38058.502877144725" transform="translate(74.8678772370766,127.28261831820979)" style="fill: rgb(120, 186, 0); stroke-width: 0px; stroke: rgb(0, 0, 0);"/></g><g class="node"><circle r="3.617838783811601" x="21620.193922322003" y="40310.59068667031" transform="translate(72.30499639572577,134.8146845708037)" style="fill: rgb(120, 186, 0); stroke-width: 0px; stroke: rgb(0, 0, 0);"/></g><g class="node"><circle r="3.9077125077543733" x="19114.81850944469" y="41216.31203271321" transform="translate(63.925814412858486,137.8438529522181)" style="fill: rgb(120, 186, 0); stroke-width: 0px; stroke: rgb(0, 0, 0);"/></g><g class="node"><circle r="2.558198337272875" x="17994.640835785045" y="43279.00392202356" transform="translate(60.17940078857875,144.7424880335236)" style="fill: rgb(120, 186, 0); stroke-width: 0px; stroke: rgb(0, 0, 0);"/></g><g class="node"><circle r="7.083330451489401" x="16400.561387981757" y="46164.72980555903" transform="translate(54.8480313979323,154.39374516909373)" style="fill: rgb(244, 179, 0); stroke-width: 0px; stroke: rgb(0, 0, 0);"/></g><g class="node"><circle r="9.223715277844072" x="19141.436881421905" y="50688.98157735117" transform="translate(64.01483906830069,169.52502199783)" style="fill: rgb(244, 179, 0); stroke-width: 0px; stroke: rgb(0, 0, 0);"/></g><g class="node"><circle r="2.0887601957182964" x="22628.156700994074" y="49187.28544533034" transform="translate(75.67610936787315,164.50262690745933)" style="fill: rgb(120, 186, 0); stroke-width: 0px; stroke: rgb(0, 0, 0);"/></g><g class="node"><circle r="2.0887601957182964" x="23287.327925837188" y="50714.07015638144" transform="translate(77.88069540413775,169.60893028890112)" style="fill: rgb(120, 186, 0); stroke-width: 0px; stroke: rgb(0, 0, 0);"/></g><g class="node"><circle r="2.0887601957182964" x="22548.320492557337" y="52363.929467078044" transform="translate(75.40909863731551,175.1268544049433)" style="fill: rgb(120, 186, 0); stroke-width: 0px; stroke: rgb(0, 0, 0);"/></g><g class="node"><circle r="12.17946022110104" x="20991.32933137602" y="57246.52084497268" transform="translate(70.20177033905023,191.45659145475813)" style="fill: rgb(244, 179, 0); stroke-width: 0px; stroke: rgb(0, 0, 0);"/></g><g class="node"><circle r="11.440610764138166" x="27788.105332650528" y="60360.887175177" transform="translate(92.93346265100512,201.8725323584515)" style="fill: rgb(255, 46, 18); stroke-width: 0px; stroke: rgb(0, 0, 0);"/></g><g class="node"><circle r="15.975943495775216" x="34389.83838467807" y="65890.31785233333" transform="translate(115.01283740695007,220.3656115462653)" style="fill: rgb(255, 46, 18); stroke-width: 0px; stroke: rgb(0, 0, 0);"/></g><g class="node"><circle r="4.898576870244484" x="40889.10859117404" y="67323.46572445543" transform="translate(136.74952706078273,225.15874824232583)" style="fill: rgb(120, 186, 0); stroke-width: 0px; stroke: rgb(0, 0, 0);"/></g><g class="node"><circle r="16.17946690447581" x="46661.30017490172" y="70757.11436251487" transform="translate(156.0545156351228,236.64252295155472)" style="fill: rgb(255, 46, 18); stroke-width: 0px; stroke: rgb(0, 0, 0);"/></g><g class="node"><circle r="2.0887601957182964" x="51234.68545789212" y="67067.53696581071" transform="translate(171.35011858826795,224.30279921675825)" style="fill: rgb(120, 186, 0); stroke-width: 0px; stroke: rgb(0, 0, 0);"/></g><g class="node"><circle r="6.437991299665044" x="54198.00911254205" y="67091.7878227464" transform="translate(181.26090004194666,224.38390576169363)" style="fill: rgb(244, 179, 0); stroke-width: 0px; stroke: rgb(0, 0, 0);"/></g><g class="node"><circle r="6.437991299665044" x="57841.084714384364" y="64876.3065775933" transform="translate(193.4450993792119,216.9742694902786)" style="fill: rgb(244, 179, 0); stroke-width: 0px; stroke: rgb(0, 0, 0);"/></g><g class="node"><circle r="3.30261985218445" x="59338.73227483126" y="61906.160339414855" transform="translate(198.4539540964256,207.04067003148782)" style="fill: rgb(120, 186, 0); stroke-width: 0px; stroke: rgb(0, 0, 0);"/></g><g class="node"><circle r="7.235677567623202" x="62824.131384228785" y="61157.60998516586" transform="translate(210.11080730511298,204.53715714102293)" style="fill: rgb(244, 179, 0); stroke-width: 0px; stroke: rgb(0, 0, 0);"/></g><g class="node"><circle r="6.927633846226899" x="66512.23093274783" y="58327.620894457184" transform="translate(222.44558840383888,195.0723106838033)" style="fill: rgb(120, 186, 0); stroke-width: 0px; stroke: rgb(0, 0, 0);"/></g><g class="node"><circle r="7.235677567623202" x="71117.1484357837" y="57690.713268855" transform="translate(237.84665028690202,192.9421848456689)" style="fill: rgb(244, 179, 0); stroke-width: 0px; stroke: rgb(0, 0, 0);"/></g><g class="node"><circle r="2.0887601957182964" x="71499.85089572273" y="54511.7352172186" transform="translate(239.12659162449074,182.31015122815586)" style="fill: rgb(120, 186, 0); stroke-width: 0px; stroke: rgb(0, 0, 0);"/></g><g class="node"><circle r="2.0887601957182964" x="71422.35672902389" y="52850.53898808485" transform="translate(238.86741380944443,176.7543109969393)" style="fill: rgb(120, 186, 0); stroke-width: 0px; stroke: rgb(0, 0, 0);"/></g><g class="node"><circle r="2.0887601957182964" x="72540.85000940239" y="51619.868016903405" transform="translate(242.60819401137923,172.6383545715833)" style="fill: rgb(120, 186, 0); stroke-width: 0px; stroke: rgb(0, 0, 0);"/></g><g class="node"><circle r="2.0887601957182964" x="73293.16908761687" y="50136.76510000416" transform="translate(245.12431132982232,167.6781441471711)" style="fill: rgb(120, 186, 0); stroke-width: 0px; stroke: rgb(0, 0, 0);"/></g><g class="node"><circle r="2.0887601957182964" x="74524.80142802367" y="49019.33052222137" transform="translate(249.24348303686844,163.9409047565932)" style="fill: rgb(120, 186, 0); stroke-width: 0px; stroke: rgb(0, 0, 0);"/></g><g class="node"><circle r="2.0887601957182964" x="76150.90131849285" y="48670.93792216126" transform="translate(254.6819442090062,162.77571211425172)" style="fill: rgb(120, 186, 0); stroke-width: 0px; stroke: rgb(0, 0, 0);"/></g><g class="node"><circle r="2.0887601957182964" x="77626.15152796666" y="47903.33445877145" transform="translate(259.6158913978818,160.20847645074065)" style="fill: rgb(120, 186, 0); stroke-width: 0px; stroke: rgb(0, 0, 0);"/></g><g class="node"><circle r="2.0887601957182964" x="78844.6691760556" y="46771.61320384323" transform="translate(263.69120125771104,156.42345553124827)" style="fill: rgb(120, 186, 0); stroke-width: 0px; stroke: rgb(0, 0, 0);"/></g><g class="node"><circle r="2.0887601957182964" x="79718.99780448807" y="45357.000993001" transform="translate(266.61537727253534,151.69231101338127)" style="fill: rgb(120, 186, 0); stroke-width: 0px; stroke: rgb(0, 0, 0);"/></g><g class="node"><circle r="2.0887601957182964" x="80186.38437449753" y="43761.02854595333" transform="translate(268.1785430585202,146.35461052158306)" style="fill: rgb(120, 186, 0); stroke-width: 0px; stroke: rgb(0, 0, 0);"/></g><g class="node"><circle r="2.0887601957182964" x="80213.28322991655" y="42098.24331955225" transform="translate(268.26850578567405,140.79345591823497)" style="fill: rgb(120, 186, 0); stroke-width: 0px; stroke: rgb(0, 0, 0);"/></g><g class="node"><circle r="2.0887601957182964" x="79797.76376380627" y="40487.98811280893" transform="translate(266.87880857460294,135.407986999361)" style="fill: rgb(120, 186, 0); stroke-width: 0px; stroke: rgb(0, 0, 0);"/></g><g class="node"><circle r="2.558198337272875" x="79007.70502766981" y="38866.89843267966" transform="translate(264.23647166444755,129.98628238354402)" style="fill: rgb(120, 186, 0); stroke-width: 0px; stroke: rgb(0, 0, 0);"/></g><g class="node"><circle r="4.430929495994842" x="77516.57944869634" y="36855.6985310923" transform="translate(259.24942959430217,123.25986130800099)" style="fill: rgb(120, 186, 0); stroke-width: 0px; stroke: rgb(0, 0, 0);"/></g><g class="node"><circle r="2.558198337272875" x="75030.5889841149" y="36558.65990326064" transform="translate(250.93508021443114,122.26642108113927)" style="fill: rgb(120, 186, 0); stroke-width: 0px; stroke: rgb(0, 0, 0);"/></g><g class="node"><circle r="5.325314498591738" x="74432.0741578503" y="33852.97240001886" transform="translate(248.93335838745918,113.2172989967186)" style="fill: rgb(244, 179, 0); stroke-width: 0px; stroke: rgb(0, 0, 0);"/></g><g class="node"><circle r="7.9537618615752175" x="76027.468396592" y="29769.17513024665" transform="translate(254.26912507221402,99.55911414798211)" style="fill: rgb(244, 179, 0); stroke-width: 0px; stroke: rgb(0, 0, 0);"/></g><g class="node"><circle r="2.558198337272875" x="73579.28472117065" y="27188.739561467686" transform="translate(246.0812198032463,90.92889485440698)" style="fill: rgb(120, 186, 0); stroke-width: 0px; stroke: rgb(0, 0, 0);"/></g><g class="node"><circle r="8.484584024045182" x="72203.48127087559" y="23737.115147661167" transform="translate(241.47987047115583,79.38500049385006)" style="fill: rgb(244, 179, 0); stroke-width: 0px; stroke: rgb(0, 0, 0);"/></g><g class="node"><circle r="7.235677567623202" x="68087.99553921483" y="20700.890241210953" transform="translate(227.71570414453117,69.23040214451824)" style="fill: rgb(244, 179, 0); stroke-width: 0px; stroke: rgb(0, 0, 0);"/></g><g class="node"><circle r="3.30261985218445" x="64837.545610279885" y="19237.022130989888" transform="translate(216.84463414809326,64.3345221772237)" style="fill: rgb(120, 186, 0); stroke-width: 0px; stroke: rgb(0, 0, 0);"/></g><g class="node"><circle r="2.0887601957182964" x="62821.62360315385" y="19438.31540305489" transform="translate(210.1024200774376,65.00774382292606)" style="fill: rgb(120, 186, 0); stroke-width: 0px; stroke: rgb(0, 0, 0);"/></g><g class="node"><circle r="2.0887601957182964" x="61313.56431025183" y="20139.268630205177" transform="translate(205.05874351254792,67.35206899734173)" style="fill: rgb(120, 186, 0); stroke-width: 0px; stroke: rgb(0, 0, 0);"/></g><g class="node"><circle r="2.0887601957182964" x="60040.95319201318" y="19068.736426441126" transform="translate(200.80251903683336,63.771693733916806)" style="fill: rgb(120, 186, 0); stroke-width: 0px; stroke: rgb(0, 0, 0);"/></g><g class="node"><circle r="2.0887601957182964" x="58453.26000752938" y="18573.955050978962" transform="translate(195.49250838638588,62.11690652501325)" style="fill: rgb(120, 186, 0); stroke-width: 0px; stroke: rgb(0, 0, 0);"/></g><g class="node"><circle r="2.0887601957182964" x="57410.92094802075" y="17278.15122995387" transform="translate(192.00642457532024,57.783114481451065)" style="fill: rgb(120, 186, 0); stroke-width: 0px; stroke: rgb(0, 0, 0);"/></g><g class="node"><circle r="2.0887601957182964" x="55823.703509648745" y="16781.845819054146" transform="translate(186.69800504899246,56.123230164060686)" style="fill: rgb(120, 186, 0); stroke-width: 0px; stroke: rgb(0, 0, 0);"/></g><g class="node"><circle r="2.0887601957182964" x="54247.890964102065" y="17313.25251722253" transform="translate(181.42772897692998,57.90051009104525)" style="fill: rgb(120, 186, 0); stroke-width: 0px; stroke: rgb(0, 0, 0);"/></g><g class="node"><circle r="2.0887601957182964" x="52607.25647923357" y="17585.092073985" transform="translate(175.9406571211825,58.809672488244146)" style="fill: rgb(120, 186, 0); stroke-width: 0px; stroke: rgb(0, 0, 0);"/></g><g class="node"><circle r="2.0887601957182964" x="50946.592352243715" y="17496.927937911627" transform="translate(170.3865964957984,58.51480915689507)" style="fill: rgb(120, 186, 0); stroke-width: 0px; stroke: rgb(0, 0, 0);"/></g><g class="node"><circle r="2.0887601957182964" x="49436.88165462507" y="18194.317260353804" transform="translate(165.33739683821094,60.84721491757125)" style="fill: rgb(120, 186, 0); stroke-width: 0px; stroke: rgb(0, 0, 0);"/></g><g class="node"><circle r="2.0887601957182964" x="47836.781279762305" y="17741.26423042842" transform="translate(159.98589056776692,59.33198739273719)" style="fill: rgb(120, 186, 0); stroke-width: 0px; stroke: rgb(0, 0, 0);"/></g><g class="node"><circle r="2.0887601957182964" x="46256.00216239999" y="17224.81903520267" transform="translate(154.6990038876254,57.60474593713268)" style="fill: rgb(120, 186, 0); stroke-width: 0px; stroke: rgb(0, 0, 0);"/></g><g class="node"><circle r="2.0887601957182964" x="44849.44182527034" y="16337.59512007512" transform="translate(149.99478871327872,54.63744187316094)" style="fill: rgb(120, 186, 0); stroke-width: 0px; stroke: rgb(0, 0, 0);"/></g><g class="node"><circle r="2.0887601957182964" x="43734.74023395409" y="15103.488714663677" transform="translate(146.26668974566587,50.50999570121631)" style="fill: rgb(120, 186, 0); stroke-width: 0px; stroke: rgb(0, 0, 0);"/></g><g class="node"><circle r="2.0887601957182964" x="42374.2441053984" y="14147.126575228254" transform="translate(141.71653546955986,47.311460117820246)" style="fill: rgb(120, 186, 0); stroke-width: 0px; stroke: rgb(0, 0, 0);"/></g><g class="node"><circle r="2.0887601957182964" x="40921.99851850687" y="13336.842049327252" transform="translate(136.85952681774873,44.60147842584365)" style="fill: rgb(120, 186, 0); stroke-width: 0px; stroke: rgb(0, 0, 0);"/></g><g class="node"><circle r="2.0887601957182964" x="39773.006614130565" y="12134.595876017367" transform="translate(133.01674452886476,40.58058821410491)" style="fill: rgb(120, 186, 0); stroke-width: 0px; stroke: rgb(0, 0, 0);"/></g><g class="node"><circle r="2.0887601957182964" x="38175.99068062619" y="11670.78733179498" transform="translate(127.67555411580666,39.02938906954843)" style="fill: rgb(120, 186, 0); stroke-width: 0px; stroke: rgb(0, 0, 0);"/></g><g class="node"><circle r="2.0887601957182964" x="36561.74630179767" y="12070.528927055038" transform="translate(122.27674348427315,40.36631748178942)" style="fill: rgb(120, 186, 0); stroke-width: 0px; stroke: rgb(0, 0, 0);"/></g><g class="node"><circle r="2.0887601957182964" x="35365.71644035463" y="13225.990232377326" transform="translate(118.27664361322618,44.23073656313487)" style="fill: rgb(120, 186, 0); stroke-width: 0px; stroke: rgb(0, 0, 0);"/></g><g class="node"><circle r="2.0887601957182964" x="34910.5305526461" y="14825.485173035644" transform="translate(116.75428278476957,49.58021797001888)" style="fill: rgb(120, 186, 0); stroke-width: 0px; stroke: rgb(0, 0, 0);"/></g><g class="node"><circle r="2.0887601957182964" x="34453.56873778971" y="16424.47365245746" transform="translate(115.22598240063449,54.928005526613575)" style="fill: rgb(120, 186, 0); stroke-width: 0px; stroke: rgb(0, 0, 0);"/></g><g class="node"><circle r="2.0887601957182964" x="33232.83455053751" y="17553.803675805033" transform="translate(111.1432593663462,58.70502901607034)" style="fill: rgb(120, 186, 0); stroke-width: 0px; stroke: rgb(0, 0, 0);"/></g><g class="node"><circle r="2.0887601957182964" x="31962.543262121213" y="18627.08756189212" transform="translate(106.89479351880004,62.29460723040843)" style="fill: rgb(120, 186, 0); stroke-width: 0px; stroke: rgb(0, 0, 0);"/></g><g class="node"><circle r="2.0887601957182964" x="31479.053478592352" y="20218.25565068216" transform="translate(105.27777083141255,67.61623963438849)" style="fill: rgb(120, 186, 0); stroke-width: 0px; stroke: rgb(0, 0, 0);"/></g><g class="node"><circle r="2.0887601957182964" x="29977.05350321956" y="20932.10040379074" transform="translate(100.25435954254033,70.0036802802366)" style="fill: rgb(120, 186, 0); stroke-width: 0px; stroke: rgb(0, 0, 0);"/></g><g class="node"><circle r="2.0887601957182964" x="28346.5721504681" y="21259.375236141634" transform="translate(94.80124465039498,71.09824493692854)" style="fill: rgb(120, 186, 0); stroke-width: 0px; stroke: rgb(0, 0, 0);"/></g><g class="node"><circle r="2.0887601957182964" x="26683.791586973366" y="21232.189665986516" transform="translate(89.24010564205139,71.00732329761377)" style="fill: rgb(120, 186, 0); stroke-width: 0px; stroke: rgb(0, 0, 0);"/></g><g class="node"><circle r="2.0887601957182964" x="25041.584968145264" y="20970.014765132673" transform="translate(83.74777581319486,70.13048416432332)" style="fill: rgb(120, 186, 0); stroke-width: 0px; stroke: rgb(0, 0, 0);"/></g><g class="node"><circle r="2.0887601957182964" x="23499.090112427682" y="21591.53538236537" transform="translate(78.5889301418986,72.20914843600458)" style="fill: rgb(120, 186, 0); stroke-width: 0px; stroke: rgb(0, 0, 0);"/></g><g class="node"><circle r="2.0887601957182964" x="22497.407463652416" y="22919.018010765125" transform="translate(75.2388209486703,76.64888966811078)" style="fill: rgb(120, 186, 0); stroke-width: 0px; stroke: rgb(0, 0, 0);"/></g><g class="node"><circle r="2.0887601957182964" x="22322.983786497898" y="24572.84830387516" transform="translate(74.6554641688893,82.18009466178982)" style="fill: rgb(120, 186, 0); stroke-width: 0px; stroke: rgb(0, 0, 0);"/></g><g class="node"><circle r="2.0887601957182964" x="21539.14369299598" y="26039.536057072622" transform="translate(72.03392539463538,87.08540487315258)" style="fill: rgb(120, 186, 0); stroke-width: 0px; stroke: rgb(0, 0, 0);"/></g><g class="node"><circle r="2.0887601957182964" x="20730.933606354294" y="27492.937141911625" transform="translate(69.33088162660299,91.94627806659406)" style="fill: rgb(120, 186, 0); stroke-width: 0px; stroke: rgb(0, 0, 0);"/></g><g class="node"><circle r="2.0887601957182964" x="20816.735519104717" y="29153.724993905038" transform="translate(69.61784454550073,97.50075248797671)" style="fill: rgb(120, 186, 0); stroke-width: 0px; stroke: rgb(0, 0, 0);"/></g><g class="node"><circle r="2.0887601957182964" x="21770.4181525678" y="30516.100746842327" transform="translate(72.80741857046087,102.05719313325193)" style="fill: rgb(120, 186, 0); stroke-width: 0px; stroke: rgb(0, 0, 0);"/></g><g class="node"><circle r="2.0887601957182964" x="21392.69667142982" y="32135.639181164734" transform="translate(71.5441360248489,107.47370963600245)" style="fill: rgb(120, 186, 0); stroke-width: 0px; stroke: rgb(0, 0, 0);"/></g><g class="node"><circle r="2.0887601957182964" x="21639.892041748823" y="33780.16729173426" transform="translate(72.37087639380877,112.97380365128515)" style="fill: rgb(120, 186, 0); stroke-width: 0px; stroke: rgb(0, 0, 0);"/></g><g class="node"><circle r="2.0887601957182964" x="22710.17990232875" y="35052.983913662094" transform="translate(75.950434455949,117.23071543030801)" style="fill: rgb(120, 186, 0); stroke-width: 0px; stroke: rgb(0, 0, 0);"/></g><g class="node"><circle r="2.0887601957182964" x="21610.467587511164" y="36300.465810203714" transform="translate(72.27246684786343,121.40289568630006)" style="fill: rgb(120, 186, 0); stroke-width: 0px; stroke: rgb(0, 0, 0);"/></g><g class="node"><circle r="2.0887601957182964" x="20529.46245215184" y="37564.19289897222" transform="translate(68.65706505736402,125.62940768887032)" style="fill: rgb(120, 186, 0); stroke-width: 0px; stroke: rgb(0, 0, 0);"/></g><g class="node"><circle r="2.0887601957182964" x="19882.30240387584" y="39096.10742970686" transform="translate(66.49265018018676,130.7528676578825)" style="fill: rgb(120, 186, 0); stroke-width: 0px; stroke: rgb(0, 0, 0);"/></g><g class="node"><circle r="2.0887601957182964" x="18222.41928448676" y="39197.922396817434" transform="translate(60.94120162035706,131.09338594253322)" style="fill: rgb(120, 186, 0); stroke-width: 0px; stroke: rgb(0, 0, 0);"/></g><g class="node"><circle r="2.0887601957182964" x="17066.911407841166" y="40393.90726485321" transform="translate(57.07662678207748,135.0933353339572)" style="fill: rgb(120, 186, 0); stroke-width: 0px; stroke: rgb(0, 0, 0);"/></g><g class="node"><circle r="4.430929495994842" x="15685.487524248561" y="42311.43401745126" transform="translate(52.456480014209234,141.50646828579016)" style="fill: rgb(120, 186, 0); stroke-width: 0px; stroke: rgb(0, 0, 0);"/></g><g class="node"><circle r="3.617838783811601" x="13467.591108112" y="44053.90038170982" transform="translate(45.03876624786622,147.33411498899605)" style="fill: rgb(120, 186, 0); stroke-width: 0px; stroke: rgb(0, 0, 0);"/></g><g class="node"><circle r="2.0887601957182964" x="13244.183037672985" y="46162.29440214205" transform="translate(44.291582065795936,154.38560000716404)" style="fill: rgb(120, 186, 0); stroke-width: 0px; stroke: rgb(0, 0, 0);"/></g><g class="node"><circle r="2.0887601957182964" x="13681.038551082564" y="47766.89264405938" transform="translate(45.752637294590514,159.75214931123537)" style="fill: rgb(120, 186, 0); stroke-width: 0px; stroke: rgb(0, 0, 0);"/></g><g class="node"><circle r="4.898576870244484" x="14540.246159076965" y="50117.948147142524" transform="translate(48.62624133470557,167.6152111944566)" style="fill: rgb(120, 186, 0); stroke-width: 0px; stroke: rgb(0, 0, 0);"/></g><g class="node"><circle r="10.650628997183476" x="14058.935673400985" y="55158.15586821049" transform="translate(47.016507268899616,184.47209320471734)" style="fill: rgb(255, 46, 18); stroke-width: 0px; stroke: rgb(0, 0, 0);"/></g><g class="node"><circle r="2.0887601957182964" x="16510.249065626795" y="58596.877256584085" transform="translate(55.21487981814981,195.9728336340605)" style="fill: rgb(120, 186, 0); stroke-width: 0px; stroke: rgb(0, 0, 0);"/></g><g class="node"><circle r="2.0887601957182964" x="17265.336228292374" y="60078.57278345125" transform="translate(57.740254944121645,200.92833706839883)" style="fill: rgb(120, 186, 0); stroke-width: 0px; stroke: rgb(0, 0, 0);"/></g><g class="node"><circle r="2.0887601957182964" x="18490.873564893973" y="61202.688655661936" transform="translate(61.83904202305676,204.68792192529077)" style="fill: rgb(120, 186, 0); stroke-width: 0px; stroke: rgb(0, 0, 0);"/></g><g class="node"><circle r="13.374591035388804" x="21437.067549807656" y="65288.76339362771" transform="translate(71.69253361139684,218.3537237245074)" style="fill: rgb(255, 46, 18); stroke-width: 0px; stroke: rgb(0, 0, 0);"/></g><g class="node"><circle r="2.0887601957182964" x="26428.281327999062" y="64607.69747803952" transform="translate(88.38555628093332,216.07591129779104)" style="fill: rgb(120, 186, 0); stroke-width: 0px; stroke: rgb(0, 0, 0);"/></g><g class="node"><circle r="2.0887601957182964" x="28078.859146168154" y="64810.60416528442" transform="translate(93.90588343200051,216.75452898088434)" style="fill: rgb(120, 186, 0); stroke-width: 0px; stroke: rgb(0, 0, 0);"/></g><g class="node"><circle r="2.0887601957182964" x="28596.1703593967" y="66391.10008942612" transform="translate(95.63602126888529,222.04046852650876)" style="fill: rgb(120, 186, 0); stroke-width: 0px; stroke: rgb(0, 0, 0);"/></g><g class="node"><circle r="2.953952997329895" x="28814.468946371857" y="68300.35624215273" transform="translate(96.36611687749784,228.42594060920646)" style="fill: rgb(244, 179, 0); stroke-width: 0px; stroke: rgb(0, 0, 0);"/></g><g class="node"><circle r="2.0887601957182964" x="30055.651337248055" y="69767.45528529148" transform="translate(100.51722855266908,233.3326263722123)" style="fill: rgb(120, 186, 0); stroke-width: 0px; stroke: rgb(0, 0, 0);"/></g><g class="node"><circle r="2.953952997329895" x="31375.944037140674" y="71163.78637654815" transform="translate(104.93292320113937,238.00263002190016)" style="fill: rgb(120, 186, 0); stroke-width: 0px; stroke: rgb(0, 0, 0);"/></g><g class="node"><circle r="9.797153740488968" x="34500.75757390641" y="74009.6405064828" transform="translate(115.38380459500473,247.52053681097925)" style="fill: rgb(244, 179, 0); stroke-width: 0px; stroke: rgb(0, 0, 0);"/></g><g class="node"><circle r="3.9077125077543733" x="37980.91194315802" y="71138.44306970916" transform="translate(127.02311686674923,237.9178697983584)" style="fill: rgb(120, 186, 0); stroke-width: 0px; stroke: rgb(0, 0, 0);"/></g><g class="node"><circle r="2.0887601957182964" x="39132.32775912591" y="69255.7549070715" transform="translate(130.87400588336425,231.62125386980435)" style="fill: rgb(120, 186, 0); stroke-width: 0px; stroke: rgb(0, 0, 0);"/></g><g class="node"><circle r="2.0887601957182964" x="40696.964270514916" y="69819.2181665561" transform="translate(136.1069039147656,233.50574637644178)" style="fill: rgb(120, 186, 0); stroke-width: 0px; stroke: rgb(0, 0, 0);"/></g><g class="node"><circle r="2.953952997329895" x="40605.526613379145" y="71738.73698247253" transform="translate(135.80109235243862,239.9255417473998)" style="fill: rgb(120, 186, 0); stroke-width: 0px; stroke: rgb(0, 0, 0);"/></g><g class="node"><circle r="2.558198337272875" x="41384.78878301524" y="73647.88111999749" transform="translate(138.40732034453256,246.31063919731602)" style="fill: rgb(120, 186, 0); stroke-width: 0px; stroke: rgb(0, 0, 0);"/></g><g class="node"><circle r="2.558198337272875" x="42581.79507919828" y="75179.3019534029" transform="translate(142.41068588360628,251.43244800469196)" style="fill: rgb(120, 186, 0); stroke-width: 0px; stroke: rgb(0, 0, 0);"/></g><g class="node"><circle r="2.0887601957182964" x="44150.069679178785" y="76069.6048999459" transform="translate(147.65575143538055,254.410049832595)" style="fill: rgb(120, 186, 0); stroke-width: 0px; stroke: rgb(0, 0, 0);"/></g><g class="node"><circle r="6.089730110550521" x="46407.12208081694" y="77824.95948046073" transform="translate(155.20442167497305,260.28080093799576)" style="fill: rgb(244, 179, 0); stroke-width: 0px; stroke: rgb(0, 0, 0);"/></g><g class="node"><circle r="2.953952997329895" x="49159.62253615561" y="76360.18153824167" transform="translate(164.41010881657397,255.38187805431994)" style="fill: rgb(120, 186, 0); stroke-width: 0px; stroke: rgb(0, 0, 0);"/></g><g class="node"><circle r="6.437991299665044" x="52206.66093469132" y="75312.52439301953" transform="translate(174.6008726912753,251.87800800340978)" style="fill: rgb(244, 179, 0); stroke-width: 0px; stroke: rgb(0, 0, 0);"/></g><g class="node"><circle r="2.0887601957182964" x="52317.080822896845" y="72351.15939785959" transform="translate(174.97016997624362,241.97377725036654)" style="fill: rgb(120, 186, 0); stroke-width: 0px; stroke: rgb(0, 0, 0);"/></g><g class="node"><circle r="5.11639667454575" x="54470.045719584654" y="70950.89768462749" transform="translate(182.1707214701828,237.29062770778427)" style="fill: rgb(120, 186, 0); stroke-width: 0px; stroke: rgb(0, 0, 0);"/></g><g class="node"><circle r="2.953952997329895" x="56662.9758043987" y="69166.87040041006" transform="translate(189.50493580066455,231.32398127227447)" style="fill: rgb(120, 186, 0); stroke-width: 0px; stroke: rgb(0, 0, 0);"/></g><g class="node"><circle r="4.177520391436593" x="59041.31142981529" y="68257.56794740046" transform="translate(197.4592355512217,228.28283594448314)" style="fill: rgb(120, 186, 0); stroke-width: 0px; stroke: rgb(0, 0, 0);"/></g><g class="node"><circle r="2.0887601957182964" x="60380.83670667737" y="66403.24305430529" transform="translate(201.93925319958987,222.08108044918157)" style="fill: rgb(120, 186, 0); stroke-width: 0px; stroke: rgb(0, 0, 0);"/></g><g class="node"><circle r="2.0887601957182964" x="60803.3870085227" y="64794.81851458607" transform="translate(203.35246491144716,216.70173416249523)" style="fill: rgb(120, 186, 0); stroke-width: 0px; stroke: rgb(0, 0, 0);"/></g><g class="node"><circle r="6.437991299665044" x="63660.45596556884" y="65581.60448354662" transform="translate(212.90787948350783,219.33312536303217)" style="fill: rgb(244, 179, 0); stroke-width: 0px; stroke: rgb(0, 0, 0);"/></g><g class="node"><circle r="2.558198337272875" x="65537.23772201945" y="63109.52623471351" transform="translate(219.18474154521556,211.0653051328211)" style="fill: rgb(120, 186, 0); stroke-width: 0px; stroke: rgb(0, 0, 0);"/></g><g class="node"><circle r="4.670609786321876" x="67847.92365181074" y="61972.38270955832" transform="translate(226.91278813314625,207.26214953029537)" style="fill: rgb(120, 186, 0); stroke-width: 0px; stroke: rgb(0, 0, 0);"/></g><g class="node"><circle r="7.815425015508747" x="71957.16176600764" y="62532.59071153868" transform="translate(240.65605941808576,209.13575488808922)" style="fill: rgb(244, 179, 0); stroke-width: 0px; stroke: rgb(0, 0, 0);"/></g><g class="node"><circle r="5.720305382069084" x="75074.4556932263" y="59341.35907327418" transform="translate(251.08179161614143,198.46273937549893)" style="fill: rgb(120, 186, 0); stroke-width: 0px; stroke: rgb(0, 0, 0);"/></g><g class="node"><circle r="2.558198337272875" x="74265.169378162" y="56567.82093574567" transform="translate(248.37514842194648,189.18669209279489)" style="fill: rgb(120, 186, 0); stroke-width: 0px; stroke: rgb(0, 0, 0);"/></g><g class="node"><circle r="5.720305382069084" x="74360.50260829316" y="53680.19739461219" transform="translate(248.69398865649885,179.52908827629494)" style="fill: rgb(120, 186, 0); stroke-width: 0px; stroke: rgb(0, 0, 0);"/></g><g class="node"><circle r="6.089730110550521" x="77445.04041546151" y="51220.59657476009" transform="translate(259.01016861358363,171.30299857779295)" style="fill: rgb(120, 186, 0); stroke-width: 0px; stroke: rgb(0, 0, 0);"/></g><g class="node"><circle r="11.723137523263121" x="82765.78488867226" y="49067.23819276321" transform="translate(276.80530063101094,164.1011310794756)" style="fill: rgb(255, 46, 18); stroke-width: 0px; stroke: rgb(0, 0, 0);"/></g><g class="node"><circle r="2.953952997329895" x="82024.2381469275" y="44322.461392306934" transform="translate(274.32521119373746,148.23231234885262)" style="fill: rgb(120, 186, 0); stroke-width: 0px; stroke: rgb(0, 0, 0);"/></g><g class="node"><circle r="6.927633846226899" x="83177.39722988308" y="41157.474497842624" transform="translate(278.181930534726,137.6470718991392)" style="fill: rgb(244, 179, 0); stroke-width: 0px; stroke: rgb(0, 0, 0);"/></g><g class="node"><circle r="2.953952997329895" x="81045.21310072942" y="38549.657642287195" transform="translate(271.0508799355499,128.92527639560936)" style="fill: rgb(120, 186, 0); stroke-width: 0px; stroke: rgb(0, 0, 0);"/></g><g class="node"><circle r="6.768356604802966" x="80910.46496371234" y="35231.497771332506" transform="translate(270.6002172699409,117.82775174358697)" style="fill: rgb(244, 179, 0); stroke-width: 0px; stroke: rgb(0, 0, 0);"/></g><g class="node"><circle r="2.0887601957182964" x="77929.97323529518" y="34528.823723482135" transform="translate(260.63201750934843,115.47767131599377)" style="fill: rgb(120, 186, 0); stroke-width: 0px; stroke: rgb(0, 0, 0);"/></g><g class="node"><circle r="4.670609786321876" x="79815.3420501023" y="31557.04477972333" transform="translate(266.9375988297736,105.5386113034225)" style="fill: rgb(120, 186, 0); stroke-width: 0px; stroke: rgb(0, 0, 0);"/></g><g class="node"><circle r="4.670609786321876" x="79969.70315436667" y="28353.81305181208" transform="translate(267.45385670356745,94.82546171174609)" style="fill: rgb(244, 179, 0); stroke-width: 0px; stroke: rgb(0, 0, 0);"/></g><g class="node"><circle r="5.526340026321213" x="77769.10389386545" y="25680.15804584673" transform="translate(260.09399295607176,85.8834717252399)" style="fill: rgb(120, 186, 0); stroke-width: 0px; stroke: rgb(0, 0, 0);"/></g><g class="node"><circle r="2.0887601957182964" x="75152.22565766844" y="26306.707040606576" transform="translate(251.34189183166706,87.97895331306547)" style="fill: rgb(120, 186, 0); stroke-width: 0px; stroke: rgb(0, 0, 0);"/></g><g class="node"><circle r="8.089733452237907" x="76971.04305123728" y="21266.60036392373" transform="translate(257.4248931479508,71.12240924389208)" style="fill: rgb(244, 179, 0); stroke-width: 0px; stroke: rgb(0, 0, 0);"/></g><g class="node"><circle r="5.325314498591738" x="73022.8125690834" y="19268.523977839526" transform="translate(244.2201089267003,64.43987952454691)" style="fill: rgb(120, 186, 0); stroke-width: 0px; stroke: rgb(0, 0, 0);"/></g><g class="node"><circle r="6.266280587154889" x="70091.81084618147" y="16726.445457445327" transform="translate(234.41742757920224,55.937944673730186)" style="fill: rgb(244, 179, 0); stroke-width: 0px; stroke: rgb(0, 0, 0);"/></g><g class="node"><circle r="2.0887601957182964" x="67312.08344022364" y="17594.39333307336" transform="translate(225.12068040208572,58.84078037817177)" style="fill: rgb(120, 186, 0); stroke-width: 0px; stroke: rgb(0, 0, 0);"/></g><g class="node"><circle r="6.6052397043689" x="64847.34460699005" y="15860.66215670596" transform="translate(216.87740671234133,53.042348350187154)" style="fill: rgb(244, 179, 0); stroke-width: 0px; stroke: rgb(0, 0, 0);"/></g><g class="node"><circle r="5.11639667454575" x="61018.2112433716" y="16693.66644579449" transform="translate(204.07094061328294,55.828315872222376)" style="fill: rgb(120, 186, 0); stroke-width: 0px; stroke: rgb(0, 0, 0);"/></g><g class="node"><circle r="4.177520391436593" x="58228.06773872724" y="15141.537109682518" transform="translate(194.73935698570983,50.63724785846996)" style="fill: rgb(244, 179, 0); stroke-width: 0px; stroke: rgb(0, 0, 0);"/></g><g class="node"><circle r="5.11639667454575" x="55146.9790731589" y="14304.34006750256" transform="translate(184.43471261926055,47.837257750844685)" style="fill: rgb(255, 46, 18); stroke-width: 0px; stroke: rgb(0, 0, 0);"/></g><g class="node"><circle r="2.953952997329895" x="52668.67491419956" y="15664.378377036366" transform="translate(176.14606994715572,52.3858808596534)" style="fill: rgb(120, 186, 0); stroke-width: 0px; stroke: rgb(0, 0, 0);"/></g><g class="node"><circle r="2.0887601957182964" x="50755.48129854991" y="15844.942822144367" transform="translate(169.74742909214015,52.98977532489755)" style="fill: rgb(120, 186, 0); stroke-width: 0px; stroke: rgb(0, 0, 0);"/></g><g class="node"><circle r="2.0887601957182964" x="49245.77060093126" y="16542.33214458654" transform="translate(164.6982294345527,55.32218108557372)" style="fill: rgb(120, 186, 0); stroke-width: 0px; stroke: rgb(0, 0, 0);"/></g><g class="node"><circle r="3.9077125077543733" x="47397.65999028912" y="15336.197711851568" transform="translate(158.51725749260575,51.28828666171093)" style="fill: rgb(120, 186, 0); stroke-width: 0px; stroke: rgb(0, 0, 0);"/></g><g class="node"><circle r="5.526340026321213" x="45273.90618010114" y="12896.322310393845" transform="translate(151.4144019401376,43.128168262186776)" style="fill: rgb(120, 186, 0); stroke-width: 0px; stroke: rgb(0, 0, 0);"/></g><g class="node"><circle r="4.177520391436593" x="42271.63805712978" y="11489.865630341183" transform="translate(141.3733714285277,38.424299767027364)" style="fill: rgb(120, 186, 0); stroke-width: 0px; stroke: rgb(0, 0, 0);"/></g><g class="node"><circle r="2.0887601957182964" x="40196.838769516464" y="10526.508639073596" transform="translate(134.43424337630924,35.20237003034647)" style="fill: rgb(120, 186, 0); stroke-width: 0px; stroke: rgb(0, 0, 0);"/></g><g class="node"><circle r="10.547721955855536" x="37201.59482659911" y="7593.365990643537" transform="translate(124.41670510568264,25.392528396801126)" style="fill: rgb(244, 179, 0); stroke-width: 0px; stroke: rgb(0, 0, 0);"/></g><g class="node"><circle r="2.0887601957182964" x="35124.092217428406" y="11234.62881863485" transform="translate(117.46853584424215,37.570664945267055)" style="fill: rgb(120, 186, 0); stroke-width: 0px; stroke: rgb(0, 0, 0);"/></g><g class="node"><circle r="2.0887601957182964" x="33928.06235598536" y="12390.090123957138" transform="translate(113.4684359731952,41.4350840266125)" style="fill: rgb(120, 186, 0); stroke-width: 0px; stroke: rgb(0, 0, 0);"/></g><g class="node"><circle r="3.30261985218445" x="32988.49307467685" y="14184.991259344573" transform="translate(110.32606379490585,47.43809785733971)" style="fill: rgb(120, 186, 0); stroke-width: 0px; stroke: rgb(0, 0, 0);"/></g><g class="node"><circle r="2.0887601957182964" x="32389.649235457313" y="16120.410225982683" transform="translate(108.32324159015823,53.91107098990864)" style="fill: rgb(120, 186, 0); stroke-width: 0px; stroke: rgb(0, 0, 0);"/></g><g class="node"><circle r="5.11639667454575" x="29976.314037787874" y="16998.9339511054" transform="translate(100.25188641400626,56.84927742844614)" style="fill: rgb(120, 186, 0); stroke-width: 0px; stroke: rgb(0, 0, 0);"/></g><g class="node"><circle r="2.0887601957182964" x="29217.67939300512" y="19452.59737293999" transform="translate(97.71464679934823,65.05550960849494)" style="fill: rgb(120, 186, 0); stroke-width: 0px; stroke: rgb(0, 0, 0);"/></g><g class="node"><circle r="4.430929495994842" x="26924.491883837487" y="18881.16772645068" transform="translate(90.04512335731602,63.14437366705913)" style="fill: rgb(120, 186, 0); stroke-width: 0px; stroke: rgb(0, 0, 0);"/></g><g class="node"><circle r="3.617838783811601" x="24110.01190130484" y="19065.439187091943" transform="translate(80.63214682710648,63.76066617756503)" style="fill: rgb(244, 179, 0); stroke-width: 0px; stroke: rgb(0, 0, 0);"/></g><g class="node"><circle r="3.9077125077543733" x="21732.94954493395" y="20268.27403446394" transform="translate(72.68210550145133,67.78352519887605)" style="fill: rgb(120, 186, 0); stroke-width: 0px; stroke: rgb(0, 0, 0);"/></g><g class="node"><circle r="11.248317896525547" x="17964.526074137953" y="23471.041454961734" transform="translate(60.07868252220051,78.49512192294894)" style="fill: rgb(255, 46, 18); stroke-width: 0px; stroke: rgb(0, 0, 0);"/></g><g class="node"><circle r="2.0887601957182964" x="19084.607042124575" y="27727.85649290702" transform="translate(63.8247727161357,92.7319615147392)" style="fill: rgb(120, 186, 0); stroke-width: 0px; stroke: rgb(0, 0, 0);"/></g><g class="node"><circle r="2.0887601957182964" x="19170.408954874998" y="29388.644344900433" transform="translate(64.11173563503344,98.28643593612185)" style="fill: rgb(120, 186, 0); stroke-width: 0px; stroke: rgb(0, 0, 0);"/></g><g class="node"><circle r="4.670609786321876" x="18978.78250989109" y="31816.06818626794" transform="translate(63.47084451468592,106.40491032196636)" style="fill: rgb(120, 186, 0); stroke-width: 0px; stroke: rgb(0, 0, 0);"/></g><g class="node"><circle r="2.953952997329895" x="19813.29534278191" y="34377.20818574651" transform="translate(66.26185733371875,114.97059593895153)" style="fill: rgb(120, 186, 0); stroke-width: 0px; stroke: rgb(0, 0, 0);"/></g><g class="node"><circle r="2.0887601957182964" x="19484.43568287127" y="36270.55565884362" transform="translate(65.16199225040559,121.30286173526295)" style="fill: rgb(120, 186, 0); stroke-width: 0px; stroke: rgb(0, 0, 0);"/></g><g class="node"><circle r="2.0887601957182964" x="18417.80335372773" y="37546.43720976689" transform="translate(61.594660045912136,125.57002411293274)" style="fill: rgb(120, 186, 0); stroke-width: 0px; stroke: rgb(0, 0, 0);"/></g><g class="node"><circle r="2.0887601957182964" x="16889.883193147776" y="38202.972235834706" transform="translate(56.48455917440728,127.76579343088531)" style="fill: rgb(120, 186, 0); stroke-width: 0px; stroke: rgb(0, 0, 0);"/></g><g class="node"><circle r="2.0887601957182964" x="15734.375316502186" y="39398.957103870474" transform="translate(52.619984336127715,131.76574282230928)" style="fill: rgb(120, 186, 0); stroke-width: 0px; stroke: rgb(0, 0, 0);"/></g><g class="node"><circle r="2.0887601957182964" x="14369.197574260295" y="40348.624408587166" transform="translate(48.05417248916487,134.94188765413767)" style="fill: rgb(120, 186, 0); stroke-width: 0px; stroke: rgb(0, 0, 0);"/></g><g class="node"><circle r="2.558198337272875" x="13243.806109499214" y="41757.74420782713" transform="translate(44.29032143645222,139.65466290243185)" style="fill: rgb(120, 186, 0); stroke-width: 0px; stroke: rgb(0, 0, 0);"/></g><g class="node"><circle r="2.953952997329895" x="11455.618381468203" y="42784.6159214268" transform="translate(38.3097604731378,143.0890164596214)" style="fill: rgb(120, 186, 0); stroke-width: 0px; stroke: rgb(0, 0, 0);"/></g><g class="node"><circle r="3.30261985218445" x="11194.898636447235" y="45054.33015782739" transform="translate(37.43778808176333,150.68003397266685)" style="fill: rgb(120, 186, 0); stroke-width: 0px; stroke: rgb(0, 0, 0);"/></g><g class="node"><circle r="2.0887601957182964" x="11800.454938651761" y="46987.65943269344" transform="translate(39.46305999549084,157.14601816954328)" style="fill: rgb(120, 186, 0); stroke-width: 0px; stroke: rgb(0, 0, 0);"/></g><g class="node"><circle r="2.0887601957182964" x="12237.31045206134" y="48592.257674610766" transform="translate(40.924115224285416,162.5125674736146)" style="fill: rgb(120, 186, 0); stroke-width: 0px; stroke: rgb(0, 0, 0);"/></g><g class="node"><circle r="2.0887601957182964" x="12040.261134462327" y="50243.5449978814" transform="translate(40.26508740622852,168.03526755144281)" style="fill: rgb(120, 186, 0); stroke-width: 0px; stroke: rgb(0, 0, 0);"/></g><g class="node"><circle r="2.0887601957182964" x="11484.217172939005" y="51810.83353877423" transform="translate(38.40540860514717,173.27703524673657)" style="fill: rgb(120, 186, 0); stroke-width: 0px; stroke: rgb(0, 0, 0);"/></g><g class="node"><circle r="15.630850031017493" x="5985.343000695948" y="53356.90213111349" transform="translate(20.014525085939624,178.4478332144264)" style="fill: rgb(255, 46, 18); stroke-width: 0px; stroke: rgb(0, 0, 0);"/></g><g class="node"><circle r="2.0887601957182964" x="10305.595396226041" y="57093.66068543516" transform="translate(34.46352975326435,190.94535346299386)" style="fill: rgb(120, 186, 0); stroke-width: 0px; stroke: rgb(0, 0, 0);"/></g><g class="node"><circle r="12.44522518921246" x="10990.793224578842" y="61803.66716951945" transform="translate(36.75516128621686,206.6978835100985)" style="fill: rgb(255, 46, 18); stroke-width: 0px; stroke: rgb(0, 0, 0);"/></g><g class="node"><circle r="2.0887601957182964" x="15253.065027215516" y="59685.48487695262" transform="translate(51.010250927142195,199.61366179582816)" style="fill: rgb(120, 186, 0); stroke-width: 0px; stroke: rgb(0, 0, 0);"/></g><g class="node"><circle r="2.0887601957182964" x="16008.152189881095" y="61167.18040381979" transform="translate(53.53562605311403,204.5691652301665)" style="fill: rgb(120, 186, 0); stroke-width: 0px; stroke: rgb(0, 0, 0);"/></g><g class="node"><circle r="9.104694610426293" x="14680.903603047962" y="67583.48872805403" transform="translate(49.09666756872228,226.0283903948295)" style="fill: rgb(255, 46, 18); stroke-width: 0px; stroke: rgb(0, 0, 0);"/></g><g class="node"><circle r="2.953952997329895" x="18217.36402693255" y="69493.85647366871" transform="translate(60.92429440445669,232.417580179494)" style="fill: rgb(120, 186, 0); stroke-width: 0px; stroke: rgb(0, 0, 0);"/></g><g class="node"><circle r="2.0887601957182964" x="20032.0032442619" y="70126.31029864734" transform="translate(66.99332188716355,234.53281036336904)" style="fill: rgb(120, 186, 0); stroke-width: 0px; stroke: rgb(0, 0, 0);"/></g><g class="node"><circle r="2.0887601957182964" x="21683.665698973447" y="70320.19014096407" transform="translate(72.51727658519548,235.1812379296457)" style="fill: rgb(120, 186, 0); stroke-width: 0px; stroke: rgb(0, 0, 0);"/></g><g class="node"><circle r="2.0887601957182964" x="23308.452967983983" y="69965.72633742155" transform="translate(77.95134771900997,233.99574025893497)" style="fill: rgb(120, 186, 0); stroke-width: 0px; stroke: rgb(0, 0, 0);"/></g><g class="node"><circle r="5.526340026321213" x="25930.78046046246" y="69362.39071928871" transform="translate(86.7216737808109,231.9778953822365)" style="fill: rgb(120, 186, 0); stroke-width: 0px; stroke: rgb(0, 0, 0);"/></g><g class="node"><circle r="10.017341991266651" x="28098.898227235903" y="73935.99945465187" transform="translate(93.97290377001974,247.274245667732)" style="fill: rgb(244, 179, 0); stroke-width: 0px; stroke: rgb(0, 0, 0);"/></g><g class="node"><circle r="11.907765220416334" x="31300.374901480547" y="80126.7112753106" transform="translate(104.6801836169918,267.9789674759552)" style="fill: rgb(255, 46, 18); stroke-width: 0px; stroke: rgb(0, 0, 0);"/></g><g class="node"><circle r="2.0887601957182964" x="35319.80305839492" y="77891.99805811413" transform="translate(118.12308715182249,260.50501022780645)" style="fill: rgb(120, 186, 0); stroke-width: 0px; stroke: rgb(0, 0, 0);"/></g><g class="node"><circle r="11.440610764138166" x="39693.86593839444" y="78759.23101063381" transform="translate(132.75205999463023,263.4054548850629)" style="fill: rgb(255, 46, 18); stroke-width: 0px; stroke: rgb(0, 0, 0);"/></g><g class="node"><circle r="2.0887601957182964" x="44090.872276764814" y="79501.42662666534" transform="translate(147.45776681192245,265.88771447045264)" style="fill: rgb(120, 186, 0); stroke-width: 0px; stroke: rgb(0, 0, 0);"/></g><g class="node"><circle r="8.737910803864954" x="45939.78331519356" y="82649.76754380166" transform="translate(153.64141576987814,276.4172827551895)" style="fill: rgb(244, 179, 0); stroke-width: 0px; stroke: rgb(0, 0, 0);"/></g><g class="node"><circle r="4.430929495994842" x="49305.368306778626" y="79891.58257202011" transform="translate(164.89755286548035,267.19258385291005)" style="fill: rgb(120, 186, 0); stroke-width: 0px; stroke: rgb(0, 0, 0);"/></g><g class="node"><circle r="4.898576870244484" x="52412.13899162412" y="79110.52817836989" transform="translate(175.28809027299036,264.5803618005682)" style="fill: rgb(244, 179, 0); stroke-width: 0px; stroke: rgb(0, 0, 0);"/></g><g class="node"><circle r="2.0887601957182964" x="54273.17081837177" y="77436.53288804041" transform="translate(181.51227698452098,258.98171534461676)" style="fill: rgb(120, 186, 0); stroke-width: 0px; stroke: rgb(0, 0, 0);"/></g><g class="node"><circle r="9.90785955655335" x="57502.66264562628" y="75074.81924951515" transform="translate(192.31325299540563,251.08300752346204)" style="fill: rgb(255, 46, 18); stroke-width: 0px; stroke: rgb(0, 0, 0);"/></g><g class="node"><circle r="5.325314498591738" x="60543.625144891" y="71145.4474659415" transform="translate(202.4836961367592,237.94129587271402)" style="fill: rgb(244, 179, 0); stroke-width: 0px; stroke: rgb(0, 0, 0);"/></g><g class="node"><circle r="2.0887601957182964" x="61299.0677931352" y="68625.51492781113" transform="translate(205.01026017770968,229.51342785221115)" style="fill: rgb(120, 186, 0); stroke-width: 0px; stroke: rgb(0, 0, 0);"/></g><g class="node"><circle r="6.768356604802966" x="64371.654135092365" y="69885.86629121836" transform="translate(215.28646867923868,233.72864980340592)" style="fill: rgb(244, 179, 0); stroke-width: 0px; stroke: rgb(0, 0, 0);"/></g><g class="node"><circle r="2.0887601957182964" x="66054.8091919341" y="67327.72813714741" transform="translate(220.91574980579966,225.1730038031686)" style="fill: rgb(120, 186, 0); stroke-width: 0px; stroke: rgb(0, 0, 0);"/></g><g class="node"><circle r="4.430929495994842" x="67315.44965553032" y="65328.7217803208" transform="translate(225.1319386472586,218.48736381378194)" style="fill: rgb(120, 186, 0); stroke-width: 0px; stroke: rgb(0, 0, 0);"/></g><g class="node"><circle r="2.0887601957182964" x="69656.05065044192" y="65001.87659417265" transform="translate(232.96003562020707,217.39423610091188)" style="fill: rgb(120, 186, 0); stroke-width: 0px; stroke: rgb(0, 0, 0);"/></g><g class="node"><circle r="7.235677567623202" x="71729.80159076182" y="67441.53223855192" transform="translate(239.8956574941867,225.55361952692954)" style="fill: rgb(244, 179, 0); stroke-width: 0px; stroke: rgb(0, 0, 0);"/></g><g class="node"><circle r="6.266280587154889" x="75644.48616302812" y="65323.34154286472" transform="translate(252.98824803688336,218.46936970857766)" style="fill: rgb(244, 179, 0); stroke-width: 0px; stroke: rgb(0, 0, 0);"/></g><g class="node"><circle r="3.30261985218445" x="76427.88668768288" y="62143.39262745244" transform="translate(255.60831668121364,207.8340890550249)" style="fill: rgb(120, 186, 0); stroke-width: 0px; stroke: rgb(0, 0, 0);"/></g><g class="node"><circle r="5.907905994659789" x="78882.25599964941" y="60140.52453902547" transform="translate(263.8169096978241,201.135533575336)" style="fill: rgb(244, 179, 0); stroke-width: 0px; stroke: rgb(0, 0, 0);"/></g><g class="node"><circle r="2.558198337272875" x="77383.66797393656" y="57604.98446429941" transform="translate(258.80490961182795,192.65546643578398)" style="fill: rgb(120, 186, 0); stroke-width: 0px; stroke: rgb(0, 0, 0);"/></g><g class="node"><circle r="3.30261985218445" x="76887.34800160011" y="55496.29757186565" transform="translate(257.1449765939803,185.60300191259415)" style="fill: rgb(120, 186, 0); stroke-width: 0px; stroke: rgb(0, 0, 0);"/></g><g class="node"><circle r="5.11639667454575" x="79574.39332578062" y="54325.067347117496" transform="translate(266.1317502534469,181.68584397029264)" style="fill: rgb(120, 186, 0); stroke-width: 0px; stroke: rgb(0, 0, 0);"/></g><g class="node"><circle r="2.0887601957182964" x="82022.8423391712" y="53549.76860421878" transform="translate(274.3205429403719,179.09287158601597)" style="fill: rgb(120, 186, 0); stroke-width: 0px; stroke: rgb(0, 0, 0);"/></g><g class="node"><circle r="9.571901705489868" x="85528.28254863681" y="55260.17600917208" transform="translate(286.044423239588,184.81329768953873)" style="fill: rgb(244, 179, 0); stroke-width: 0px; stroke: rgb(0, 0, 0);"/></g><g class="node"><circle r="3.617838783811601" x="87259.67946857057" y="51261.246691827546" transform="translate(291.8350483898681,171.43895214658042)" style="fill: rgb(244, 179, 0); stroke-width: 0px; stroke: rgb(0, 0, 0);"/></g><g class="node"><circle r="2.0887601957182964" x="87308.85762560515" y="49141.61983310869" transform="translate(291.99952383145535,164.34989910738693)" style="fill: rgb(120, 186, 0); stroke-width: 0px; stroke: rgb(0, 0, 0);"/></g><g class="node"><circle r="2.0887601957182964" x="87031.3302844928" y="47501.93790282598" transform="translate(291.07133874412307,158.8660130529297)" style="fill: rgb(120, 186, 0); stroke-width: 0px; stroke: rgb(0, 0, 0);"/></g><g class="node"><circle r="2.0887601957182964" x="86182.39701912318" y="46071.94120055377" transform="translate(288.23209705392367,154.08341538646744)" style="fill: rgb(120, 186, 0); stroke-width: 0px; stroke: rgb(0, 0, 0);"/></g></svg>